%TF.GenerationSoftware,KiCad,Pcbnew,8.0.7*%
%TF.CreationDate,2025-01-10T14:29:54+01:00*%
%TF.ProjectId,LCD_PCB,4c43445f-5043-4422-9e6b-696361645f70,rev?*%
%TF.SameCoordinates,Original*%
%TF.FileFunction,Legend,Top*%
%TF.FilePolarity,Positive*%
%FSLAX46Y46*%
G04 Gerber Fmt 4.6, Leading zero omitted, Abs format (unit mm)*
G04 Created by KiCad (PCBNEW 8.0.7) date 2025-01-10 14:29:54*
%MOMM*%
%LPD*%
G01*
G04 APERTURE LIST*
%ADD10C,0.150000*%
%ADD11C,0.120000*%
%ADD12C,0.100000*%
G04 APERTURE END LIST*
D10*
X157038095Y-87977819D02*
X157609523Y-87977819D01*
X157323809Y-88977819D02*
X157323809Y-87977819D01*
X157942857Y-88977819D02*
X157942857Y-87977819D01*
X157942857Y-87977819D02*
X158323809Y-87977819D01*
X158323809Y-87977819D02*
X158419047Y-88025438D01*
X158419047Y-88025438D02*
X158466666Y-88073057D01*
X158466666Y-88073057D02*
X158514285Y-88168295D01*
X158514285Y-88168295D02*
X158514285Y-88311152D01*
X158514285Y-88311152D02*
X158466666Y-88406390D01*
X158466666Y-88406390D02*
X158419047Y-88454009D01*
X158419047Y-88454009D02*
X158323809Y-88501628D01*
X158323809Y-88501628D02*
X157942857Y-88501628D01*
X158895238Y-88073057D02*
X158942857Y-88025438D01*
X158942857Y-88025438D02*
X159038095Y-87977819D01*
X159038095Y-87977819D02*
X159276190Y-87977819D01*
X159276190Y-87977819D02*
X159371428Y-88025438D01*
X159371428Y-88025438D02*
X159419047Y-88073057D01*
X159419047Y-88073057D02*
X159466666Y-88168295D01*
X159466666Y-88168295D02*
X159466666Y-88263533D01*
X159466666Y-88263533D02*
X159419047Y-88406390D01*
X159419047Y-88406390D02*
X158847619Y-88977819D01*
X158847619Y-88977819D02*
X159466666Y-88977819D01*
X130716667Y-52682200D02*
X130859524Y-52729819D01*
X130859524Y-52729819D02*
X131097619Y-52729819D01*
X131097619Y-52729819D02*
X131192857Y-52682200D01*
X131192857Y-52682200D02*
X131240476Y-52634580D01*
X131240476Y-52634580D02*
X131288095Y-52539342D01*
X131288095Y-52539342D02*
X131288095Y-52444104D01*
X131288095Y-52444104D02*
X131240476Y-52348866D01*
X131240476Y-52348866D02*
X131192857Y-52301247D01*
X131192857Y-52301247D02*
X131097619Y-52253628D01*
X131097619Y-52253628D02*
X130907143Y-52206009D01*
X130907143Y-52206009D02*
X130811905Y-52158390D01*
X130811905Y-52158390D02*
X130764286Y-52110771D01*
X130764286Y-52110771D02*
X130716667Y-52015533D01*
X130716667Y-52015533D02*
X130716667Y-51920295D01*
X130716667Y-51920295D02*
X130764286Y-51825057D01*
X130764286Y-51825057D02*
X130811905Y-51777438D01*
X130811905Y-51777438D02*
X130907143Y-51729819D01*
X130907143Y-51729819D02*
X131145238Y-51729819D01*
X131145238Y-51729819D02*
X131288095Y-51777438D01*
X131621429Y-51729819D02*
X131859524Y-52729819D01*
X131859524Y-52729819D02*
X132050000Y-52015533D01*
X132050000Y-52015533D02*
X132240476Y-52729819D01*
X132240476Y-52729819D02*
X132478572Y-51729819D01*
X133383333Y-52729819D02*
X132811905Y-52729819D01*
X133097619Y-52729819D02*
X133097619Y-51729819D01*
X133097619Y-51729819D02*
X133002381Y-51872676D01*
X133002381Y-51872676D02*
X132907143Y-51967914D01*
X132907143Y-51967914D02*
X132811905Y-52015533D01*
X130716667Y-82682200D02*
X130859524Y-82729819D01*
X130859524Y-82729819D02*
X131097619Y-82729819D01*
X131097619Y-82729819D02*
X131192857Y-82682200D01*
X131192857Y-82682200D02*
X131240476Y-82634580D01*
X131240476Y-82634580D02*
X131288095Y-82539342D01*
X131288095Y-82539342D02*
X131288095Y-82444104D01*
X131288095Y-82444104D02*
X131240476Y-82348866D01*
X131240476Y-82348866D02*
X131192857Y-82301247D01*
X131192857Y-82301247D02*
X131097619Y-82253628D01*
X131097619Y-82253628D02*
X130907143Y-82206009D01*
X130907143Y-82206009D02*
X130811905Y-82158390D01*
X130811905Y-82158390D02*
X130764286Y-82110771D01*
X130764286Y-82110771D02*
X130716667Y-82015533D01*
X130716667Y-82015533D02*
X130716667Y-81920295D01*
X130716667Y-81920295D02*
X130764286Y-81825057D01*
X130764286Y-81825057D02*
X130811905Y-81777438D01*
X130811905Y-81777438D02*
X130907143Y-81729819D01*
X130907143Y-81729819D02*
X131145238Y-81729819D01*
X131145238Y-81729819D02*
X131288095Y-81777438D01*
X131621429Y-81729819D02*
X131859524Y-82729819D01*
X131859524Y-82729819D02*
X132050000Y-82015533D01*
X132050000Y-82015533D02*
X132240476Y-82729819D01*
X132240476Y-82729819D02*
X132478572Y-81729819D01*
X132811905Y-81825057D02*
X132859524Y-81777438D01*
X132859524Y-81777438D02*
X132954762Y-81729819D01*
X132954762Y-81729819D02*
X133192857Y-81729819D01*
X133192857Y-81729819D02*
X133288095Y-81777438D01*
X133288095Y-81777438D02*
X133335714Y-81825057D01*
X133335714Y-81825057D02*
X133383333Y-81920295D01*
X133383333Y-81920295D02*
X133383333Y-82015533D01*
X133383333Y-82015533D02*
X133335714Y-82158390D01*
X133335714Y-82158390D02*
X132764286Y-82729819D01*
X132764286Y-82729819D02*
X133383333Y-82729819D01*
X127284819Y-77851666D02*
X126808628Y-78184999D01*
X127284819Y-78423094D02*
X126284819Y-78423094D01*
X126284819Y-78423094D02*
X126284819Y-78042142D01*
X126284819Y-78042142D02*
X126332438Y-77946904D01*
X126332438Y-77946904D02*
X126380057Y-77899285D01*
X126380057Y-77899285D02*
X126475295Y-77851666D01*
X126475295Y-77851666D02*
X126618152Y-77851666D01*
X126618152Y-77851666D02*
X126713390Y-77899285D01*
X126713390Y-77899285D02*
X126761009Y-77946904D01*
X126761009Y-77946904D02*
X126808628Y-78042142D01*
X126808628Y-78042142D02*
X126808628Y-78423094D01*
X127284819Y-76899285D02*
X127284819Y-77470713D01*
X127284819Y-77184999D02*
X126284819Y-77184999D01*
X126284819Y-77184999D02*
X126427676Y-77280237D01*
X126427676Y-77280237D02*
X126522914Y-77375475D01*
X126522914Y-77375475D02*
X126570533Y-77470713D01*
X121454819Y-77841666D02*
X120978628Y-78174999D01*
X121454819Y-78413094D02*
X120454819Y-78413094D01*
X120454819Y-78413094D02*
X120454819Y-78032142D01*
X120454819Y-78032142D02*
X120502438Y-77936904D01*
X120502438Y-77936904D02*
X120550057Y-77889285D01*
X120550057Y-77889285D02*
X120645295Y-77841666D01*
X120645295Y-77841666D02*
X120788152Y-77841666D01*
X120788152Y-77841666D02*
X120883390Y-77889285D01*
X120883390Y-77889285D02*
X120931009Y-77936904D01*
X120931009Y-77936904D02*
X120978628Y-78032142D01*
X120978628Y-78032142D02*
X120978628Y-78413094D01*
X120550057Y-77460713D02*
X120502438Y-77413094D01*
X120502438Y-77413094D02*
X120454819Y-77317856D01*
X120454819Y-77317856D02*
X120454819Y-77079761D01*
X120454819Y-77079761D02*
X120502438Y-76984523D01*
X120502438Y-76984523D02*
X120550057Y-76936904D01*
X120550057Y-76936904D02*
X120645295Y-76889285D01*
X120645295Y-76889285D02*
X120740533Y-76889285D01*
X120740533Y-76889285D02*
X120883390Y-76936904D01*
X120883390Y-76936904D02*
X121454819Y-77508332D01*
X121454819Y-77508332D02*
X121454819Y-76889285D01*
X130716667Y-67682200D02*
X130859524Y-67729819D01*
X130859524Y-67729819D02*
X131097619Y-67729819D01*
X131097619Y-67729819D02*
X131192857Y-67682200D01*
X131192857Y-67682200D02*
X131240476Y-67634580D01*
X131240476Y-67634580D02*
X131288095Y-67539342D01*
X131288095Y-67539342D02*
X131288095Y-67444104D01*
X131288095Y-67444104D02*
X131240476Y-67348866D01*
X131240476Y-67348866D02*
X131192857Y-67301247D01*
X131192857Y-67301247D02*
X131097619Y-67253628D01*
X131097619Y-67253628D02*
X130907143Y-67206009D01*
X130907143Y-67206009D02*
X130811905Y-67158390D01*
X130811905Y-67158390D02*
X130764286Y-67110771D01*
X130764286Y-67110771D02*
X130716667Y-67015533D01*
X130716667Y-67015533D02*
X130716667Y-66920295D01*
X130716667Y-66920295D02*
X130764286Y-66825057D01*
X130764286Y-66825057D02*
X130811905Y-66777438D01*
X130811905Y-66777438D02*
X130907143Y-66729819D01*
X130907143Y-66729819D02*
X131145238Y-66729819D01*
X131145238Y-66729819D02*
X131288095Y-66777438D01*
X131621429Y-66729819D02*
X131859524Y-67729819D01*
X131859524Y-67729819D02*
X132050000Y-67015533D01*
X132050000Y-67015533D02*
X132240476Y-67729819D01*
X132240476Y-67729819D02*
X132478572Y-66729819D01*
X132764286Y-66729819D02*
X133383333Y-66729819D01*
X133383333Y-66729819D02*
X133050000Y-67110771D01*
X133050000Y-67110771D02*
X133192857Y-67110771D01*
X133192857Y-67110771D02*
X133288095Y-67158390D01*
X133288095Y-67158390D02*
X133335714Y-67206009D01*
X133335714Y-67206009D02*
X133383333Y-67301247D01*
X133383333Y-67301247D02*
X133383333Y-67539342D01*
X133383333Y-67539342D02*
X133335714Y-67634580D01*
X133335714Y-67634580D02*
X133288095Y-67682200D01*
X133288095Y-67682200D02*
X133192857Y-67729819D01*
X133192857Y-67729819D02*
X132907143Y-67729819D01*
X132907143Y-67729819D02*
X132811905Y-67682200D01*
X132811905Y-67682200D02*
X132764286Y-67634580D01*
X145716667Y-67682200D02*
X145859524Y-67729819D01*
X145859524Y-67729819D02*
X146097619Y-67729819D01*
X146097619Y-67729819D02*
X146192857Y-67682200D01*
X146192857Y-67682200D02*
X146240476Y-67634580D01*
X146240476Y-67634580D02*
X146288095Y-67539342D01*
X146288095Y-67539342D02*
X146288095Y-67444104D01*
X146288095Y-67444104D02*
X146240476Y-67348866D01*
X146240476Y-67348866D02*
X146192857Y-67301247D01*
X146192857Y-67301247D02*
X146097619Y-67253628D01*
X146097619Y-67253628D02*
X145907143Y-67206009D01*
X145907143Y-67206009D02*
X145811905Y-67158390D01*
X145811905Y-67158390D02*
X145764286Y-67110771D01*
X145764286Y-67110771D02*
X145716667Y-67015533D01*
X145716667Y-67015533D02*
X145716667Y-66920295D01*
X145716667Y-66920295D02*
X145764286Y-66825057D01*
X145764286Y-66825057D02*
X145811905Y-66777438D01*
X145811905Y-66777438D02*
X145907143Y-66729819D01*
X145907143Y-66729819D02*
X146145238Y-66729819D01*
X146145238Y-66729819D02*
X146288095Y-66777438D01*
X146621429Y-66729819D02*
X146859524Y-67729819D01*
X146859524Y-67729819D02*
X147050000Y-67015533D01*
X147050000Y-67015533D02*
X147240476Y-67729819D01*
X147240476Y-67729819D02*
X147478572Y-66729819D01*
X148335714Y-66729819D02*
X147859524Y-66729819D01*
X147859524Y-66729819D02*
X147811905Y-67206009D01*
X147811905Y-67206009D02*
X147859524Y-67158390D01*
X147859524Y-67158390D02*
X147954762Y-67110771D01*
X147954762Y-67110771D02*
X148192857Y-67110771D01*
X148192857Y-67110771D02*
X148288095Y-67158390D01*
X148288095Y-67158390D02*
X148335714Y-67206009D01*
X148335714Y-67206009D02*
X148383333Y-67301247D01*
X148383333Y-67301247D02*
X148383333Y-67539342D01*
X148383333Y-67539342D02*
X148335714Y-67634580D01*
X148335714Y-67634580D02*
X148288095Y-67682200D01*
X148288095Y-67682200D02*
X148192857Y-67729819D01*
X148192857Y-67729819D02*
X147954762Y-67729819D01*
X147954762Y-67729819D02*
X147859524Y-67682200D01*
X147859524Y-67682200D02*
X147811905Y-67634580D01*
X143538095Y-96077819D02*
X144109523Y-96077819D01*
X143823809Y-97077819D02*
X143823809Y-96077819D01*
X144442857Y-97077819D02*
X144442857Y-96077819D01*
X144442857Y-96077819D02*
X144823809Y-96077819D01*
X144823809Y-96077819D02*
X144919047Y-96125438D01*
X144919047Y-96125438D02*
X144966666Y-96173057D01*
X144966666Y-96173057D02*
X145014285Y-96268295D01*
X145014285Y-96268295D02*
X145014285Y-96411152D01*
X145014285Y-96411152D02*
X144966666Y-96506390D01*
X144966666Y-96506390D02*
X144919047Y-96554009D01*
X144919047Y-96554009D02*
X144823809Y-96601628D01*
X144823809Y-96601628D02*
X144442857Y-96601628D01*
X145871428Y-96077819D02*
X145680952Y-96077819D01*
X145680952Y-96077819D02*
X145585714Y-96125438D01*
X145585714Y-96125438D02*
X145538095Y-96173057D01*
X145538095Y-96173057D02*
X145442857Y-96315914D01*
X145442857Y-96315914D02*
X145395238Y-96506390D01*
X145395238Y-96506390D02*
X145395238Y-96887342D01*
X145395238Y-96887342D02*
X145442857Y-96982580D01*
X145442857Y-96982580D02*
X145490476Y-97030200D01*
X145490476Y-97030200D02*
X145585714Y-97077819D01*
X145585714Y-97077819D02*
X145776190Y-97077819D01*
X145776190Y-97077819D02*
X145871428Y-97030200D01*
X145871428Y-97030200D02*
X145919047Y-96982580D01*
X145919047Y-96982580D02*
X145966666Y-96887342D01*
X145966666Y-96887342D02*
X145966666Y-96649247D01*
X145966666Y-96649247D02*
X145919047Y-96554009D01*
X145919047Y-96554009D02*
X145871428Y-96506390D01*
X145871428Y-96506390D02*
X145776190Y-96458771D01*
X145776190Y-96458771D02*
X145585714Y-96458771D01*
X145585714Y-96458771D02*
X145490476Y-96506390D01*
X145490476Y-96506390D02*
X145442857Y-96554009D01*
X145442857Y-96554009D02*
X145395238Y-96649247D01*
X121538095Y-90177819D02*
X122109523Y-90177819D01*
X121823809Y-91177819D02*
X121823809Y-90177819D01*
X122442857Y-91177819D02*
X122442857Y-90177819D01*
X122442857Y-90177819D02*
X122823809Y-90177819D01*
X122823809Y-90177819D02*
X122919047Y-90225438D01*
X122919047Y-90225438D02*
X122966666Y-90273057D01*
X122966666Y-90273057D02*
X123014285Y-90368295D01*
X123014285Y-90368295D02*
X123014285Y-90511152D01*
X123014285Y-90511152D02*
X122966666Y-90606390D01*
X122966666Y-90606390D02*
X122919047Y-90654009D01*
X122919047Y-90654009D02*
X122823809Y-90701628D01*
X122823809Y-90701628D02*
X122442857Y-90701628D01*
X123871428Y-90511152D02*
X123871428Y-91177819D01*
X123633333Y-90130200D02*
X123395238Y-90844485D01*
X123395238Y-90844485D02*
X124014285Y-90844485D01*
X145716667Y-82682200D02*
X145859524Y-82729819D01*
X145859524Y-82729819D02*
X146097619Y-82729819D01*
X146097619Y-82729819D02*
X146192857Y-82682200D01*
X146192857Y-82682200D02*
X146240476Y-82634580D01*
X146240476Y-82634580D02*
X146288095Y-82539342D01*
X146288095Y-82539342D02*
X146288095Y-82444104D01*
X146288095Y-82444104D02*
X146240476Y-82348866D01*
X146240476Y-82348866D02*
X146192857Y-82301247D01*
X146192857Y-82301247D02*
X146097619Y-82253628D01*
X146097619Y-82253628D02*
X145907143Y-82206009D01*
X145907143Y-82206009D02*
X145811905Y-82158390D01*
X145811905Y-82158390D02*
X145764286Y-82110771D01*
X145764286Y-82110771D02*
X145716667Y-82015533D01*
X145716667Y-82015533D02*
X145716667Y-81920295D01*
X145716667Y-81920295D02*
X145764286Y-81825057D01*
X145764286Y-81825057D02*
X145811905Y-81777438D01*
X145811905Y-81777438D02*
X145907143Y-81729819D01*
X145907143Y-81729819D02*
X146145238Y-81729819D01*
X146145238Y-81729819D02*
X146288095Y-81777438D01*
X146621429Y-81729819D02*
X146859524Y-82729819D01*
X146859524Y-82729819D02*
X147050000Y-82015533D01*
X147050000Y-82015533D02*
X147240476Y-82729819D01*
X147240476Y-82729819D02*
X147478572Y-81729819D01*
X148288095Y-82063152D02*
X148288095Y-82729819D01*
X148050000Y-81682200D02*
X147811905Y-82396485D01*
X147811905Y-82396485D02*
X148430952Y-82396485D01*
X128738095Y-88877819D02*
X129309523Y-88877819D01*
X129023809Y-89877819D02*
X129023809Y-88877819D01*
X129642857Y-89877819D02*
X129642857Y-88877819D01*
X129642857Y-88877819D02*
X130023809Y-88877819D01*
X130023809Y-88877819D02*
X130119047Y-88925438D01*
X130119047Y-88925438D02*
X130166666Y-88973057D01*
X130166666Y-88973057D02*
X130214285Y-89068295D01*
X130214285Y-89068295D02*
X130214285Y-89211152D01*
X130214285Y-89211152D02*
X130166666Y-89306390D01*
X130166666Y-89306390D02*
X130119047Y-89354009D01*
X130119047Y-89354009D02*
X130023809Y-89401628D01*
X130023809Y-89401628D02*
X129642857Y-89401628D01*
X130547619Y-88877819D02*
X131166666Y-88877819D01*
X131166666Y-88877819D02*
X130833333Y-89258771D01*
X130833333Y-89258771D02*
X130976190Y-89258771D01*
X130976190Y-89258771D02*
X131071428Y-89306390D01*
X131071428Y-89306390D02*
X131119047Y-89354009D01*
X131119047Y-89354009D02*
X131166666Y-89449247D01*
X131166666Y-89449247D02*
X131166666Y-89687342D01*
X131166666Y-89687342D02*
X131119047Y-89782580D01*
X131119047Y-89782580D02*
X131071428Y-89830200D01*
X131071428Y-89830200D02*
X130976190Y-89877819D01*
X130976190Y-89877819D02*
X130690476Y-89877819D01*
X130690476Y-89877819D02*
X130595238Y-89830200D01*
X130595238Y-89830200D02*
X130547619Y-89782580D01*
X130738095Y-98777819D02*
X131309523Y-98777819D01*
X131023809Y-99777819D02*
X131023809Y-98777819D01*
X131642857Y-99777819D02*
X131642857Y-98777819D01*
X131642857Y-98777819D02*
X132023809Y-98777819D01*
X132023809Y-98777819D02*
X132119047Y-98825438D01*
X132119047Y-98825438D02*
X132166666Y-98873057D01*
X132166666Y-98873057D02*
X132214285Y-98968295D01*
X132214285Y-98968295D02*
X132214285Y-99111152D01*
X132214285Y-99111152D02*
X132166666Y-99206390D01*
X132166666Y-99206390D02*
X132119047Y-99254009D01*
X132119047Y-99254009D02*
X132023809Y-99301628D01*
X132023809Y-99301628D02*
X131642857Y-99301628D01*
X133119047Y-98777819D02*
X132642857Y-98777819D01*
X132642857Y-98777819D02*
X132595238Y-99254009D01*
X132595238Y-99254009D02*
X132642857Y-99206390D01*
X132642857Y-99206390D02*
X132738095Y-99158771D01*
X132738095Y-99158771D02*
X132976190Y-99158771D01*
X132976190Y-99158771D02*
X133071428Y-99206390D01*
X133071428Y-99206390D02*
X133119047Y-99254009D01*
X133119047Y-99254009D02*
X133166666Y-99349247D01*
X133166666Y-99349247D02*
X133166666Y-99587342D01*
X133166666Y-99587342D02*
X133119047Y-99682580D01*
X133119047Y-99682580D02*
X133071428Y-99730200D01*
X133071428Y-99730200D02*
X132976190Y-99777819D01*
X132976190Y-99777819D02*
X132738095Y-99777819D01*
X132738095Y-99777819D02*
X132642857Y-99730200D01*
X132642857Y-99730200D02*
X132595238Y-99682580D01*
X155238095Y-77077819D02*
X155809523Y-77077819D01*
X155523809Y-78077819D02*
X155523809Y-77077819D01*
X156142857Y-78077819D02*
X156142857Y-77077819D01*
X156142857Y-77077819D02*
X156523809Y-77077819D01*
X156523809Y-77077819D02*
X156619047Y-77125438D01*
X156619047Y-77125438D02*
X156666666Y-77173057D01*
X156666666Y-77173057D02*
X156714285Y-77268295D01*
X156714285Y-77268295D02*
X156714285Y-77411152D01*
X156714285Y-77411152D02*
X156666666Y-77506390D01*
X156666666Y-77506390D02*
X156619047Y-77554009D01*
X156619047Y-77554009D02*
X156523809Y-77601628D01*
X156523809Y-77601628D02*
X156142857Y-77601628D01*
X157666666Y-78077819D02*
X157095238Y-78077819D01*
X157380952Y-78077819D02*
X157380952Y-77077819D01*
X157380952Y-77077819D02*
X157285714Y-77220676D01*
X157285714Y-77220676D02*
X157190476Y-77315914D01*
X157190476Y-77315914D02*
X157095238Y-77363533D01*
X155664819Y-91358333D02*
X156379104Y-91358333D01*
X156379104Y-91358333D02*
X156521961Y-91405952D01*
X156521961Y-91405952D02*
X156617200Y-91501190D01*
X156617200Y-91501190D02*
X156664819Y-91644047D01*
X156664819Y-91644047D02*
X156664819Y-91739285D01*
X155760057Y-90929761D02*
X155712438Y-90882142D01*
X155712438Y-90882142D02*
X155664819Y-90786904D01*
X155664819Y-90786904D02*
X155664819Y-90548809D01*
X155664819Y-90548809D02*
X155712438Y-90453571D01*
X155712438Y-90453571D02*
X155760057Y-90405952D01*
X155760057Y-90405952D02*
X155855295Y-90358333D01*
X155855295Y-90358333D02*
X155950533Y-90358333D01*
X155950533Y-90358333D02*
X156093390Y-90405952D01*
X156093390Y-90405952D02*
X156664819Y-90977380D01*
X156664819Y-90977380D02*
X156664819Y-90358333D01*
D11*
%TO.C,TP2*%
X157350000Y-85925000D02*
X159250000Y-85925000D01*
X157350000Y-87825000D02*
X157350000Y-85925000D01*
X159250000Y-85925000D02*
X159250000Y-87825000D01*
X159250000Y-87825000D02*
X157350000Y-87825000D01*
%TO.C,SW1*%
X128550000Y-47275000D02*
X128550000Y-48775000D01*
X129800000Y-51275000D02*
X134300000Y-51275000D01*
X134300000Y-44775000D02*
X129800000Y-44775000D01*
X135550000Y-48775000D02*
X135550000Y-47275000D01*
%TO.C,SW2*%
X128550000Y-77275000D02*
X128550000Y-78775000D01*
X129800000Y-81275000D02*
X134300000Y-81275000D01*
X134300000Y-74775000D02*
X129800000Y-74775000D01*
X135550000Y-78775000D02*
X135550000Y-77275000D01*
%TO.C,R1*%
X123090000Y-74415000D02*
X123090000Y-80955000D01*
X123090000Y-80955000D02*
X123420000Y-80955000D01*
X123420000Y-74415000D02*
X123090000Y-74415000D01*
X125500000Y-74415000D02*
X125830000Y-74415000D01*
X125830000Y-74415000D02*
X125830000Y-80955000D01*
X125830000Y-80955000D02*
X125500000Y-80955000D01*
%TO.C,R2*%
X119630000Y-74405000D02*
X119630000Y-80945000D01*
X119630000Y-80945000D02*
X119960000Y-80945000D01*
X119960000Y-74405000D02*
X119630000Y-74405000D01*
X122040000Y-74405000D02*
X122370000Y-74405000D01*
X122370000Y-74405000D02*
X122370000Y-80945000D01*
X122370000Y-80945000D02*
X122040000Y-80945000D01*
D12*
%TO.C,RV1*%
X163800000Y-72275000D02*
X168800000Y-72275000D01*
X163800000Y-89275000D02*
X163800000Y-72275000D01*
X168800000Y-72275000D02*
X168800000Y-89275000D01*
X168800000Y-89275000D02*
X163800000Y-89275000D01*
D11*
%TO.C,SW3*%
X128550000Y-62275000D02*
X128550000Y-63775000D01*
X129800000Y-66275000D02*
X134300000Y-66275000D01*
X134300000Y-59775000D02*
X129800000Y-59775000D01*
X135550000Y-63775000D02*
X135550000Y-62275000D01*
%TO.C,SW5*%
X143550000Y-62275000D02*
X143550000Y-63775000D01*
X144800000Y-66275000D02*
X149300000Y-66275000D01*
X149300000Y-59775000D02*
X144800000Y-59775000D01*
X150550000Y-63775000D02*
X150550000Y-62275000D01*
%TO.C,TP6*%
X143850000Y-94025000D02*
X145750000Y-94025000D01*
X143850000Y-95925000D02*
X143850000Y-94025000D01*
X145750000Y-94025000D02*
X145750000Y-95925000D01*
X145750000Y-95925000D02*
X143850000Y-95925000D01*
%TO.C,TP4*%
X121850000Y-88125000D02*
X123750000Y-88125000D01*
X121850000Y-90025000D02*
X121850000Y-88125000D01*
X123750000Y-88125000D02*
X123750000Y-90025000D01*
X123750000Y-90025000D02*
X121850000Y-90025000D01*
%TO.C,SW4*%
X143550000Y-77275000D02*
X143550000Y-78775000D01*
X144800000Y-81275000D02*
X149300000Y-81275000D01*
X149300000Y-74775000D02*
X144800000Y-74775000D01*
X150550000Y-78775000D02*
X150550000Y-77275000D01*
%TO.C,TP3*%
X129050000Y-86825000D02*
X130950000Y-86825000D01*
X129050000Y-88725000D02*
X129050000Y-86825000D01*
X130950000Y-86825000D02*
X130950000Y-88725000D01*
X130950000Y-88725000D02*
X129050000Y-88725000D01*
%TO.C,TP5*%
X131050000Y-96725000D02*
X132950000Y-96725000D01*
X131050000Y-98625000D02*
X131050000Y-96725000D01*
X132950000Y-96725000D02*
X132950000Y-98625000D01*
X132950000Y-98625000D02*
X131050000Y-98625000D01*
%TO.C,TP1*%
X155550000Y-75025000D02*
X157450000Y-75025000D01*
X155550000Y-76925000D02*
X155550000Y-75025000D01*
X157450000Y-75025000D02*
X157450000Y-76925000D01*
X157450000Y-76925000D02*
X155550000Y-76925000D01*
%TD*%
M02*
