%TF.GenerationSoftware,KiCad,Pcbnew,8.0.7*%
%TF.CreationDate,2025-01-10T14:29:54+01:00*%
%TF.ProjectId,LCD_PCB,4c43445f-5043-4422-9e6b-696361645f70,rev?*%
%TF.SameCoordinates,Original*%
%TF.FileFunction,Legend,Bot*%
%TF.FilePolarity,Positive*%
%FSLAX46Y46*%
G04 Gerber Fmt 4.6, Leading zero omitted, Abs format (unit mm)*
G04 Created by KiCad (PCBNEW 8.0.7) date 2025-01-10 14:29:54*
%MOMM*%
%LPD*%
G01*
G04 APERTURE LIST*
%ADD10C,0.150000*%
%ADD11C,0.120000*%
G04 APERTURE END LIST*
D10*
X126933333Y-85349819D02*
X126933333Y-86064104D01*
X126933333Y-86064104D02*
X126980952Y-86206961D01*
X126980952Y-86206961D02*
X127076190Y-86302200D01*
X127076190Y-86302200D02*
X127219047Y-86349819D01*
X127219047Y-86349819D02*
X127314285Y-86349819D01*
X125933333Y-86349819D02*
X126504761Y-86349819D01*
X126219047Y-86349819D02*
X126219047Y-85349819D01*
X126219047Y-85349819D02*
X126314285Y-85492676D01*
X126314285Y-85492676D02*
X126409523Y-85587914D01*
X126409523Y-85587914D02*
X126504761Y-85635533D01*
D11*
%TO.C,J1*%
X125270000Y-89495000D02*
X127930000Y-89495000D01*
X125270000Y-97175000D02*
X125270000Y-89495000D01*
X125270000Y-97175000D02*
X127930000Y-97175000D01*
X126600000Y-86895000D02*
X127930000Y-86895000D01*
X127930000Y-86895000D02*
X127930000Y-88225000D01*
X127930000Y-97175000D02*
X127930000Y-89495000D01*
%TO.C,J2*%
X129690000Y-89695000D02*
X129690000Y-92355000D01*
X129690000Y-89695000D02*
X152610000Y-89695000D01*
X129690000Y-92355000D02*
X152610000Y-92355000D01*
X152610000Y-89695000D02*
X152610000Y-92355000D01*
X155210000Y-91025000D02*
X155210000Y-92355000D01*
X155210000Y-92355000D02*
X153880000Y-92355000D01*
%TD*%
M02*
