%TF.GenerationSoftware,KiCad,Pcbnew,8.0.7*%
%TF.CreationDate,2025-01-10T14:29:54+01:00*%
%TF.ProjectId,LCD_PCB,4c43445f-5043-4422-9e6b-696361645f70,rev?*%
%TF.SameCoordinates,Original*%
%TF.FileFunction,Soldermask,Top*%
%TF.FilePolarity,Negative*%
%FSLAX46Y46*%
G04 Gerber Fmt 4.6, Leading zero omitted, Abs format (unit mm)*
G04 Created by KiCad (PCBNEW 8.0.7) date 2025-01-10 14:29:54*
%MOMM*%
%LPD*%
G01*
G04 APERTURE LIST*
%ADD10R,1.500000X1.500000*%
%ADD11C,2.000000*%
%ADD12C,1.600000*%
%ADD13O,1.600000X1.600000*%
%ADD14C,3.200000*%
%ADD15C,1.500000*%
%ADD16R,1.700000X1.700000*%
%ADD17O,1.700000X1.700000*%
G04 APERTURE END LIST*
D10*
%TO.C,TP2*%
X158300000Y-86875000D03*
%TD*%
D11*
%TO.C,SW1*%
X135300000Y-50275000D03*
X128800000Y-50275000D03*
X135300000Y-45775000D03*
X128800000Y-45775000D03*
%TD*%
%TO.C,SW2*%
X135300000Y-80275000D03*
X128800000Y-80275000D03*
X135300000Y-75775000D03*
X128800000Y-75775000D03*
%TD*%
D12*
%TO.C,R1*%
X124460000Y-73875000D03*
D13*
X124460000Y-81495000D03*
%TD*%
D14*
%TO.C,H1*%
X164786649Y-95161649D03*
%TD*%
D12*
%TO.C,R2*%
X121000000Y-73865000D03*
D13*
X121000000Y-81485000D03*
%TD*%
D10*
%TO.C,RV1*%
X164800000Y-75775000D03*
D15*
X164800000Y-80775000D03*
X164800000Y-85775000D03*
%TD*%
D14*
%TO.C,H3*%
X164736649Y-43838351D03*
%TD*%
D11*
%TO.C,SW3*%
X135300000Y-65275000D03*
X128800000Y-65275000D03*
X135300000Y-60775000D03*
X128800000Y-60775000D03*
%TD*%
D14*
%TO.C,H4*%
X118413351Y-43788351D03*
%TD*%
%TO.C,H2*%
X118413351Y-95161649D03*
%TD*%
D11*
%TO.C,SW5*%
X150300000Y-65275000D03*
X143800000Y-65275000D03*
X150300000Y-60775000D03*
X143800000Y-60775000D03*
%TD*%
D10*
%TO.C,TP6*%
X144800000Y-94975000D03*
%TD*%
%TO.C,TP4*%
X122800000Y-89075000D03*
%TD*%
D11*
%TO.C,SW4*%
X150300000Y-80275000D03*
X143800000Y-80275000D03*
X150300000Y-75775000D03*
X143800000Y-75775000D03*
%TD*%
D10*
%TO.C,TP3*%
X130000000Y-87775000D03*
%TD*%
%TO.C,TP5*%
X132000000Y-97675000D03*
%TD*%
%TO.C,TP1*%
X156500000Y-75975000D03*
%TD*%
D16*
%TO.C,J1*%
X126600000Y-88225000D03*
D17*
X126600000Y-90765000D03*
X126600000Y-93305000D03*
X126600000Y-95845000D03*
%TD*%
D16*
%TO.C,J2*%
X153880000Y-91025000D03*
D17*
X151340000Y-91025000D03*
X148800000Y-91025000D03*
X146260000Y-91025000D03*
X143720000Y-91025000D03*
X141180000Y-91025000D03*
X138640000Y-91025000D03*
X136100000Y-91025000D03*
X133560000Y-91025000D03*
X131020000Y-91025000D03*
%TD*%
M02*
