%TF.GenerationSoftware,KiCad,Pcbnew,8.0.7*%
%TF.CreationDate,2025-01-10T14:29:54+01:00*%
%TF.ProjectId,LCD_PCB,4c43445f-5043-4422-9e6b-696361645f70,rev?*%
%TF.SameCoordinates,Original*%
%TF.FileFunction,Copper,L2,Bot*%
%TF.FilePolarity,Positive*%
%FSLAX46Y46*%
G04 Gerber Fmt 4.6, Leading zero omitted, Abs format (unit mm)*
G04 Created by KiCad (PCBNEW 8.0.7) date 2025-01-10 14:29:54*
%MOMM*%
%LPD*%
G01*
G04 APERTURE LIST*
%TA.AperFunction,ComponentPad*%
%ADD10C,2.000000*%
%TD*%
%TA.AperFunction,ComponentPad*%
%ADD11C,1.600000*%
%TD*%
%TA.AperFunction,ComponentPad*%
%ADD12O,1.600000X1.600000*%
%TD*%
%TA.AperFunction,ComponentPad*%
%ADD13R,1.500000X1.500000*%
%TD*%
%TA.AperFunction,ComponentPad*%
%ADD14C,1.500000*%
%TD*%
%TA.AperFunction,ComponentPad*%
%ADD15R,1.700000X1.700000*%
%TD*%
%TA.AperFunction,ComponentPad*%
%ADD16O,1.700000X1.700000*%
%TD*%
%TA.AperFunction,ViaPad*%
%ADD17C,2.000000*%
%TD*%
%TA.AperFunction,Conductor*%
%ADD18C,1.000000*%
%TD*%
G04 APERTURE END LIST*
D10*
%TO.P,SW1,1,1*%
%TO.N,Button Down*%
X135300000Y-50275000D03*
X128800000Y-50275000D03*
%TO.P,SW1,2,2*%
%TO.N,GND*%
X135300000Y-45775000D03*
X128800000Y-45775000D03*
%TD*%
%TO.P,SW2,1,1*%
%TO.N,Button Up*%
X135300000Y-80275000D03*
X128800000Y-80275000D03*
%TO.P,SW2,2,2*%
%TO.N,GND*%
X135300000Y-75775000D03*
X128800000Y-75775000D03*
%TD*%
D11*
%TO.P,R1,1*%
%TO.N,5V*%
X124460000Y-73875000D03*
D12*
%TO.P,R1,2*%
%TO.N,lcd SCL*%
X124460000Y-81495000D03*
%TD*%
D11*
%TO.P,R2,1*%
%TO.N,5V*%
X121000000Y-73865000D03*
D12*
%TO.P,R2,2*%
%TO.N,lcd SDA*%
X121000000Y-81485000D03*
%TD*%
D13*
%TO.P,RV1,1,1*%
%TO.N,GND*%
X164800000Y-75775000D03*
D14*
%TO.P,RV1,2,2*%
%TO.N,control panel pot*%
X164800000Y-80775000D03*
%TO.P,RV1,3,3*%
%TO.N,5V*%
X164800000Y-85775000D03*
%TD*%
D10*
%TO.P,SW3,1,1*%
%TO.N,Button OK*%
X135300000Y-65275000D03*
X128800000Y-65275000D03*
%TO.P,SW3,2,2*%
%TO.N,GND*%
X135300000Y-60775000D03*
X128800000Y-60775000D03*
%TD*%
%TO.P,SW5,1,1*%
%TO.N,Button Sleep*%
X150300000Y-65275000D03*
X143800000Y-65275000D03*
%TO.P,SW5,2,2*%
%TO.N,GND*%
X150300000Y-60775000D03*
X143800000Y-60775000D03*
%TD*%
%TO.P,SW4,1,1*%
%TO.N,Button Back*%
X150300000Y-80275000D03*
X143800000Y-80275000D03*
%TO.P,SW4,2,2*%
%TO.N,GND*%
X150300000Y-75775000D03*
X143800000Y-75775000D03*
%TD*%
D15*
%TO.P,J1,1,Pin_1*%
%TO.N,lcd SCL*%
X126600000Y-88225000D03*
D16*
%TO.P,J1,2,Pin_2*%
%TO.N,lcd SDA*%
X126600000Y-90765000D03*
%TO.P,J1,3,Pin_3*%
%TO.N,5V*%
X126600000Y-93305000D03*
%TO.P,J1,4,Pin_4*%
%TO.N,GND*%
X126600000Y-95845000D03*
%TD*%
D15*
%TO.P,J2,1,Pin_1*%
%TO.N,control panel pot*%
X153880000Y-91025000D03*
D16*
%TO.P,J2,2,Pin_2*%
%TO.N,5V*%
X151340000Y-91025000D03*
%TO.P,J2,3,Pin_3*%
%TO.N,Button Back*%
X148800000Y-91025000D03*
%TO.P,J2,4,Pin_4*%
%TO.N,Button Sleep*%
X146260000Y-91025000D03*
%TO.P,J2,5,Pin_5*%
%TO.N,Button Up*%
X143720000Y-91025000D03*
%TO.P,J2,6,Pin_6*%
%TO.N,Button OK*%
X141180000Y-91025000D03*
%TO.P,J2,7,Pin_7*%
%TO.N,Button Down*%
X138640000Y-91025000D03*
%TO.P,J2,8,Pin_8*%
%TO.N,GND*%
X136100000Y-91025000D03*
%TO.P,J2,9,Pin_9*%
%TO.N,lcd SCL*%
X133560000Y-91025000D03*
%TO.P,J2,10,Pin_10*%
%TO.N,lcd SDA*%
X131020000Y-91025000D03*
%TD*%
D17*
%TO.N,GND*%
X135900000Y-97675000D03*
X132100000Y-84575000D03*
%TO.N,lcd SDA*%
X121000000Y-84925000D03*
%TO.N,lcd SCL*%
X124500000Y-85075000D03*
%TO.N,5V*%
X117600000Y-73925000D03*
X162050000Y-88025000D03*
%TO.N,control panel pot*%
X162000000Y-83175000D03*
%TO.N,Button Down*%
X137850000Y-52825000D03*
%TO.N,Button Back*%
X146250000Y-84425000D03*
%TO.N,Button OK*%
X135300000Y-68875000D03*
%TO.N,Button Up*%
X135300000Y-83725000D03*
%TO.N,Button Sleep*%
X152950000Y-67925000D03*
%TD*%
D18*
%TO.N,lcd SDA*%
X121000000Y-84925000D02*
X121000000Y-81485000D01*
%TO.N,lcd SCL*%
X124500000Y-81635000D02*
X124450000Y-81585000D01*
X124500000Y-81535000D02*
X124460000Y-81495000D01*
X124500000Y-85075000D02*
X124500000Y-81535000D01*
%TO.N,5V*%
X117600000Y-73925000D02*
X120940000Y-73925000D01*
X121000000Y-73865000D02*
X124450000Y-73865000D01*
X120940000Y-73925000D02*
X121000000Y-73865000D01*
X162050000Y-88025000D02*
X162550000Y-88025000D01*
X162550000Y-88025000D02*
X164800000Y-85775000D01*
X124450000Y-73865000D02*
X124460000Y-73875000D01*
X124350000Y-73865000D02*
X124450000Y-73965000D01*
%TO.N,control panel pot*%
X162400000Y-83175000D02*
X164800000Y-80775000D01*
X162000000Y-83175000D02*
X162400000Y-83175000D01*
%TO.N,Button Down*%
X137850000Y-52825000D02*
X135300000Y-50275000D01*
X135300000Y-50275000D02*
X128800000Y-50275000D01*
%TO.N,Button Back*%
X146250000Y-84425000D02*
X146250000Y-82725000D01*
X148700000Y-80275000D02*
X150300000Y-80275000D01*
X146250000Y-82725000D02*
X143800000Y-80275000D01*
X146250000Y-82725000D02*
X148700000Y-80275000D01*
%TO.N,Button OK*%
X135300000Y-65275000D02*
X128800000Y-65275000D01*
X135300000Y-68875000D02*
X135300000Y-65275000D01*
%TO.N,Button Up*%
X135300000Y-83725000D02*
X135300000Y-80275000D01*
X135300000Y-80275000D02*
X128800000Y-80275000D01*
%TO.N,Button Sleep*%
X152950000Y-67925000D02*
X150300000Y-65275000D01*
X150300000Y-65275000D02*
X143800000Y-65275000D01*
%TD*%
%TA.AperFunction,Conductor*%
%TO.N,GND*%
G36*
X114657461Y-98979815D02*
G01*
X114611706Y-98927011D01*
X114600500Y-98875500D01*
X114600500Y-40124500D01*
X114620185Y-40057461D01*
X114672989Y-40011706D01*
X114724500Y-40000500D01*
X168475500Y-40000500D01*
X168542539Y-40020185D01*
X168588294Y-40072989D01*
X168599500Y-40124500D01*
X168599500Y-43959640D01*
X166587149Y-43959640D01*
X166587149Y-43717063D01*
X166555488Y-43476566D01*
X166492702Y-43242247D01*
X166471991Y-43192247D01*
X166399873Y-43018139D01*
X166278585Y-42808062D01*
X166278583Y-42808059D01*
X166278582Y-42808058D01*
X166130916Y-42615615D01*
X166130910Y-42615608D01*
X165959393Y-42444091D01*
X165959387Y-42444086D01*
X165766938Y-42296415D01*
X165556861Y-42175127D01*
X165332749Y-42082297D01*
X165098438Y-42019513D01*
X164918063Y-41995767D01*
X164857938Y-41987851D01*
X164857937Y-41987851D01*
X164615360Y-41987851D01*
X164567261Y-41994184D01*
X164374860Y-42019513D01*
X164140549Y-42082297D01*
X163916437Y-42175127D01*
X163706360Y-42296415D01*
X163513911Y-42444086D01*
X163342384Y-42615613D01*
X163194713Y-42808062D01*
X163073425Y-43018139D01*
X162980595Y-43242251D01*
X162917811Y-43476562D01*
X162886149Y-43717063D01*
X162886149Y-43909640D01*
X120263851Y-43909640D01*
X120263851Y-43667063D01*
X120232190Y-43426566D01*
X120169404Y-43192247D01*
X120097289Y-43018146D01*
X120076575Y-42968139D01*
X119955287Y-42758062D01*
X119955285Y-42758059D01*
X119955284Y-42758058D01*
X119807618Y-42565615D01*
X119807612Y-42565608D01*
X119636095Y-42394091D01*
X119636089Y-42394086D01*
X119443640Y-42246415D01*
X119233563Y-42125127D01*
X119009451Y-42032297D01*
X118775140Y-41969513D01*
X118594765Y-41945767D01*
X118534640Y-41937851D01*
X118534639Y-41937851D01*
X118292062Y-41937851D01*
X118243963Y-41944184D01*
X118051562Y-41969513D01*
X117817251Y-42032297D01*
X117593139Y-42125127D01*
X117383062Y-42246415D01*
X117190613Y-42394086D01*
X117019086Y-42565613D01*
X116871415Y-42758062D01*
X116750127Y-42968139D01*
X116657297Y-43192251D01*
X116594513Y-43426562D01*
X116562851Y-43667063D01*
X116562851Y-43909639D01*
X116569434Y-43959639D01*
X116594513Y-44150137D01*
X116594513Y-44150140D01*
X116657297Y-44384451D01*
X116750127Y-44608563D01*
X116871415Y-44818640D01*
X117019086Y-45011089D01*
X117019091Y-45011095D01*
X117190608Y-45182612D01*
X117190615Y-45182618D01*
X117383058Y-45330284D01*
X117383059Y-45330285D01*
X117383062Y-45330287D01*
X117593139Y-45451575D01*
X117593146Y-45451578D01*
X117817247Y-45544404D01*
X118051566Y-45607190D01*
X118292062Y-45638851D01*
X118292063Y-45638851D01*
X118534639Y-45638851D01*
X118534640Y-45638851D01*
X118775137Y-45607190D01*
X119009456Y-45544404D01*
X119233557Y-45451578D01*
X119233566Y-45451574D01*
X119443645Y-45330284D01*
X119636088Y-45182618D01*
X119636095Y-45182612D01*
X119807612Y-45011095D01*
X119807618Y-45011088D01*
X119955284Y-44818645D01*
X120076574Y-44608566D01*
X120076578Y-44608557D01*
X120169404Y-44384456D01*
X120232190Y-44150137D01*
X120263851Y-43909640D01*
X162886149Y-43909640D01*
X162886149Y-43959639D01*
X162917811Y-44200140D01*
X162980595Y-44434451D01*
X163073425Y-44658563D01*
X163194713Y-44868640D01*
X163342384Y-45061089D01*
X163342389Y-45061095D01*
X163513906Y-45232612D01*
X163513913Y-45232618D01*
X163706356Y-45380284D01*
X163706357Y-45380285D01*
X163706360Y-45380287D01*
X163916437Y-45501575D01*
X163916444Y-45501578D01*
X164140545Y-45594404D01*
X164374864Y-45657190D01*
X164615360Y-45688851D01*
X164615361Y-45688851D01*
X164857937Y-45688851D01*
X164857938Y-45688851D01*
X165098435Y-45657190D01*
X165332754Y-45594404D01*
X165556855Y-45501578D01*
X165556864Y-45501574D01*
X165766943Y-45380284D01*
X165959386Y-45232618D01*
X165959393Y-45232612D01*
X166130910Y-45061095D01*
X166130916Y-45061088D01*
X166278582Y-44868645D01*
X166399872Y-44658566D01*
X166399876Y-44658557D01*
X166492702Y-44434456D01*
X166555488Y-44200137D01*
X166587149Y-43959640D01*
X168599500Y-43959640D01*
X168599500Y-45775006D01*
X136805141Y-45775006D01*
X136805141Y-45774995D01*
X136784615Y-45527271D01*
X136784613Y-45527262D01*
X136723588Y-45286283D01*
X136623734Y-45058636D01*
X136523436Y-44905118D01*
X135823788Y-45604766D01*
X135812518Y-45562708D01*
X135740110Y-45437292D01*
X135637708Y-45334890D01*
X135512292Y-45262482D01*
X135470235Y-45251213D01*
X136170058Y-44551391D01*
X136123232Y-44514945D01*
X136123230Y-44514944D01*
X135904615Y-44396636D01*
X135904604Y-44396631D01*
X135669494Y-44315917D01*
X135424293Y-44275000D01*
X135175707Y-44275000D01*
X134930507Y-44315917D01*
X134695397Y-44396631D01*
X134695386Y-44396636D01*
X134476772Y-44514943D01*
X134476769Y-44514945D01*
X134429944Y-44551391D01*
X135129766Y-45251213D01*
X135087708Y-45262482D01*
X134962292Y-45334890D01*
X134859890Y-45437292D01*
X134787482Y-45562708D01*
X134776213Y-45604765D01*
X134076566Y-44905118D01*
X133976269Y-45058631D01*
X133876413Y-45286283D01*
X133815388Y-45527262D01*
X133815386Y-45527271D01*
X133794859Y-45774995D01*
X133794859Y-45775006D01*
X130305141Y-45775006D01*
X130305141Y-45774995D01*
X130284615Y-45527271D01*
X130284613Y-45527262D01*
X130223588Y-45286283D01*
X130123734Y-45058636D01*
X130023436Y-44905118D01*
X129323788Y-45604766D01*
X129312518Y-45562708D01*
X129240110Y-45437292D01*
X129137708Y-45334890D01*
X129012292Y-45262482D01*
X128970235Y-45251213D01*
X129670058Y-44551391D01*
X129623232Y-44514945D01*
X129623230Y-44514944D01*
X129404615Y-44396636D01*
X129404604Y-44396631D01*
X129169494Y-44315917D01*
X128924293Y-44275000D01*
X128675707Y-44275000D01*
X128430507Y-44315917D01*
X128195397Y-44396631D01*
X128195386Y-44396636D01*
X127976772Y-44514943D01*
X127976769Y-44514945D01*
X127929944Y-44551391D01*
X128629766Y-45251213D01*
X128587708Y-45262482D01*
X128462292Y-45334890D01*
X128359890Y-45437292D01*
X128287482Y-45562708D01*
X128276213Y-45604765D01*
X127576566Y-44905118D01*
X127476269Y-45058631D01*
X127376413Y-45286283D01*
X127315388Y-45527262D01*
X127315386Y-45527271D01*
X127294859Y-45774995D01*
X127294859Y-45775006D01*
X127315386Y-46022730D01*
X127315388Y-46022739D01*
X127376413Y-46263718D01*
X127476269Y-46491370D01*
X127576566Y-46644884D01*
X128276213Y-45945236D01*
X128287482Y-45987292D01*
X128359890Y-46112708D01*
X128462292Y-46215110D01*
X128587708Y-46287518D01*
X128629765Y-46298788D01*
X127929943Y-46998610D01*
X127929944Y-46998611D01*
X127976771Y-47035057D01*
X128195386Y-47153365D01*
X128195397Y-47153370D01*
X128430507Y-47234084D01*
X128675707Y-47275000D01*
X128924293Y-47275000D01*
X129169494Y-47234084D01*
X129404604Y-47153370D01*
X129404610Y-47153368D01*
X129623239Y-47035051D01*
X129670058Y-46998612D01*
X129670058Y-46998610D01*
X128970235Y-46298788D01*
X129012292Y-46287518D01*
X129137708Y-46215110D01*
X129240110Y-46112708D01*
X129312518Y-45987292D01*
X129323788Y-45945236D01*
X130023436Y-46644884D01*
X130123733Y-46491368D01*
X130223588Y-46263718D01*
X130284613Y-46022739D01*
X130284615Y-46022730D01*
X130305141Y-45775006D01*
X133794859Y-45775006D01*
X133815386Y-46022730D01*
X133815388Y-46022739D01*
X133876413Y-46263718D01*
X133976269Y-46491370D01*
X134076566Y-46644884D01*
X134776213Y-45945236D01*
X134787482Y-45987292D01*
X134859890Y-46112708D01*
X134962292Y-46215110D01*
X135087708Y-46287518D01*
X135129765Y-46298788D01*
X134429943Y-46998610D01*
X134429944Y-46998611D01*
X134476771Y-47035057D01*
X134695386Y-47153365D01*
X134695397Y-47153370D01*
X134930507Y-47234084D01*
X135175707Y-47275000D01*
X135424293Y-47275000D01*
X135669494Y-47234084D01*
X135904604Y-47153370D01*
X135904610Y-47153368D01*
X136123239Y-47035051D01*
X136170058Y-46998612D01*
X136170058Y-46998610D01*
X135470235Y-46298788D01*
X135512292Y-46287518D01*
X135637708Y-46215110D01*
X135740110Y-46112708D01*
X135812518Y-45987292D01*
X135823788Y-45945236D01*
X136523436Y-46644884D01*
X136623733Y-46491368D01*
X136723588Y-46263718D01*
X136784613Y-46022739D01*
X136784615Y-46022730D01*
X136805141Y-45775006D01*
X168599500Y-45775006D01*
X168599500Y-52825006D01*
X139355643Y-52825006D01*
X139355643Y-52824995D01*
X139335110Y-52577188D01*
X139335108Y-52577176D01*
X139274064Y-52336119D01*
X139174174Y-52108394D01*
X139038167Y-51900218D01*
X139038164Y-51900215D01*
X138869744Y-51717262D01*
X138673509Y-51564526D01*
X138454810Y-51446172D01*
X138219614Y-51365429D01*
X137974335Y-51324500D01*
X137815782Y-51324500D01*
X137748743Y-51304815D01*
X137728101Y-51288181D01*
X136839343Y-50399423D01*
X136805858Y-50338100D01*
X136803447Y-50301505D01*
X136805642Y-50275006D01*
X136805643Y-50274998D01*
X136805643Y-50274995D01*
X136785110Y-50027188D01*
X136785108Y-50027176D01*
X136724064Y-49786119D01*
X136624174Y-49558394D01*
X136488167Y-49350218D01*
X136488164Y-49350215D01*
X136319744Y-49167262D01*
X136123509Y-49014526D01*
X135904810Y-48896172D01*
X135669614Y-48815429D01*
X135424335Y-48774500D01*
X135175665Y-48774500D01*
X134930386Y-48815429D01*
X134695190Y-48896172D01*
X134476491Y-49014526D01*
X134280256Y-49167262D01*
X134255806Y-49193823D01*
X134218374Y-49234483D01*
X134158487Y-49270474D01*
X134127145Y-49274500D01*
X129972855Y-49274500D01*
X129905816Y-49254815D01*
X129881626Y-49234483D01*
X129819748Y-49167266D01*
X129819744Y-49167262D01*
X129623509Y-49014526D01*
X129404810Y-48896172D01*
X129169614Y-48815429D01*
X128924335Y-48774500D01*
X128675665Y-48774500D01*
X128430386Y-48815429D01*
X128195190Y-48896172D01*
X127976491Y-49014526D01*
X127780256Y-49167262D01*
X127611836Y-49350215D01*
X127475827Y-49558393D01*
X127375937Y-49786119D01*
X127314892Y-50027179D01*
X127294357Y-50275000D01*
X127299586Y-50338100D01*
X127314891Y-50522813D01*
X127314893Y-50522825D01*
X127375937Y-50763882D01*
X127475827Y-50991607D01*
X127611834Y-51199783D01*
X127685243Y-51279526D01*
X127780256Y-51382738D01*
X127976491Y-51535474D01*
X127976493Y-51535475D01*
X127976494Y-51535476D01*
X128195189Y-51653828D01*
X128195198Y-51653831D01*
X128430384Y-51734571D01*
X128675665Y-51775500D01*
X128924335Y-51775500D01*
X129169617Y-51734571D01*
X129404803Y-51653831D01*
X129404812Y-51653828D01*
X129623507Y-51535476D01*
X129819745Y-51382738D01*
X129819748Y-51382735D01*
X129881626Y-51315517D01*
X129941513Y-51279526D01*
X129972855Y-51275500D01*
X134127145Y-51275500D01*
X134194184Y-51295185D01*
X134218374Y-51315517D01*
X134280253Y-51382735D01*
X134280256Y-51382738D01*
X134280257Y-51382739D01*
X134476491Y-51535474D01*
X134476493Y-51535475D01*
X134476494Y-51535476D01*
X134695189Y-51653828D01*
X134695198Y-51653831D01*
X134930384Y-51734571D01*
X135175665Y-51775500D01*
X135334217Y-51775500D01*
X135401256Y-51795185D01*
X135421898Y-51811819D01*
X136310658Y-52700578D01*
X136344143Y-52761901D01*
X136346553Y-52798501D01*
X136344357Y-52824997D01*
X136344357Y-52825005D01*
X136364891Y-53072813D01*
X136364893Y-53072825D01*
X136425937Y-53313882D01*
X136525827Y-53541607D01*
X136661834Y-53749783D01*
X136683443Y-53773256D01*
X136830256Y-53932738D01*
X137026491Y-54085474D01*
X137026493Y-54085475D01*
X137026494Y-54085476D01*
X137245189Y-54203828D01*
X137245198Y-54203831D01*
X137480384Y-54284571D01*
X137725665Y-54325500D01*
X137974335Y-54325500D01*
X138219617Y-54284571D01*
X138454803Y-54203831D01*
X138454812Y-54203828D01*
X138673507Y-54085476D01*
X138869743Y-53932739D01*
X139038167Y-53749783D01*
X139174174Y-53541607D01*
X139274064Y-53313882D01*
X139335108Y-53072825D01*
X139335110Y-53072813D01*
X139355643Y-52825006D01*
X168599500Y-52825006D01*
X168599500Y-60775006D01*
X151805141Y-60775006D01*
X151805141Y-60774995D01*
X151784615Y-60527271D01*
X151784613Y-60527262D01*
X151723588Y-60286283D01*
X151623734Y-60058636D01*
X151523436Y-59905118D01*
X150823788Y-60604766D01*
X150812518Y-60562708D01*
X150740110Y-60437292D01*
X150637708Y-60334890D01*
X150512292Y-60262482D01*
X150470235Y-60251213D01*
X151170058Y-59551391D01*
X151123232Y-59514945D01*
X151123230Y-59514944D01*
X150904615Y-59396636D01*
X150904604Y-59396631D01*
X150669494Y-59315917D01*
X150424293Y-59275000D01*
X150175707Y-59275000D01*
X149930507Y-59315917D01*
X149695397Y-59396631D01*
X149695386Y-59396636D01*
X149476772Y-59514943D01*
X149476769Y-59514945D01*
X149429944Y-59551391D01*
X150129766Y-60251213D01*
X150087708Y-60262482D01*
X149962292Y-60334890D01*
X149859890Y-60437292D01*
X149787482Y-60562708D01*
X149776213Y-60604765D01*
X149076566Y-59905118D01*
X148976269Y-60058631D01*
X148876413Y-60286283D01*
X148815388Y-60527262D01*
X148815386Y-60527271D01*
X148794859Y-60774995D01*
X148794859Y-60775006D01*
X145305141Y-60775006D01*
X145305141Y-60774995D01*
X145284615Y-60527271D01*
X145284613Y-60527262D01*
X145223588Y-60286283D01*
X145123734Y-60058636D01*
X145023436Y-59905118D01*
X144323788Y-60604766D01*
X144312518Y-60562708D01*
X144240110Y-60437292D01*
X144137708Y-60334890D01*
X144012292Y-60262482D01*
X143970235Y-60251213D01*
X144670058Y-59551391D01*
X144623232Y-59514945D01*
X144623230Y-59514944D01*
X144404615Y-59396636D01*
X144404604Y-59396631D01*
X144169494Y-59315917D01*
X143924293Y-59275000D01*
X143675707Y-59275000D01*
X143430507Y-59315917D01*
X143195397Y-59396631D01*
X143195386Y-59396636D01*
X142976772Y-59514943D01*
X142976769Y-59514945D01*
X142929944Y-59551391D01*
X143629766Y-60251213D01*
X143587708Y-60262482D01*
X143462292Y-60334890D01*
X143359890Y-60437292D01*
X143287482Y-60562708D01*
X143276213Y-60604765D01*
X142576566Y-59905118D01*
X142476269Y-60058631D01*
X142376413Y-60286283D01*
X142315388Y-60527262D01*
X142315386Y-60527271D01*
X142294859Y-60774995D01*
X142294859Y-60775006D01*
X136805141Y-60775006D01*
X136805141Y-60774995D01*
X136784615Y-60527271D01*
X136784613Y-60527262D01*
X136723588Y-60286283D01*
X136623734Y-60058636D01*
X136523436Y-59905118D01*
X135823788Y-60604766D01*
X135812518Y-60562708D01*
X135740110Y-60437292D01*
X135637708Y-60334890D01*
X135512292Y-60262482D01*
X135470235Y-60251213D01*
X136170058Y-59551391D01*
X136123232Y-59514945D01*
X136123230Y-59514944D01*
X135904615Y-59396636D01*
X135904604Y-59396631D01*
X135669494Y-59315917D01*
X135424293Y-59275000D01*
X135175707Y-59275000D01*
X134930507Y-59315917D01*
X134695397Y-59396631D01*
X134695386Y-59396636D01*
X134476772Y-59514943D01*
X134476769Y-59514945D01*
X134429944Y-59551391D01*
X135129766Y-60251213D01*
X135087708Y-60262482D01*
X134962292Y-60334890D01*
X134859890Y-60437292D01*
X134787482Y-60562708D01*
X134776213Y-60604765D01*
X134076566Y-59905118D01*
X133976269Y-60058631D01*
X133876413Y-60286283D01*
X133815388Y-60527262D01*
X133815386Y-60527271D01*
X133794859Y-60774995D01*
X133794859Y-60775006D01*
X130305141Y-60775006D01*
X130305141Y-60774995D01*
X130284615Y-60527271D01*
X130284613Y-60527262D01*
X130223588Y-60286283D01*
X130123734Y-60058636D01*
X130023436Y-59905118D01*
X129323788Y-60604766D01*
X129312518Y-60562708D01*
X129240110Y-60437292D01*
X129137708Y-60334890D01*
X129012292Y-60262482D01*
X128970235Y-60251213D01*
X129670058Y-59551391D01*
X129623232Y-59514945D01*
X129623230Y-59514944D01*
X129404615Y-59396636D01*
X129404604Y-59396631D01*
X129169494Y-59315917D01*
X128924293Y-59275000D01*
X128675707Y-59275000D01*
X128430507Y-59315917D01*
X128195397Y-59396631D01*
X128195386Y-59396636D01*
X127976772Y-59514943D01*
X127976769Y-59514945D01*
X127929944Y-59551391D01*
X128629766Y-60251213D01*
X128587708Y-60262482D01*
X128462292Y-60334890D01*
X128359890Y-60437292D01*
X128287482Y-60562708D01*
X128276213Y-60604765D01*
X127576566Y-59905118D01*
X127476269Y-60058631D01*
X127376413Y-60286283D01*
X127315388Y-60527262D01*
X127315386Y-60527271D01*
X127294859Y-60774995D01*
X127294859Y-60775006D01*
X127315386Y-61022730D01*
X127315388Y-61022739D01*
X127376413Y-61263718D01*
X127476269Y-61491370D01*
X127576566Y-61644884D01*
X128276213Y-60945236D01*
X128287482Y-60987292D01*
X128359890Y-61112708D01*
X128462292Y-61215110D01*
X128587708Y-61287518D01*
X128629765Y-61298788D01*
X127929943Y-61998610D01*
X127929944Y-61998611D01*
X127976771Y-62035057D01*
X128195386Y-62153365D01*
X128195397Y-62153370D01*
X128430507Y-62234084D01*
X128675707Y-62275000D01*
X128924293Y-62275000D01*
X129169494Y-62234084D01*
X129404604Y-62153370D01*
X129404610Y-62153368D01*
X129623239Y-62035051D01*
X129670058Y-61998612D01*
X129670058Y-61998610D01*
X128970235Y-61298788D01*
X129012292Y-61287518D01*
X129137708Y-61215110D01*
X129240110Y-61112708D01*
X129312518Y-60987292D01*
X129323788Y-60945236D01*
X130023436Y-61644884D01*
X130123733Y-61491368D01*
X130223588Y-61263718D01*
X130284613Y-61022739D01*
X130284615Y-61022730D01*
X130305141Y-60775006D01*
X133794859Y-60775006D01*
X133815386Y-61022730D01*
X133815388Y-61022739D01*
X133876413Y-61263718D01*
X133976269Y-61491370D01*
X134076566Y-61644884D01*
X134776213Y-60945236D01*
X134787482Y-60987292D01*
X134859890Y-61112708D01*
X134962292Y-61215110D01*
X135087708Y-61287518D01*
X135129765Y-61298788D01*
X134429943Y-61998610D01*
X134429944Y-61998611D01*
X134476771Y-62035057D01*
X134695386Y-62153365D01*
X134695397Y-62153370D01*
X134930507Y-62234084D01*
X135175707Y-62275000D01*
X135424293Y-62275000D01*
X135669494Y-62234084D01*
X135904604Y-62153370D01*
X135904610Y-62153368D01*
X136123239Y-62035051D01*
X136170058Y-61998612D01*
X136170058Y-61998610D01*
X135470235Y-61298788D01*
X135512292Y-61287518D01*
X135637708Y-61215110D01*
X135740110Y-61112708D01*
X135812518Y-60987292D01*
X135823788Y-60945236D01*
X136523436Y-61644884D01*
X136623733Y-61491368D01*
X136723588Y-61263718D01*
X136784613Y-61022739D01*
X136784615Y-61022730D01*
X136805141Y-60775006D01*
X142294859Y-60775006D01*
X142315386Y-61022730D01*
X142315388Y-61022739D01*
X142376413Y-61263718D01*
X142476269Y-61491370D01*
X142576566Y-61644884D01*
X143276213Y-60945236D01*
X143287482Y-60987292D01*
X143359890Y-61112708D01*
X143462292Y-61215110D01*
X143587708Y-61287518D01*
X143629765Y-61298788D01*
X142929943Y-61998610D01*
X142929944Y-61998611D01*
X142976771Y-62035057D01*
X143195386Y-62153365D01*
X143195397Y-62153370D01*
X143430507Y-62234084D01*
X143675707Y-62275000D01*
X143924293Y-62275000D01*
X144169494Y-62234084D01*
X144404604Y-62153370D01*
X144404610Y-62153368D01*
X144623239Y-62035051D01*
X144670058Y-61998612D01*
X144670058Y-61998610D01*
X143970235Y-61298788D01*
X144012292Y-61287518D01*
X144137708Y-61215110D01*
X144240110Y-61112708D01*
X144312518Y-60987292D01*
X144323788Y-60945236D01*
X145023436Y-61644884D01*
X145123733Y-61491368D01*
X145223588Y-61263718D01*
X145284613Y-61022739D01*
X145284615Y-61022730D01*
X145305141Y-60775006D01*
X148794859Y-60775006D01*
X148815386Y-61022730D01*
X148815388Y-61022739D01*
X148876413Y-61263718D01*
X148976269Y-61491370D01*
X149076566Y-61644884D01*
X149776213Y-60945236D01*
X149787482Y-60987292D01*
X149859890Y-61112708D01*
X149962292Y-61215110D01*
X150087708Y-61287518D01*
X150129765Y-61298788D01*
X149429943Y-61998610D01*
X149429944Y-61998611D01*
X149476771Y-62035057D01*
X149695386Y-62153365D01*
X149695397Y-62153370D01*
X149930507Y-62234084D01*
X150175707Y-62275000D01*
X150424293Y-62275000D01*
X150669494Y-62234084D01*
X150904604Y-62153370D01*
X150904610Y-62153368D01*
X151123239Y-62035051D01*
X151170058Y-61998612D01*
X151170058Y-61998610D01*
X150470235Y-61298788D01*
X150512292Y-61287518D01*
X150637708Y-61215110D01*
X150740110Y-61112708D01*
X150812518Y-60987292D01*
X150823788Y-60945236D01*
X151523436Y-61644884D01*
X151623733Y-61491368D01*
X151723588Y-61263718D01*
X151784613Y-61022739D01*
X151784615Y-61022730D01*
X151805141Y-60775006D01*
X168599500Y-60775006D01*
X168599500Y-67925006D01*
X154455643Y-67925006D01*
X154455643Y-67924995D01*
X154435110Y-67677188D01*
X154435108Y-67677176D01*
X154374064Y-67436119D01*
X154274174Y-67208394D01*
X154138167Y-67000218D01*
X154138164Y-67000215D01*
X153969744Y-66817262D01*
X153773509Y-66664526D01*
X153554810Y-66546172D01*
X153319614Y-66465429D01*
X153074335Y-66424500D01*
X152915782Y-66424500D01*
X152848743Y-66404815D01*
X152828101Y-66388181D01*
X151839343Y-65399423D01*
X151805858Y-65338100D01*
X151803447Y-65301505D01*
X151805642Y-65275006D01*
X151805643Y-65274998D01*
X151805643Y-65274995D01*
X151785110Y-65027188D01*
X151785108Y-65027176D01*
X151724064Y-64786119D01*
X151624174Y-64558394D01*
X151488167Y-64350218D01*
X151488164Y-64350215D01*
X151319744Y-64167262D01*
X151123509Y-64014526D01*
X150904810Y-63896172D01*
X150669614Y-63815429D01*
X150424335Y-63774500D01*
X150175665Y-63774500D01*
X149930386Y-63815429D01*
X149695190Y-63896172D01*
X149476491Y-64014526D01*
X149280256Y-64167262D01*
X149255806Y-64193823D01*
X149218374Y-64234483D01*
X149158487Y-64270474D01*
X149127145Y-64274500D01*
X144972855Y-64274500D01*
X144905816Y-64254815D01*
X144881626Y-64234483D01*
X144819748Y-64167266D01*
X144819744Y-64167262D01*
X144623509Y-64014526D01*
X144404810Y-63896172D01*
X144169614Y-63815429D01*
X143924335Y-63774500D01*
X143675665Y-63774500D01*
X143430386Y-63815429D01*
X143195190Y-63896172D01*
X142976491Y-64014526D01*
X142780256Y-64167262D01*
X142611836Y-64350215D01*
X142475827Y-64558393D01*
X142375937Y-64786119D01*
X142314892Y-65027179D01*
X142294357Y-65275000D01*
X142299586Y-65338100D01*
X142314891Y-65522813D01*
X142314893Y-65522825D01*
X142375937Y-65763882D01*
X142475827Y-65991607D01*
X142611834Y-66199783D01*
X142718375Y-66315517D01*
X142780256Y-66382738D01*
X142976491Y-66535474D01*
X142976493Y-66535475D01*
X142976494Y-66535476D01*
X143195189Y-66653828D01*
X143195198Y-66653831D01*
X143430384Y-66734571D01*
X143675665Y-66775500D01*
X143924335Y-66775500D01*
X144169617Y-66734571D01*
X144404803Y-66653831D01*
X144404812Y-66653828D01*
X144623507Y-66535476D01*
X144819745Y-66382738D01*
X144819748Y-66382735D01*
X144881626Y-66315517D01*
X144941513Y-66279526D01*
X144972855Y-66275500D01*
X149127145Y-66275500D01*
X149194184Y-66295185D01*
X149218374Y-66315517D01*
X149280253Y-66382735D01*
X149280256Y-66382738D01*
X149299501Y-66397717D01*
X149476491Y-66535474D01*
X149476493Y-66535475D01*
X149476494Y-66535476D01*
X149695189Y-66653828D01*
X149695198Y-66653831D01*
X149930384Y-66734571D01*
X150175665Y-66775500D01*
X150334218Y-66775500D01*
X150401257Y-66795185D01*
X150421899Y-66811819D01*
X151410658Y-67800578D01*
X151444143Y-67861901D01*
X151446553Y-67898501D01*
X151444357Y-67924997D01*
X151444357Y-67925005D01*
X151464891Y-68172813D01*
X151464893Y-68172825D01*
X151525937Y-68413882D01*
X151625827Y-68641607D01*
X151761834Y-68849783D01*
X151785054Y-68875006D01*
X136805643Y-68875006D01*
X136805643Y-68874995D01*
X136785110Y-68627188D01*
X136785108Y-68627176D01*
X136724064Y-68386119D01*
X136624174Y-68158394D01*
X136488167Y-67950218D01*
X136464957Y-67925005D01*
X136333270Y-67781955D01*
X136302348Y-67719302D01*
X136300500Y-67697973D01*
X136300500Y-66452029D01*
X136320185Y-66384990D01*
X136333270Y-66368047D01*
X136488164Y-66199786D01*
X136624174Y-65991607D01*
X136724064Y-65763882D01*
X136785108Y-65522825D01*
X136785110Y-65522813D01*
X136805643Y-65275006D01*
X136805643Y-65274995D01*
X136785110Y-65027188D01*
X136785108Y-65027176D01*
X136724064Y-64786119D01*
X136624174Y-64558394D01*
X136488167Y-64350218D01*
X136488164Y-64350215D01*
X136319744Y-64167262D01*
X136123509Y-64014526D01*
X135904810Y-63896172D01*
X135669614Y-63815429D01*
X135424335Y-63774500D01*
X135175665Y-63774500D01*
X134930386Y-63815429D01*
X134695190Y-63896172D01*
X134476491Y-64014526D01*
X134280256Y-64167262D01*
X134255806Y-64193823D01*
X134218374Y-64234483D01*
X134158487Y-64270474D01*
X134127145Y-64274500D01*
X129972855Y-64274500D01*
X129905816Y-64254815D01*
X129881626Y-64234483D01*
X129819748Y-64167266D01*
X129819744Y-64167262D01*
X129623509Y-64014526D01*
X129404810Y-63896172D01*
X129169614Y-63815429D01*
X128924335Y-63774500D01*
X128675665Y-63774500D01*
X128430386Y-63815429D01*
X128195190Y-63896172D01*
X127976491Y-64014526D01*
X127780256Y-64167262D01*
X127611836Y-64350215D01*
X127475827Y-64558393D01*
X127375937Y-64786119D01*
X127314892Y-65027179D01*
X127294357Y-65275000D01*
X127299586Y-65338100D01*
X127314891Y-65522813D01*
X127314893Y-65522825D01*
X127375937Y-65763882D01*
X127475827Y-65991607D01*
X127611834Y-66199783D01*
X127718375Y-66315517D01*
X127780256Y-66382738D01*
X127976491Y-66535474D01*
X127976493Y-66535475D01*
X127976494Y-66535476D01*
X128195189Y-66653828D01*
X128195198Y-66653831D01*
X128430384Y-66734571D01*
X128675665Y-66775500D01*
X128924335Y-66775500D01*
X129169617Y-66734571D01*
X129404803Y-66653831D01*
X129404812Y-66653828D01*
X129623507Y-66535476D01*
X129819745Y-66382738D01*
X129819748Y-66382735D01*
X129881626Y-66315517D01*
X129941513Y-66279526D01*
X129972855Y-66275500D01*
X134127145Y-66275500D01*
X134194184Y-66295185D01*
X134218375Y-66315517D01*
X134266730Y-66368045D01*
X134297652Y-66430700D01*
X134299500Y-66452028D01*
X134299500Y-67697973D01*
X134279815Y-67765012D01*
X134266735Y-67781951D01*
X134111836Y-67950215D01*
X133975827Y-68158393D01*
X133875937Y-68386119D01*
X133814892Y-68627179D01*
X133813696Y-68641607D01*
X133794357Y-68874995D01*
X133794357Y-68875006D01*
X133814891Y-69122813D01*
X133814893Y-69122825D01*
X133875937Y-69363882D01*
X133975827Y-69591607D01*
X134111834Y-69799783D01*
X134133443Y-69823256D01*
X134280256Y-69982738D01*
X134476491Y-70135474D01*
X134476493Y-70135475D01*
X134476494Y-70135476D01*
X134695189Y-70253828D01*
X134695198Y-70253831D01*
X134930384Y-70334571D01*
X135175665Y-70375500D01*
X135424335Y-70375500D01*
X135669617Y-70334571D01*
X135904803Y-70253831D01*
X135904812Y-70253828D01*
X136123507Y-70135476D01*
X136319743Y-69982739D01*
X136488167Y-69799783D01*
X136624174Y-69591607D01*
X136724064Y-69363882D01*
X136785108Y-69122825D01*
X136785110Y-69122813D01*
X136805643Y-68875006D01*
X151785054Y-68875006D01*
X151930256Y-69032738D01*
X152126491Y-69185474D01*
X152126493Y-69185475D01*
X152126494Y-69185476D01*
X152345189Y-69303828D01*
X152345198Y-69303831D01*
X152580384Y-69384571D01*
X152825665Y-69425500D01*
X153074335Y-69425500D01*
X153319617Y-69384571D01*
X153554803Y-69303831D01*
X153554812Y-69303828D01*
X153773507Y-69185476D01*
X153969743Y-69032739D01*
X154138167Y-68849783D01*
X154274174Y-68641607D01*
X154374064Y-68413882D01*
X154435108Y-68172825D01*
X154435110Y-68172813D01*
X154455643Y-67925006D01*
X168599500Y-67925006D01*
X168599500Y-73875002D01*
X125765468Y-73875002D01*
X125765468Y-73874999D01*
X125745636Y-73648314D01*
X125745634Y-73648303D01*
X125686742Y-73428512D01*
X125686739Y-73428503D01*
X125590569Y-73222268D01*
X125590568Y-73222266D01*
X125460046Y-73035859D01*
X125299142Y-72874955D01*
X125256097Y-72844815D01*
X125112734Y-72744432D01*
X124906496Y-72648261D01*
X124686692Y-72589365D01*
X124524770Y-72575199D01*
X124460002Y-72569532D01*
X124460000Y-72569532D01*
X124459998Y-72569532D01*
X124403327Y-72574491D01*
X124233308Y-72589365D01*
X124013504Y-72648261D01*
X123807266Y-72744432D01*
X123667816Y-72842076D01*
X123601611Y-72864402D01*
X123596694Y-72864500D01*
X121877588Y-72864500D01*
X121810549Y-72844815D01*
X121806477Y-72842083D01*
X121652734Y-72734432D01*
X121446496Y-72638261D01*
X121226692Y-72579365D01*
X121064770Y-72565199D01*
X121000002Y-72559532D01*
X121000000Y-72559532D01*
X120999998Y-72559532D01*
X120943327Y-72564491D01*
X120773308Y-72579365D01*
X120553504Y-72638261D01*
X120347266Y-72734432D01*
X120160861Y-72864953D01*
X120150859Y-72874955D01*
X120137632Y-72888181D01*
X120076309Y-72921666D01*
X120049951Y-72924500D01*
X118772855Y-72924500D01*
X118705816Y-72904815D01*
X118681626Y-72884483D01*
X118642586Y-72842075D01*
X118619744Y-72817262D01*
X118423509Y-72664526D01*
X118374972Y-72638259D01*
X118247976Y-72569532D01*
X118204810Y-72546172D01*
X117969614Y-72465429D01*
X117724335Y-72424500D01*
X117475665Y-72424500D01*
X117230386Y-72465429D01*
X116995190Y-72546172D01*
X116776491Y-72664526D01*
X116580256Y-72817262D01*
X116411836Y-73000215D01*
X116275827Y-73208393D01*
X116175937Y-73436119D01*
X116114892Y-73677179D01*
X116094357Y-73925000D01*
X116108998Y-74101687D01*
X116114891Y-74172813D01*
X116114893Y-74172825D01*
X116175937Y-74413882D01*
X116275827Y-74641607D01*
X116411834Y-74849783D01*
X116462774Y-74905118D01*
X116580256Y-75032738D01*
X116776491Y-75185474D01*
X116776493Y-75185475D01*
X116776494Y-75185476D01*
X116995189Y-75303828D01*
X116995198Y-75303831D01*
X117230384Y-75384571D01*
X117475665Y-75425500D01*
X117724335Y-75425500D01*
X117969617Y-75384571D01*
X118204803Y-75303831D01*
X118204812Y-75303828D01*
X118423507Y-75185476D01*
X118619745Y-75032738D01*
X118619748Y-75032735D01*
X118681626Y-74965517D01*
X118741513Y-74929526D01*
X118772855Y-74925500D01*
X120208102Y-74925500D01*
X120275141Y-74945185D01*
X120279211Y-74947916D01*
X120347266Y-74995568D01*
X120347267Y-74995569D01*
X120347269Y-74995570D01*
X120347268Y-74995570D01*
X120484758Y-75059682D01*
X120553504Y-75091739D01*
X120553508Y-75091740D01*
X120553512Y-75091742D01*
X120773303Y-75150634D01*
X120773307Y-75150635D01*
X120773308Y-75150635D01*
X120773309Y-75150636D01*
X120773314Y-75150636D01*
X120999998Y-75170468D01*
X121000002Y-75170468D01*
X121226687Y-75150636D01*
X121226698Y-75150634D01*
X121446489Y-75091742D01*
X121446498Y-75091739D01*
X121652733Y-74995569D01*
X121652735Y-74995568D01*
X121806465Y-74887925D01*
X121872671Y-74865598D01*
X121877588Y-74865500D01*
X123568129Y-74865500D01*
X123635168Y-74885185D01*
X123639252Y-74887925D01*
X123807266Y-75005568D01*
X123807268Y-75005569D01*
X124013503Y-75101739D01*
X124013512Y-75101742D01*
X124233303Y-75160634D01*
X124233307Y-75160635D01*
X124233308Y-75160635D01*
X124233309Y-75160636D01*
X124233314Y-75160636D01*
X124459998Y-75180468D01*
X124460002Y-75180468D01*
X124686687Y-75160636D01*
X124686698Y-75160634D01*
X124906489Y-75101742D01*
X124906498Y-75101739D01*
X125112733Y-75005569D01*
X125112735Y-75005568D01*
X125299142Y-74875046D01*
X125460046Y-74714142D01*
X125590568Y-74527735D01*
X125590569Y-74527733D01*
X125686739Y-74321498D01*
X125686742Y-74321489D01*
X125745634Y-74101698D01*
X125745636Y-74101687D01*
X125765468Y-73875002D01*
X168599500Y-73875002D01*
X168599500Y-76572845D01*
X166050000Y-76572845D01*
X166050000Y-76025000D01*
X165290748Y-76025000D01*
X165312518Y-75987292D01*
X165350000Y-75847409D01*
X165350000Y-75702591D01*
X165312518Y-75562708D01*
X165290748Y-75525000D01*
X166050000Y-75525000D01*
X166050000Y-74977156D01*
X166043599Y-74917628D01*
X166043597Y-74917621D01*
X165993355Y-74782914D01*
X165993351Y-74782907D01*
X165907191Y-74667813D01*
X165907188Y-74667810D01*
X165792094Y-74581650D01*
X165792087Y-74581646D01*
X165657380Y-74531404D01*
X165657373Y-74531402D01*
X165597845Y-74525001D01*
X165597828Y-74525000D01*
X165050000Y-74525000D01*
X165050000Y-75284253D01*
X165012292Y-75262482D01*
X164872409Y-75225000D01*
X164727591Y-75225000D01*
X164587708Y-75262482D01*
X164550000Y-75284253D01*
X164550000Y-74525000D01*
X164002172Y-74525000D01*
X164002156Y-74525001D01*
X163942628Y-74531402D01*
X163942621Y-74531404D01*
X163807914Y-74581646D01*
X163807907Y-74581650D01*
X163692813Y-74667810D01*
X163692810Y-74667813D01*
X163606650Y-74782907D01*
X163606646Y-74782914D01*
X163556404Y-74917621D01*
X163556402Y-74917628D01*
X163550001Y-74977156D01*
X163550000Y-74977173D01*
X163550000Y-75525000D01*
X164309252Y-75525000D01*
X164287482Y-75562708D01*
X164250000Y-75702591D01*
X164250000Y-75775006D01*
X151805141Y-75775006D01*
X151805141Y-75774995D01*
X151784615Y-75527271D01*
X151784613Y-75527262D01*
X151723588Y-75286283D01*
X151623734Y-75058636D01*
X151523436Y-74905118D01*
X150823788Y-75604766D01*
X150812518Y-75562708D01*
X150740110Y-75437292D01*
X150637708Y-75334890D01*
X150512292Y-75262482D01*
X150470235Y-75251213D01*
X151170058Y-74551391D01*
X151123232Y-74514945D01*
X151123230Y-74514944D01*
X150904615Y-74396636D01*
X150904604Y-74396631D01*
X150669494Y-74315917D01*
X150424293Y-74275000D01*
X150175707Y-74275000D01*
X149930507Y-74315917D01*
X149695397Y-74396631D01*
X149695386Y-74396636D01*
X149476772Y-74514943D01*
X149476769Y-74514945D01*
X149429944Y-74551391D01*
X150129766Y-75251213D01*
X150087708Y-75262482D01*
X149962292Y-75334890D01*
X149859890Y-75437292D01*
X149787482Y-75562708D01*
X149776213Y-75604765D01*
X149076566Y-74905118D01*
X148976269Y-75058631D01*
X148876413Y-75286283D01*
X148815388Y-75527262D01*
X148815386Y-75527271D01*
X148794859Y-75774995D01*
X148794859Y-75775006D01*
X145305141Y-75775006D01*
X145305141Y-75774995D01*
X145284615Y-75527271D01*
X145284613Y-75527262D01*
X145223588Y-75286283D01*
X145123734Y-75058636D01*
X145023436Y-74905118D01*
X144323788Y-75604766D01*
X144312518Y-75562708D01*
X144240110Y-75437292D01*
X144137708Y-75334890D01*
X144012292Y-75262482D01*
X143970235Y-75251213D01*
X144670058Y-74551391D01*
X144623232Y-74514945D01*
X144623230Y-74514944D01*
X144404615Y-74396636D01*
X144404604Y-74396631D01*
X144169494Y-74315917D01*
X143924293Y-74275000D01*
X143675707Y-74275000D01*
X143430507Y-74315917D01*
X143195397Y-74396631D01*
X143195386Y-74396636D01*
X142976772Y-74514943D01*
X142976769Y-74514945D01*
X142929944Y-74551391D01*
X143629766Y-75251213D01*
X143587708Y-75262482D01*
X143462292Y-75334890D01*
X143359890Y-75437292D01*
X143287482Y-75562708D01*
X143276213Y-75604765D01*
X142576566Y-74905118D01*
X142476269Y-75058631D01*
X142376413Y-75286283D01*
X142315388Y-75527262D01*
X142315386Y-75527271D01*
X142294859Y-75774995D01*
X142294859Y-75775006D01*
X136805141Y-75775006D01*
X136805141Y-75774995D01*
X136784615Y-75527271D01*
X136784613Y-75527262D01*
X136723588Y-75286283D01*
X136623734Y-75058636D01*
X136523436Y-74905118D01*
X135823788Y-75604766D01*
X135812518Y-75562708D01*
X135740110Y-75437292D01*
X135637708Y-75334890D01*
X135512292Y-75262482D01*
X135470235Y-75251213D01*
X136170058Y-74551391D01*
X136123232Y-74514945D01*
X136123230Y-74514944D01*
X135904615Y-74396636D01*
X135904604Y-74396631D01*
X135669494Y-74315917D01*
X135424293Y-74275000D01*
X135175707Y-74275000D01*
X134930507Y-74315917D01*
X134695397Y-74396631D01*
X134695386Y-74396636D01*
X134476772Y-74514943D01*
X134476769Y-74514945D01*
X134429944Y-74551391D01*
X135129766Y-75251213D01*
X135087708Y-75262482D01*
X134962292Y-75334890D01*
X134859890Y-75437292D01*
X134787482Y-75562708D01*
X134776213Y-75604765D01*
X134076566Y-74905118D01*
X133976269Y-75058631D01*
X133876413Y-75286283D01*
X133815388Y-75527262D01*
X133815386Y-75527271D01*
X133794859Y-75774995D01*
X133794859Y-75775006D01*
X130305141Y-75775006D01*
X130305141Y-75774995D01*
X130284615Y-75527271D01*
X130284613Y-75527262D01*
X130223588Y-75286283D01*
X130123734Y-75058636D01*
X130023436Y-74905118D01*
X129323788Y-75604766D01*
X129312518Y-75562708D01*
X129240110Y-75437292D01*
X129137708Y-75334890D01*
X129012292Y-75262482D01*
X128970235Y-75251213D01*
X129670058Y-74551391D01*
X129623232Y-74514945D01*
X129623230Y-74514944D01*
X129404615Y-74396636D01*
X129404604Y-74396631D01*
X129169494Y-74315917D01*
X128924293Y-74275000D01*
X128675707Y-74275000D01*
X128430507Y-74315917D01*
X128195397Y-74396631D01*
X128195386Y-74396636D01*
X127976772Y-74514943D01*
X127976769Y-74514945D01*
X127929944Y-74551391D01*
X128629766Y-75251213D01*
X128587708Y-75262482D01*
X128462292Y-75334890D01*
X128359890Y-75437292D01*
X128287482Y-75562708D01*
X128276213Y-75604765D01*
X127576566Y-74905118D01*
X127476269Y-75058631D01*
X127376413Y-75286283D01*
X127315388Y-75527262D01*
X127315386Y-75527271D01*
X127294859Y-75774995D01*
X127294859Y-75775006D01*
X127315386Y-76022730D01*
X127315388Y-76022739D01*
X127376413Y-76263718D01*
X127476269Y-76491370D01*
X127576566Y-76644884D01*
X128276213Y-75945236D01*
X128287482Y-75987292D01*
X128359890Y-76112708D01*
X128462292Y-76215110D01*
X128587708Y-76287518D01*
X128629765Y-76298788D01*
X127929943Y-76998610D01*
X127929944Y-76998611D01*
X127976771Y-77035057D01*
X128195386Y-77153365D01*
X128195397Y-77153370D01*
X128430507Y-77234084D01*
X128675707Y-77275000D01*
X128924293Y-77275000D01*
X129169494Y-77234084D01*
X129404604Y-77153370D01*
X129404610Y-77153368D01*
X129623239Y-77035051D01*
X129670058Y-76998612D01*
X129670058Y-76998610D01*
X128970235Y-76298788D01*
X129012292Y-76287518D01*
X129137708Y-76215110D01*
X129240110Y-76112708D01*
X129312518Y-75987292D01*
X129323788Y-75945236D01*
X130023436Y-76644884D01*
X130123733Y-76491368D01*
X130223588Y-76263718D01*
X130284613Y-76022739D01*
X130284615Y-76022730D01*
X130305141Y-75775006D01*
X133794859Y-75775006D01*
X133815386Y-76022730D01*
X133815388Y-76022739D01*
X133876413Y-76263718D01*
X133976269Y-76491370D01*
X134076566Y-76644884D01*
X134776213Y-75945236D01*
X134787482Y-75987292D01*
X134859890Y-76112708D01*
X134962292Y-76215110D01*
X135087708Y-76287518D01*
X135129765Y-76298788D01*
X134429943Y-76998610D01*
X134429944Y-76998611D01*
X134476771Y-77035057D01*
X134695386Y-77153365D01*
X134695397Y-77153370D01*
X134930507Y-77234084D01*
X135175707Y-77275000D01*
X135424293Y-77275000D01*
X135669494Y-77234084D01*
X135904604Y-77153370D01*
X135904610Y-77153368D01*
X136123239Y-77035051D01*
X136170058Y-76998612D01*
X136170058Y-76998610D01*
X135470235Y-76298788D01*
X135512292Y-76287518D01*
X135637708Y-76215110D01*
X135740110Y-76112708D01*
X135812518Y-75987292D01*
X135823788Y-75945236D01*
X136523436Y-76644884D01*
X136623733Y-76491368D01*
X136723588Y-76263718D01*
X136784613Y-76022739D01*
X136784615Y-76022730D01*
X136805141Y-75775006D01*
X142294859Y-75775006D01*
X142315386Y-76022730D01*
X142315388Y-76022739D01*
X142376413Y-76263718D01*
X142476269Y-76491370D01*
X142576566Y-76644884D01*
X143276213Y-75945236D01*
X143287482Y-75987292D01*
X143359890Y-76112708D01*
X143462292Y-76215110D01*
X143587708Y-76287518D01*
X143629765Y-76298788D01*
X142929943Y-76998610D01*
X142929944Y-76998611D01*
X142976771Y-77035057D01*
X143195386Y-77153365D01*
X143195397Y-77153370D01*
X143430507Y-77234084D01*
X143675707Y-77275000D01*
X143924293Y-77275000D01*
X144169494Y-77234084D01*
X144404604Y-77153370D01*
X144404610Y-77153368D01*
X144623239Y-77035051D01*
X144670058Y-76998612D01*
X144670058Y-76998610D01*
X143970235Y-76298788D01*
X144012292Y-76287518D01*
X144137708Y-76215110D01*
X144240110Y-76112708D01*
X144312518Y-75987292D01*
X144323788Y-75945236D01*
X145023436Y-76644884D01*
X145123733Y-76491368D01*
X145223588Y-76263718D01*
X145284613Y-76022739D01*
X145284615Y-76022730D01*
X145305141Y-75775006D01*
X148794859Y-75775006D01*
X148815386Y-76022730D01*
X148815388Y-76022739D01*
X148876413Y-76263718D01*
X148976269Y-76491370D01*
X149076566Y-76644884D01*
X149776213Y-75945236D01*
X149787482Y-75987292D01*
X149859890Y-76112708D01*
X149962292Y-76215110D01*
X150087708Y-76287518D01*
X150129765Y-76298788D01*
X149429943Y-76998610D01*
X149429944Y-76998611D01*
X149476771Y-77035057D01*
X149695386Y-77153365D01*
X149695397Y-77153370D01*
X149930507Y-77234084D01*
X150175707Y-77275000D01*
X150424293Y-77275000D01*
X150669494Y-77234084D01*
X150904604Y-77153370D01*
X150904610Y-77153368D01*
X151123239Y-77035051D01*
X151170058Y-76998612D01*
X151170058Y-76998610D01*
X150470235Y-76298788D01*
X150512292Y-76287518D01*
X150637708Y-76215110D01*
X150740110Y-76112708D01*
X150812518Y-75987292D01*
X150823788Y-75945236D01*
X151523436Y-76644884D01*
X151623733Y-76491368D01*
X151723588Y-76263718D01*
X151784613Y-76022739D01*
X151784615Y-76022730D01*
X151805141Y-75775006D01*
X164250000Y-75775006D01*
X164250000Y-75847409D01*
X164287482Y-75987292D01*
X164309252Y-76025000D01*
X163550000Y-76025000D01*
X163550000Y-76572828D01*
X163550001Y-76572845D01*
X163556402Y-76632373D01*
X163556404Y-76632380D01*
X163606646Y-76767087D01*
X163606650Y-76767094D01*
X163692810Y-76882188D01*
X163692813Y-76882191D01*
X163807907Y-76968351D01*
X163807914Y-76968355D01*
X163942621Y-77018597D01*
X163942628Y-77018599D01*
X164002156Y-77025000D01*
X164550000Y-77025000D01*
X164550000Y-76265748D01*
X164587708Y-76287518D01*
X164727591Y-76325000D01*
X164872409Y-76325000D01*
X165012292Y-76287518D01*
X165050000Y-76265748D01*
X165050000Y-77025000D01*
X165597845Y-77025000D01*
X165657373Y-77018599D01*
X165657380Y-77018597D01*
X165792087Y-76968355D01*
X165792094Y-76968351D01*
X165907188Y-76882191D01*
X165907191Y-76882188D01*
X165993351Y-76767094D01*
X165993355Y-76767087D01*
X166043597Y-76632380D01*
X166043599Y-76632373D01*
X166050000Y-76572845D01*
X168599500Y-76572845D01*
X168599500Y-80775000D01*
X166055277Y-80775000D01*
X166041729Y-80620136D01*
X166036207Y-80557025D01*
X166036207Y-80557021D01*
X165979578Y-80345678D01*
X165979576Y-80345674D01*
X165979575Y-80345670D01*
X165938815Y-80258259D01*
X165887103Y-80147362D01*
X165887102Y-80147361D01*
X165761598Y-79968123D01*
X165606877Y-79813402D01*
X165427639Y-79687898D01*
X165229330Y-79595425D01*
X165017977Y-79538793D01*
X164835074Y-79522792D01*
X164800002Y-79519723D01*
X164800000Y-79519723D01*
X164799998Y-79519723D01*
X164771746Y-79522195D01*
X164582023Y-79538793D01*
X164370670Y-79595425D01*
X164172361Y-79687898D01*
X163993123Y-79813402D01*
X163838402Y-79968123D01*
X163712898Y-80147361D01*
X163653376Y-80275006D01*
X151805643Y-80275006D01*
X151805643Y-80274995D01*
X151785110Y-80027188D01*
X151785108Y-80027176D01*
X151724064Y-79786119D01*
X151624174Y-79558394D01*
X151488167Y-79350218D01*
X151488164Y-79350215D01*
X151319744Y-79167262D01*
X151123509Y-79014526D01*
X150904810Y-78896172D01*
X150669614Y-78815429D01*
X150424335Y-78774500D01*
X150175665Y-78774500D01*
X149930386Y-78815429D01*
X149695190Y-78896172D01*
X149476491Y-79014526D01*
X149280256Y-79167262D01*
X149255806Y-79193823D01*
X149218374Y-79234483D01*
X149158487Y-79270474D01*
X149127145Y-79274500D01*
X148601458Y-79274500D01*
X148582130Y-79278345D01*
X148504812Y-79293725D01*
X148408164Y-79312949D01*
X148354835Y-79335039D01*
X148226086Y-79388368D01*
X148062218Y-79497861D01*
X147922861Y-79637218D01*
X147922860Y-79637221D01*
X147915794Y-79644286D01*
X147915792Y-79644290D01*
X146337678Y-81222403D01*
X146276359Y-81255885D01*
X146206667Y-81250901D01*
X146162320Y-81222400D01*
X145339343Y-80399423D01*
X145305858Y-80338100D01*
X145303447Y-80301505D01*
X145305642Y-80275006D01*
X145305643Y-80274998D01*
X145305643Y-80274995D01*
X145285110Y-80027188D01*
X145285108Y-80027176D01*
X145224064Y-79786119D01*
X145124174Y-79558394D01*
X144988167Y-79350218D01*
X144988164Y-79350215D01*
X144819744Y-79167262D01*
X144623509Y-79014526D01*
X144404810Y-78896172D01*
X144169614Y-78815429D01*
X143924335Y-78774500D01*
X143675665Y-78774500D01*
X143430386Y-78815429D01*
X143195190Y-78896172D01*
X142976491Y-79014526D01*
X142780256Y-79167262D01*
X142611836Y-79350215D01*
X142475827Y-79558393D01*
X142375937Y-79786119D01*
X142314892Y-80027179D01*
X142304933Y-80147362D01*
X142294357Y-80274995D01*
X142294357Y-80275006D01*
X142314891Y-80522813D01*
X142314893Y-80522825D01*
X142375937Y-80763882D01*
X142475827Y-80991607D01*
X142611834Y-81199783D01*
X142665716Y-81258314D01*
X142780256Y-81382738D01*
X142976491Y-81535474D01*
X142976493Y-81535475D01*
X142976494Y-81535476D01*
X143195189Y-81653828D01*
X143195198Y-81653831D01*
X143430384Y-81734571D01*
X143675665Y-81775500D01*
X143834218Y-81775500D01*
X143901257Y-81795185D01*
X143921899Y-81811819D01*
X145213181Y-83103101D01*
X145246666Y-83164424D01*
X145249500Y-83190782D01*
X145249500Y-83247973D01*
X145229815Y-83315012D01*
X145216735Y-83331951D01*
X145061836Y-83500215D01*
X144925827Y-83708393D01*
X144918540Y-83725006D01*
X136805643Y-83725006D01*
X136805643Y-83724995D01*
X136785110Y-83477188D01*
X136785108Y-83477176D01*
X136724064Y-83236119D01*
X136624174Y-83008394D01*
X136488167Y-82800218D01*
X136488164Y-82800215D01*
X136333270Y-82631955D01*
X136302348Y-82569302D01*
X136300500Y-82547973D01*
X136300500Y-81452029D01*
X136320185Y-81384990D01*
X136333270Y-81368047D01*
X136488164Y-81199786D01*
X136624174Y-80991607D01*
X136724064Y-80763882D01*
X136785108Y-80522825D01*
X136785110Y-80522813D01*
X136805643Y-80275006D01*
X136805643Y-80274995D01*
X136785110Y-80027188D01*
X136785108Y-80027176D01*
X136724064Y-79786119D01*
X136624174Y-79558394D01*
X136488167Y-79350218D01*
X136488164Y-79350215D01*
X136319744Y-79167262D01*
X136123509Y-79014526D01*
X135904810Y-78896172D01*
X135669614Y-78815429D01*
X135424335Y-78774500D01*
X135175665Y-78774500D01*
X134930386Y-78815429D01*
X134695190Y-78896172D01*
X134476491Y-79014526D01*
X134280256Y-79167262D01*
X134255806Y-79193823D01*
X134218374Y-79234483D01*
X134158487Y-79270474D01*
X134127145Y-79274500D01*
X129972855Y-79274500D01*
X129905816Y-79254815D01*
X129881626Y-79234483D01*
X129819748Y-79167266D01*
X129819744Y-79167262D01*
X129623509Y-79014526D01*
X129404810Y-78896172D01*
X129169614Y-78815429D01*
X128924335Y-78774500D01*
X128675665Y-78774500D01*
X128430386Y-78815429D01*
X128195190Y-78896172D01*
X127976491Y-79014526D01*
X127780256Y-79167262D01*
X127611836Y-79350215D01*
X127475827Y-79558393D01*
X127375937Y-79786119D01*
X127314892Y-80027179D01*
X127304933Y-80147362D01*
X127294357Y-80274995D01*
X127294357Y-80275006D01*
X127314891Y-80522813D01*
X127314893Y-80522825D01*
X127375937Y-80763882D01*
X127475827Y-80991607D01*
X127611834Y-81199783D01*
X127665716Y-81258314D01*
X127780256Y-81382738D01*
X127976491Y-81535474D01*
X127976493Y-81535475D01*
X127976494Y-81535476D01*
X128195189Y-81653828D01*
X128195198Y-81653831D01*
X128430384Y-81734571D01*
X128675665Y-81775500D01*
X128924335Y-81775500D01*
X129169617Y-81734571D01*
X129404803Y-81653831D01*
X129404812Y-81653828D01*
X129623507Y-81535476D01*
X129819745Y-81382738D01*
X129819748Y-81382735D01*
X129881626Y-81315517D01*
X129941513Y-81279526D01*
X129972855Y-81275500D01*
X134127145Y-81275500D01*
X134194184Y-81295185D01*
X134218375Y-81315517D01*
X134266730Y-81368045D01*
X134297652Y-81430700D01*
X134299500Y-81452028D01*
X134299500Y-82547973D01*
X134279815Y-82615012D01*
X134266735Y-82631951D01*
X134111836Y-82800215D01*
X133975827Y-83008393D01*
X133875937Y-83236119D01*
X133814892Y-83477179D01*
X133812983Y-83500218D01*
X133794357Y-83724995D01*
X133794357Y-83725006D01*
X133814891Y-83972813D01*
X133814893Y-83972825D01*
X133875937Y-84213882D01*
X133975827Y-84441607D01*
X134111834Y-84649783D01*
X134137062Y-84677188D01*
X134280256Y-84832738D01*
X134476491Y-84985474D01*
X134476493Y-84985475D01*
X134476494Y-84985476D01*
X134641931Y-85075006D01*
X126005643Y-85075006D01*
X126005643Y-85074995D01*
X125985110Y-84827188D01*
X125985108Y-84827176D01*
X125924064Y-84586119D01*
X125824174Y-84358394D01*
X125688167Y-84150218D01*
X125688164Y-84150215D01*
X125533270Y-83981955D01*
X125502348Y-83919302D01*
X125500500Y-83897973D01*
X125500500Y-82315463D01*
X125520185Y-82248424D01*
X125522924Y-82244341D01*
X125590569Y-82147733D01*
X125686739Y-81941498D01*
X125686742Y-81941489D01*
X125745634Y-81721698D01*
X125745636Y-81721687D01*
X125765468Y-81495002D01*
X125765468Y-81494999D01*
X125745636Y-81268314D01*
X125745634Y-81268303D01*
X125686742Y-81048512D01*
X125686739Y-81048503D01*
X125590569Y-80842268D01*
X125590568Y-80842266D01*
X125460046Y-80655859D01*
X125299142Y-80494955D01*
X125299139Y-80494953D01*
X125112734Y-80364432D01*
X124906496Y-80268261D01*
X124686692Y-80209365D01*
X124524770Y-80195199D01*
X124460002Y-80189532D01*
X124460000Y-80189532D01*
X124459998Y-80189532D01*
X124403327Y-80194491D01*
X124233308Y-80209365D01*
X124013504Y-80268261D01*
X123807266Y-80364432D01*
X123620861Y-80494953D01*
X123459953Y-80655861D01*
X123329432Y-80842266D01*
X123233261Y-81048504D01*
X123174365Y-81268308D01*
X123154532Y-81495000D01*
X123174365Y-81721692D01*
X123230580Y-81931489D01*
X123233259Y-81941489D01*
X123233262Y-81941498D01*
X123329432Y-82147734D01*
X123459953Y-82334139D01*
X123459955Y-82334142D01*
X123463181Y-82337368D01*
X123496666Y-82398691D01*
X123499500Y-82425049D01*
X123499500Y-83897973D01*
X123479815Y-83965012D01*
X123466735Y-83981951D01*
X123311836Y-84150215D01*
X123175827Y-84358393D01*
X123075937Y-84586119D01*
X123014892Y-84827179D01*
X123014431Y-84832739D01*
X123006786Y-84925006D01*
X122505643Y-84925006D01*
X122505643Y-84924995D01*
X122485110Y-84677188D01*
X122485108Y-84677176D01*
X122424064Y-84436119D01*
X122324174Y-84208394D01*
X122188167Y-84000218D01*
X122162950Y-83972825D01*
X122033270Y-83831955D01*
X122002348Y-83769302D01*
X122000500Y-83747973D01*
X122000500Y-82362590D01*
X122020185Y-82295551D01*
X122022924Y-82291468D01*
X122130569Y-82137733D01*
X122226739Y-81931498D01*
X122226742Y-81931489D01*
X122285634Y-81711698D01*
X122285636Y-81711687D01*
X122305468Y-81485002D01*
X122305468Y-81484999D01*
X122285636Y-81258314D01*
X122285634Y-81258303D01*
X122226742Y-81038512D01*
X122226739Y-81038503D01*
X122130569Y-80832268D01*
X122130568Y-80832266D01*
X122000046Y-80645859D01*
X121839142Y-80484955D01*
X121839139Y-80484953D01*
X121652734Y-80354432D01*
X121446496Y-80258261D01*
X121226692Y-80199365D01*
X121064770Y-80185199D01*
X121000002Y-80179532D01*
X121000000Y-80179532D01*
X120999998Y-80179532D01*
X120943327Y-80184491D01*
X120773308Y-80199365D01*
X120553504Y-80258261D01*
X120347266Y-80354432D01*
X120160861Y-80484953D01*
X119999953Y-80645861D01*
X119869432Y-80832266D01*
X119773261Y-81038504D01*
X119714365Y-81258308D01*
X119694532Y-81485000D01*
X119714365Y-81711692D01*
X119773261Y-81931496D01*
X119869432Y-82137734D01*
X119977076Y-82291468D01*
X119999403Y-82357674D01*
X119999500Y-82362590D01*
X119999500Y-83747973D01*
X119979815Y-83815012D01*
X119966735Y-83831951D01*
X119811836Y-84000215D01*
X119675827Y-84208393D01*
X119575937Y-84436119D01*
X119514892Y-84677179D01*
X119502463Y-84827176D01*
X119494357Y-84924995D01*
X119494357Y-84925006D01*
X119514891Y-85172813D01*
X119514893Y-85172825D01*
X119575937Y-85413882D01*
X119675827Y-85641607D01*
X119811834Y-85849783D01*
X119943653Y-85992976D01*
X119980256Y-86032738D01*
X120176491Y-86185474D01*
X120176493Y-86185475D01*
X120176494Y-86185476D01*
X120395189Y-86303828D01*
X120395198Y-86303831D01*
X120630384Y-86384571D01*
X120875665Y-86425500D01*
X121124335Y-86425500D01*
X121369617Y-86384571D01*
X121604803Y-86303831D01*
X121604812Y-86303828D01*
X121823507Y-86185476D01*
X122019743Y-86032739D01*
X122188167Y-85849783D01*
X122324174Y-85641607D01*
X122424064Y-85413882D01*
X122485108Y-85172825D01*
X122485110Y-85172813D01*
X122505643Y-84925006D01*
X123006786Y-84925006D01*
X122994357Y-85074995D01*
X122994357Y-85075006D01*
X123014891Y-85322813D01*
X123014893Y-85322825D01*
X123075937Y-85563882D01*
X123175827Y-85791607D01*
X123311834Y-85999783D01*
X123342172Y-86032739D01*
X123480256Y-86182738D01*
X123676491Y-86335474D01*
X123676493Y-86335475D01*
X123676494Y-86335476D01*
X123895189Y-86453828D01*
X123895198Y-86453831D01*
X124130384Y-86534571D01*
X124375665Y-86575500D01*
X124624335Y-86575500D01*
X124869617Y-86534571D01*
X125104803Y-86453831D01*
X125104812Y-86453828D01*
X125323507Y-86335476D01*
X125519743Y-86182739D01*
X125688167Y-85999783D01*
X125824174Y-85791607D01*
X125924064Y-85563882D01*
X125985108Y-85322825D01*
X125985110Y-85322813D01*
X126005643Y-85075006D01*
X134641931Y-85075006D01*
X134695189Y-85103828D01*
X134695198Y-85103831D01*
X134930384Y-85184571D01*
X135175665Y-85225500D01*
X135424335Y-85225500D01*
X135669617Y-85184571D01*
X135904803Y-85103831D01*
X135904812Y-85103828D01*
X136123507Y-84985476D01*
X136319743Y-84832739D01*
X136488167Y-84649783D01*
X136624174Y-84441607D01*
X136724064Y-84213882D01*
X136785108Y-83972825D01*
X136785110Y-83972813D01*
X136805643Y-83725006D01*
X144918540Y-83725006D01*
X144825937Y-83936119D01*
X144764892Y-84177179D01*
X144764891Y-84177188D01*
X144744357Y-84424995D01*
X144744357Y-84425006D01*
X144764891Y-84672813D01*
X144764893Y-84672825D01*
X144825937Y-84913882D01*
X144925827Y-85141607D01*
X145061834Y-85349783D01*
X145083443Y-85373256D01*
X145230256Y-85532738D01*
X145426491Y-85685474D01*
X145426493Y-85685475D01*
X145426494Y-85685476D01*
X145645189Y-85803828D01*
X145645198Y-85803831D01*
X145880384Y-85884571D01*
X146125665Y-85925500D01*
X146374335Y-85925500D01*
X146619617Y-85884571D01*
X146854803Y-85803831D01*
X146854812Y-85803828D01*
X147073507Y-85685476D01*
X147269743Y-85532739D01*
X147438167Y-85349783D01*
X147574174Y-85141607D01*
X147674064Y-84913882D01*
X147735108Y-84672825D01*
X147735110Y-84672813D01*
X147755643Y-84425006D01*
X147755643Y-84424995D01*
X147735110Y-84177188D01*
X147735108Y-84177176D01*
X147674064Y-83936119D01*
X147574174Y-83708394D01*
X147438167Y-83500218D01*
X147438164Y-83500215D01*
X147283270Y-83331955D01*
X147252348Y-83269302D01*
X147250500Y-83247973D01*
X147250500Y-83190782D01*
X147270185Y-83123743D01*
X147286819Y-83103101D01*
X149057984Y-81331937D01*
X149119307Y-81298452D01*
X149188999Y-81303436D01*
X149236894Y-81335635D01*
X149280253Y-81382735D01*
X149280256Y-81382738D01*
X149299501Y-81397717D01*
X149476491Y-81535474D01*
X149476493Y-81535475D01*
X149476494Y-81535476D01*
X149695189Y-81653828D01*
X149695198Y-81653831D01*
X149930384Y-81734571D01*
X150175665Y-81775500D01*
X150424335Y-81775500D01*
X150669617Y-81734571D01*
X150904803Y-81653831D01*
X150904812Y-81653828D01*
X151123507Y-81535476D01*
X151319743Y-81382739D01*
X151488167Y-81199783D01*
X151624174Y-80991607D01*
X151724064Y-80763882D01*
X151785108Y-80522825D01*
X151785110Y-80522813D01*
X151805643Y-80275006D01*
X163653376Y-80275006D01*
X163620425Y-80345670D01*
X163563793Y-80557023D01*
X163563793Y-80557031D01*
X163562854Y-80562351D01*
X163561229Y-80562065D01*
X163538530Y-80620136D01*
X163528124Y-80631958D01*
X162479052Y-81681029D01*
X162417731Y-81714512D01*
X162370963Y-81715655D01*
X162369620Y-81715431D01*
X162369614Y-81715429D01*
X162124335Y-81674500D01*
X162124334Y-81674500D01*
X161875665Y-81674500D01*
X161630386Y-81715429D01*
X161395190Y-81796172D01*
X161176491Y-81914526D01*
X160980256Y-82067262D01*
X160811836Y-82250215D01*
X160675827Y-82458393D01*
X160575937Y-82686119D01*
X160514892Y-82927179D01*
X160508162Y-83008394D01*
X160494357Y-83174995D01*
X160494357Y-83175006D01*
X160514891Y-83422813D01*
X160514893Y-83422825D01*
X160575937Y-83663882D01*
X160675827Y-83891607D01*
X160811834Y-84099783D01*
X160858263Y-84150218D01*
X160980256Y-84282738D01*
X161176491Y-84435474D01*
X161176493Y-84435475D01*
X161176494Y-84435476D01*
X161395189Y-84553828D01*
X161395198Y-84553831D01*
X161630384Y-84634571D01*
X161875665Y-84675500D01*
X162124335Y-84675500D01*
X162369617Y-84634571D01*
X162604803Y-84553831D01*
X162604812Y-84553828D01*
X162823507Y-84435476D01*
X163019743Y-84282739D01*
X163188167Y-84099783D01*
X163324174Y-83891607D01*
X163424062Y-83663886D01*
X163424063Y-83663883D01*
X163448923Y-83565715D01*
X163481447Y-83508476D01*
X164943037Y-82046885D01*
X165004360Y-82013400D01*
X165012878Y-82012106D01*
X165017981Y-82011207D01*
X165229326Y-81954577D01*
X165229332Y-81954574D01*
X165427639Y-81862102D01*
X165427643Y-81862100D01*
X165606879Y-81736598D01*
X165761598Y-81581879D01*
X165887100Y-81402643D01*
X165887102Y-81402639D01*
X165979574Y-81204332D01*
X165979578Y-81204323D01*
X166036207Y-80992980D01*
X166036207Y-80992977D01*
X166055277Y-80775000D01*
X168599500Y-80775000D01*
X168599500Y-85775000D01*
X166055277Y-85775000D01*
X166041729Y-85620136D01*
X166036207Y-85557025D01*
X166036207Y-85557021D01*
X165979578Y-85345678D01*
X165979576Y-85345674D01*
X165979575Y-85345670D01*
X165933339Y-85246516D01*
X165887103Y-85147362D01*
X165887102Y-85147361D01*
X165761598Y-84968123D01*
X165606877Y-84813402D01*
X165427639Y-84687898D01*
X165229330Y-84595425D01*
X165017977Y-84538793D01*
X164835074Y-84522792D01*
X164800002Y-84519723D01*
X164800000Y-84519723D01*
X164799998Y-84519723D01*
X164771746Y-84522195D01*
X164582023Y-84538793D01*
X164370670Y-84595425D01*
X164172361Y-84687898D01*
X163993123Y-84813402D01*
X163838402Y-84968123D01*
X163712898Y-85147361D01*
X163620425Y-85345670D01*
X163563793Y-85557023D01*
X163563793Y-85557031D01*
X163562854Y-85562351D01*
X163561229Y-85562065D01*
X163538530Y-85620136D01*
X163528124Y-85631958D01*
X162604650Y-86555432D01*
X162543329Y-86588915D01*
X162476710Y-86585031D01*
X162419614Y-86565429D01*
X162174335Y-86524500D01*
X161925665Y-86524500D01*
X161680386Y-86565429D01*
X161445190Y-86646172D01*
X161226491Y-86764526D01*
X161030256Y-86917262D01*
X160861836Y-87100215D01*
X160725827Y-87308393D01*
X160625937Y-87536119D01*
X160564892Y-87777179D01*
X160544357Y-88025000D01*
X160564892Y-88272821D01*
X160625937Y-88513881D01*
X160627482Y-88517403D01*
X160725827Y-88741607D01*
X160861834Y-88949783D01*
X160883443Y-88973256D01*
X161030256Y-89132738D01*
X161226491Y-89285474D01*
X161226493Y-89285475D01*
X161226494Y-89285476D01*
X161445189Y-89403828D01*
X161445198Y-89403831D01*
X161680384Y-89484571D01*
X161925665Y-89525500D01*
X162174335Y-89525500D01*
X162419617Y-89484571D01*
X162654803Y-89403831D01*
X162654812Y-89403828D01*
X162873507Y-89285476D01*
X163069743Y-89132739D01*
X163238167Y-88949783D01*
X163374176Y-88741604D01*
X163463148Y-88538771D01*
X163489022Y-88500901D01*
X164943037Y-87046885D01*
X165004360Y-87013400D01*
X165012878Y-87012106D01*
X165017981Y-87011207D01*
X165229326Y-86954577D01*
X165229332Y-86954574D01*
X165427639Y-86862102D01*
X165427643Y-86862100D01*
X165606879Y-86736598D01*
X165761598Y-86581879D01*
X165887100Y-86402643D01*
X165887102Y-86402639D01*
X165979574Y-86204332D01*
X165979578Y-86204323D01*
X166036207Y-85992980D01*
X166036207Y-85992977D01*
X166055277Y-85775000D01*
X168599500Y-85775000D01*
X168599500Y-91922865D01*
X155230500Y-91922865D01*
X155230500Y-90127130D01*
X155230499Y-90127124D01*
X155224092Y-90067517D01*
X155173798Y-89932672D01*
X155173794Y-89932665D01*
X155087548Y-89817456D01*
X155087545Y-89817453D01*
X154972336Y-89731207D01*
X154972329Y-89731203D01*
X154837483Y-89680909D01*
X154837484Y-89680909D01*
X154830556Y-89680165D01*
X154777873Y-89674500D01*
X152982128Y-89674501D01*
X152922517Y-89680909D01*
X152787669Y-89731204D01*
X152672454Y-89817454D01*
X152586204Y-89932669D01*
X152537190Y-90064084D01*
X152495319Y-90120016D01*
X152429855Y-90144434D01*
X152361582Y-90129583D01*
X152333327Y-90108431D01*
X152211401Y-89986505D01*
X152114616Y-89918735D01*
X152017835Y-89850968D01*
X152017833Y-89850967D01*
X152017830Y-89850965D01*
X151803663Y-89751097D01*
X151575408Y-89689937D01*
X151398966Y-89674500D01*
X151340001Y-89669341D01*
X151340000Y-89669341D01*
X151339999Y-89669341D01*
X151281034Y-89674500D01*
X151104592Y-89689937D01*
X150876337Y-89751097D01*
X150662170Y-89850965D01*
X150468599Y-89986505D01*
X150301505Y-90153599D01*
X150171575Y-90339158D01*
X150116998Y-90382783D01*
X150047500Y-90389977D01*
X149985145Y-90358454D01*
X149968425Y-90339158D01*
X149838500Y-90153605D01*
X149838495Y-90153599D01*
X149671401Y-89986505D01*
X149574616Y-89918735D01*
X149477835Y-89850968D01*
X149477833Y-89850967D01*
X149477830Y-89850965D01*
X149263663Y-89751097D01*
X149035408Y-89689937D01*
X148858966Y-89674500D01*
X148800001Y-89669341D01*
X148800000Y-89669341D01*
X148799999Y-89669341D01*
X148741034Y-89674500D01*
X148564592Y-89689937D01*
X148336337Y-89751097D01*
X148122170Y-89850965D01*
X147928599Y-89986505D01*
X147761505Y-90153599D01*
X147631575Y-90339158D01*
X147576998Y-90382783D01*
X147507500Y-90389977D01*
X147445145Y-90358454D01*
X147428425Y-90339158D01*
X147298500Y-90153605D01*
X147298495Y-90153599D01*
X147131401Y-89986505D01*
X147034616Y-89918735D01*
X146937835Y-89850968D01*
X146937833Y-89850967D01*
X146937830Y-89850965D01*
X146723663Y-89751097D01*
X146495408Y-89689937D01*
X146318966Y-89674500D01*
X146260001Y-89669341D01*
X146260000Y-89669341D01*
X146259999Y-89669341D01*
X146201034Y-89674500D01*
X146024592Y-89689937D01*
X145796337Y-89751097D01*
X145582170Y-89850965D01*
X145388599Y-89986505D01*
X145221505Y-90153599D01*
X145091575Y-90339158D01*
X145036998Y-90382783D01*
X144967500Y-90389977D01*
X144905145Y-90358454D01*
X144888425Y-90339158D01*
X144758500Y-90153605D01*
X144758495Y-90153599D01*
X144591401Y-89986505D01*
X144494616Y-89918735D01*
X144397835Y-89850968D01*
X144397833Y-89850967D01*
X144397830Y-89850965D01*
X144183663Y-89751097D01*
X143955408Y-89689937D01*
X143778966Y-89674500D01*
X143720001Y-89669341D01*
X143720000Y-89669341D01*
X143719999Y-89669341D01*
X143661034Y-89674500D01*
X143484592Y-89689937D01*
X143256337Y-89751097D01*
X143042170Y-89850965D01*
X142848599Y-89986505D01*
X142681505Y-90153599D01*
X142551575Y-90339158D01*
X142496998Y-90382783D01*
X142427500Y-90389977D01*
X142365145Y-90358454D01*
X142348425Y-90339158D01*
X142218500Y-90153605D01*
X142218495Y-90153599D01*
X142051401Y-89986505D01*
X141954616Y-89918735D01*
X141857835Y-89850968D01*
X141857833Y-89850967D01*
X141857830Y-89850965D01*
X141643663Y-89751097D01*
X141415408Y-89689937D01*
X141238966Y-89674500D01*
X141180001Y-89669341D01*
X141180000Y-89669341D01*
X141179999Y-89669341D01*
X141121034Y-89674500D01*
X140944592Y-89689937D01*
X140716337Y-89751097D01*
X140502170Y-89850965D01*
X140308599Y-89986505D01*
X140141505Y-90153599D01*
X140011575Y-90339158D01*
X139956998Y-90382783D01*
X139887500Y-90389977D01*
X139825145Y-90358454D01*
X139808425Y-90339158D01*
X139678500Y-90153605D01*
X139678495Y-90153599D01*
X139511401Y-89986505D01*
X139414616Y-89918735D01*
X139317835Y-89850968D01*
X139317833Y-89850967D01*
X139317830Y-89850965D01*
X139103663Y-89751097D01*
X138875408Y-89689937D01*
X138698966Y-89674500D01*
X138640001Y-89669341D01*
X138640000Y-89669341D01*
X138639999Y-89669341D01*
X138581034Y-89674500D01*
X138404592Y-89689937D01*
X138176337Y-89751097D01*
X137962170Y-89850965D01*
X137768599Y-89986505D01*
X137601505Y-90153599D01*
X137471270Y-90339595D01*
X137416693Y-90383219D01*
X137347195Y-90390413D01*
X137284840Y-90358890D01*
X137268121Y-90339595D01*
X137138110Y-90153922D01*
X136971083Y-89986895D01*
X136777579Y-89851400D01*
X136563493Y-89751571D01*
X136563484Y-89751567D01*
X136350000Y-89694366D01*
X136350000Y-90591988D01*
X136292993Y-90559075D01*
X136165826Y-90525000D01*
X136034174Y-90525000D01*
X135907007Y-90559075D01*
X135850000Y-90591988D01*
X135850000Y-89694367D01*
X135636517Y-89751567D01*
X135636508Y-89751571D01*
X135422422Y-89851400D01*
X135228918Y-89986895D01*
X135061895Y-90153918D01*
X134931881Y-90339595D01*
X134877304Y-90383219D01*
X134807805Y-90390412D01*
X134745451Y-90358890D01*
X134728731Y-90339595D01*
X134598495Y-90153599D01*
X134431401Y-89986505D01*
X134334616Y-89918735D01*
X134237835Y-89850968D01*
X134237833Y-89850967D01*
X134237830Y-89850965D01*
X134023663Y-89751097D01*
X133795408Y-89689937D01*
X133618966Y-89674500D01*
X133560001Y-89669341D01*
X133560000Y-89669341D01*
X133559999Y-89669341D01*
X133501034Y-89674500D01*
X133324592Y-89689937D01*
X133096337Y-89751097D01*
X132882170Y-89850965D01*
X132688599Y-89986505D01*
X132521505Y-90153599D01*
X132391575Y-90339158D01*
X132336998Y-90382783D01*
X132267500Y-90389977D01*
X132205145Y-90358454D01*
X132188425Y-90339158D01*
X132058500Y-90153605D01*
X132058495Y-90153599D01*
X131891401Y-89986505D01*
X131794616Y-89918735D01*
X131697835Y-89850968D01*
X131697833Y-89850967D01*
X131697830Y-89850965D01*
X131483663Y-89751097D01*
X131255408Y-89689937D01*
X131078966Y-89674500D01*
X131020001Y-89669341D01*
X131020000Y-89669341D01*
X131019999Y-89669341D01*
X130961034Y-89674500D01*
X130784592Y-89689937D01*
X130556337Y-89751097D01*
X130342170Y-89850965D01*
X130148599Y-89986505D01*
X129981505Y-90153599D01*
X129845965Y-90347170D01*
X129746097Y-90561337D01*
X129684937Y-90789592D01*
X129664341Y-91025000D01*
X129684937Y-91260408D01*
X129733816Y-91442829D01*
X129746095Y-91488656D01*
X129746096Y-91488657D01*
X129746097Y-91488663D01*
X129845965Y-91702829D01*
X129851269Y-91710405D01*
X129981506Y-91896403D01*
X130148598Y-92063494D01*
X130148605Y-92063499D01*
X130342166Y-92199033D01*
X130342170Y-92199035D01*
X130342172Y-92199036D01*
X130556337Y-92298903D01*
X130556341Y-92298904D01*
X130556345Y-92298906D01*
X130784587Y-92360062D01*
X130784597Y-92360064D01*
X131019999Y-92380659D01*
X131020001Y-92380659D01*
X131255404Y-92360064D01*
X131255414Y-92360062D01*
X131483656Y-92298906D01*
X131483665Y-92298902D01*
X131697829Y-92199036D01*
X131697831Y-92199035D01*
X131891403Y-92063495D01*
X132058495Y-91896403D01*
X132188425Y-91710842D01*
X132243002Y-91667217D01*
X132312500Y-91660023D01*
X132374855Y-91691546D01*
X132391575Y-91710842D01*
X132521506Y-91896403D01*
X132688598Y-92063494D01*
X132688605Y-92063499D01*
X132882166Y-92199033D01*
X132882170Y-92199035D01*
X132882172Y-92199036D01*
X133096337Y-92298903D01*
X133096341Y-92298904D01*
X133096345Y-92298906D01*
X133324587Y-92360062D01*
X133324597Y-92360064D01*
X133559999Y-92380659D01*
X133560001Y-92380659D01*
X133795404Y-92360064D01*
X133795414Y-92360062D01*
X134023656Y-92298906D01*
X134023665Y-92298902D01*
X134237829Y-92199036D01*
X134237831Y-92199035D01*
X134431403Y-92063495D01*
X134598492Y-91896406D01*
X134728731Y-91710405D01*
X134783308Y-91666781D01*
X134852807Y-91659588D01*
X134915161Y-91691110D01*
X134931881Y-91710406D01*
X135061887Y-91896074D01*
X135061892Y-91896080D01*
X135228918Y-92063106D01*
X135422422Y-92198601D01*
X135636508Y-92298430D01*
X135636514Y-92298433D01*
X135850000Y-92355636D01*
X135850000Y-91458012D01*
X135907007Y-91490925D01*
X136034174Y-91525000D01*
X136165826Y-91525000D01*
X136292993Y-91490925D01*
X136350000Y-91458012D01*
X136350000Y-92355636D01*
X136350001Y-92355636D01*
X136563487Y-92298433D01*
X136563493Y-92298430D01*
X136777578Y-92198601D01*
X136777580Y-92198600D01*
X136971074Y-92063114D01*
X136971080Y-92063109D01*
X137138109Y-91896080D01*
X137138110Y-91896078D01*
X137268120Y-91710405D01*
X137322697Y-91666781D01*
X137392196Y-91659588D01*
X137454550Y-91691110D01*
X137471270Y-91710406D01*
X137601506Y-91896403D01*
X137768598Y-92063494D01*
X137768605Y-92063499D01*
X137962166Y-92199033D01*
X137962170Y-92199035D01*
X137962172Y-92199036D01*
X138176337Y-92298903D01*
X138176341Y-92298904D01*
X138176345Y-92298906D01*
X138404587Y-92360062D01*
X138404597Y-92360064D01*
X138639999Y-92380659D01*
X138640001Y-92380659D01*
X138875404Y-92360064D01*
X138875414Y-92360062D01*
X139103656Y-92298906D01*
X139103665Y-92298902D01*
X139317829Y-92199036D01*
X139317831Y-92199035D01*
X139511403Y-92063495D01*
X139678495Y-91896403D01*
X139808425Y-91710842D01*
X139863002Y-91667217D01*
X139932500Y-91660023D01*
X139994855Y-91691546D01*
X140011575Y-91710842D01*
X140141506Y-91896403D01*
X140308598Y-92063494D01*
X140308605Y-92063499D01*
X140502166Y-92199033D01*
X140502170Y-92199035D01*
X140502172Y-92199036D01*
X140716337Y-92298903D01*
X140716341Y-92298904D01*
X140716345Y-92298906D01*
X140944587Y-92360062D01*
X140944597Y-92360064D01*
X141179999Y-92380659D01*
X141180001Y-92380659D01*
X141415404Y-92360064D01*
X141415414Y-92360062D01*
X141643656Y-92298906D01*
X141643665Y-92298902D01*
X141857829Y-92199036D01*
X141857831Y-92199035D01*
X142051403Y-92063495D01*
X142218495Y-91896403D01*
X142348425Y-91710842D01*
X142403002Y-91667217D01*
X142472500Y-91660023D01*
X142534855Y-91691546D01*
X142551575Y-91710842D01*
X142681506Y-91896403D01*
X142848598Y-92063494D01*
X142848605Y-92063499D01*
X143042166Y-92199033D01*
X143042170Y-92199035D01*
X143042172Y-92199036D01*
X143256337Y-92298903D01*
X143256341Y-92298904D01*
X143256345Y-92298906D01*
X143484587Y-92360062D01*
X143484597Y-92360064D01*
X143719999Y-92380659D01*
X143720001Y-92380659D01*
X143955404Y-92360064D01*
X143955414Y-92360062D01*
X144183656Y-92298906D01*
X144183665Y-92298902D01*
X144397829Y-92199036D01*
X144397831Y-92199035D01*
X144591403Y-92063495D01*
X144758495Y-91896403D01*
X144888425Y-91710842D01*
X144943002Y-91667217D01*
X145012500Y-91660023D01*
X145074855Y-91691546D01*
X145091575Y-91710842D01*
X145221506Y-91896403D01*
X145388598Y-92063494D01*
X145388605Y-92063499D01*
X145582166Y-92199033D01*
X145582170Y-92199035D01*
X145582172Y-92199036D01*
X145796337Y-92298903D01*
X145796341Y-92298904D01*
X145796345Y-92298906D01*
X146024587Y-92360062D01*
X146024597Y-92360064D01*
X146259999Y-92380659D01*
X146260001Y-92380659D01*
X146495404Y-92360064D01*
X146495414Y-92360062D01*
X146723656Y-92298906D01*
X146723665Y-92298902D01*
X146937829Y-92199036D01*
X146937831Y-92199035D01*
X147131403Y-92063495D01*
X147298495Y-91896403D01*
X147428425Y-91710842D01*
X147483002Y-91667217D01*
X147552500Y-91660023D01*
X147614855Y-91691546D01*
X147631575Y-91710842D01*
X147761506Y-91896403D01*
X147928598Y-92063494D01*
X147928605Y-92063499D01*
X148122166Y-92199033D01*
X148122170Y-92199035D01*
X148122172Y-92199036D01*
X148336337Y-92298903D01*
X148336341Y-92298904D01*
X148336345Y-92298906D01*
X148564587Y-92360062D01*
X148564597Y-92360064D01*
X148799999Y-92380659D01*
X148800001Y-92380659D01*
X149035404Y-92360064D01*
X149035414Y-92360062D01*
X149263656Y-92298906D01*
X149263665Y-92298902D01*
X149477829Y-92199036D01*
X149477831Y-92199035D01*
X149671403Y-92063495D01*
X149838495Y-91896403D01*
X149968425Y-91710842D01*
X150023002Y-91667217D01*
X150092500Y-91660023D01*
X150154855Y-91691546D01*
X150171575Y-91710842D01*
X150301506Y-91896403D01*
X150468598Y-92063494D01*
X150468605Y-92063499D01*
X150662166Y-92199033D01*
X150662170Y-92199035D01*
X150662172Y-92199036D01*
X150876337Y-92298903D01*
X150876341Y-92298904D01*
X150876345Y-92298906D01*
X151104587Y-92360062D01*
X151104597Y-92360064D01*
X151339999Y-92380659D01*
X151340001Y-92380659D01*
X151575404Y-92360064D01*
X151575414Y-92360062D01*
X151803656Y-92298906D01*
X151803665Y-92298902D01*
X152017829Y-92199036D01*
X152017831Y-92199035D01*
X152211400Y-92063497D01*
X152333327Y-91941570D01*
X152394650Y-91908086D01*
X152464342Y-91913070D01*
X152520275Y-91954942D01*
X152537190Y-91985919D01*
X152586203Y-92117329D01*
X152586207Y-92117336D01*
X152672453Y-92232545D01*
X152672456Y-92232548D01*
X152787665Y-92318794D01*
X152787672Y-92318798D01*
X152922518Y-92369092D01*
X152922517Y-92369092D01*
X152982117Y-92375499D01*
X152982119Y-92375500D01*
X152982127Y-92375500D01*
X152982136Y-92375500D01*
X154777871Y-92375500D01*
X154777877Y-92375499D01*
X154837484Y-92369092D01*
X154972329Y-92318798D01*
X154972336Y-92318794D01*
X155087545Y-92232548D01*
X155087548Y-92232545D01*
X155173794Y-92117336D01*
X155173798Y-92117329D01*
X155224092Y-91982483D01*
X155230499Y-91922884D01*
X155230500Y-91922865D01*
X168599500Y-91922865D01*
X168599500Y-93305001D01*
X127955659Y-93305001D01*
X127955659Y-93305000D01*
X127935064Y-93069597D01*
X127935062Y-93069587D01*
X127873906Y-92841345D01*
X127873904Y-92841341D01*
X127873903Y-92841337D01*
X127774035Y-92627170D01*
X127774033Y-92627166D01*
X127638499Y-92433605D01*
X127638494Y-92433598D01*
X127471403Y-92266507D01*
X127471397Y-92266502D01*
X127285842Y-92136575D01*
X127242217Y-92081998D01*
X127235023Y-92012500D01*
X127266546Y-91950145D01*
X127285842Y-91933425D01*
X127471403Y-91803495D01*
X127638495Y-91636403D01*
X127774035Y-91442831D01*
X127774036Y-91442829D01*
X127873902Y-91228665D01*
X127873906Y-91228656D01*
X127935062Y-91000414D01*
X127935064Y-91000404D01*
X127955659Y-90765001D01*
X127955659Y-90765000D01*
X127935064Y-90529597D01*
X127935062Y-90529587D01*
X127873906Y-90301345D01*
X127873904Y-90301341D01*
X127873903Y-90301337D01*
X127792669Y-90127130D01*
X127774035Y-90087170D01*
X127774033Y-90087166D01*
X127665854Y-89932672D01*
X127638499Y-89893604D01*
X127638494Y-89893598D01*
X127516570Y-89771674D01*
X127483085Y-89710351D01*
X127488069Y-89640659D01*
X127529941Y-89584726D01*
X127560917Y-89567811D01*
X127692331Y-89518797D01*
X127692336Y-89518794D01*
X127807545Y-89432548D01*
X127807548Y-89432545D01*
X127893794Y-89317336D01*
X127893798Y-89317329D01*
X127944092Y-89182483D01*
X127950499Y-89122884D01*
X127950499Y-89122877D01*
X127950500Y-89122865D01*
X127950500Y-87327130D01*
X127950499Y-87327124D01*
X127944092Y-87267517D01*
X127893798Y-87132672D01*
X127893794Y-87132665D01*
X127807548Y-87017456D01*
X127807545Y-87017453D01*
X127692336Y-86931207D01*
X127692329Y-86931203D01*
X127557483Y-86880909D01*
X127557484Y-86880909D01*
X127550556Y-86880165D01*
X127497873Y-86874500D01*
X125702128Y-86874501D01*
X125642517Y-86880909D01*
X125507669Y-86931204D01*
X125392454Y-87017454D01*
X125306204Y-87132669D01*
X125255909Y-87267517D01*
X125249500Y-87327127D01*
X125249501Y-89122872D01*
X125255909Y-89182483D01*
X125306204Y-89317331D01*
X125306205Y-89317332D01*
X125306207Y-89317336D01*
X125392453Y-89432545D01*
X125392456Y-89432548D01*
X125507665Y-89518794D01*
X125507672Y-89518798D01*
X125639083Y-89567811D01*
X125695017Y-89609682D01*
X125719434Y-89675147D01*
X125704582Y-89743420D01*
X125683437Y-89771668D01*
X125561505Y-89893599D01*
X125425965Y-90087170D01*
X125326097Y-90301337D01*
X125264937Y-90529592D01*
X125244341Y-90765000D01*
X125264937Y-91000408D01*
X125326097Y-91228663D01*
X125425965Y-91442829D01*
X125458059Y-91488665D01*
X125561506Y-91636403D01*
X125728598Y-91803494D01*
X125728604Y-91803499D01*
X125914158Y-91933425D01*
X125957783Y-91988002D01*
X125964977Y-92057500D01*
X125933454Y-92119855D01*
X125914158Y-92136575D01*
X125891974Y-92152109D01*
X125728599Y-92266505D01*
X125561505Y-92433599D01*
X125425965Y-92627170D01*
X125326097Y-92841337D01*
X125264937Y-93069592D01*
X125244341Y-93305000D01*
X125264937Y-93540408D01*
X125326097Y-93768663D01*
X125425965Y-93982829D01*
X125561505Y-94176401D01*
X125561506Y-94176403D01*
X125728598Y-94343494D01*
X125728599Y-94343495D01*
X125914595Y-94473731D01*
X125958219Y-94528308D01*
X125965412Y-94597807D01*
X125933890Y-94660161D01*
X125914595Y-94676881D01*
X125728918Y-94806895D01*
X125561895Y-94973918D01*
X125426400Y-95167422D01*
X125372535Y-95282938D01*
X120263851Y-95282938D01*
X120263851Y-95040361D01*
X120232190Y-94799864D01*
X120169404Y-94565545D01*
X120077427Y-94343494D01*
X120076575Y-94341437D01*
X119955287Y-94131360D01*
X119955285Y-94131357D01*
X119955284Y-94131356D01*
X119807618Y-93938913D01*
X119807612Y-93938906D01*
X119636095Y-93767389D01*
X119636089Y-93767384D01*
X119443640Y-93619713D01*
X119233563Y-93498425D01*
X119009451Y-93405595D01*
X118775140Y-93342811D01*
X118594765Y-93319065D01*
X118534640Y-93311149D01*
X118534639Y-93311149D01*
X118292062Y-93311149D01*
X118243963Y-93317482D01*
X118051562Y-93342811D01*
X117817251Y-93405595D01*
X117593139Y-93498425D01*
X117383062Y-93619713D01*
X117190613Y-93767384D01*
X117019086Y-93938911D01*
X116871415Y-94131360D01*
X116750127Y-94341437D01*
X116657297Y-94565549D01*
X116594513Y-94799860D01*
X116562851Y-95040361D01*
X116562851Y-95282937D01*
X116594513Y-95523438D01*
X116657297Y-95757749D01*
X116666172Y-95779174D01*
X116669156Y-95786380D01*
X116750127Y-95981861D01*
X116871415Y-96191938D01*
X117019086Y-96384387D01*
X117019091Y-96384393D01*
X117190608Y-96555910D01*
X117190615Y-96555916D01*
X117383058Y-96703582D01*
X117383059Y-96703583D01*
X117383062Y-96703585D01*
X117593139Y-96824873D01*
X117593146Y-96824876D01*
X117817247Y-96917702D01*
X118051566Y-96980488D01*
X118292062Y-97012149D01*
X118292063Y-97012149D01*
X118534639Y-97012149D01*
X118534640Y-97012149D01*
X118775137Y-96980488D01*
X119009456Y-96917702D01*
X119233557Y-96824876D01*
X119233566Y-96824872D01*
X119443645Y-96703582D01*
X119636088Y-96555916D01*
X119636095Y-96555910D01*
X119807612Y-96384393D01*
X119807618Y-96384386D01*
X119955284Y-96191943D01*
X120076574Y-95981864D01*
X120076578Y-95981855D01*
X120169404Y-95757754D01*
X120232190Y-95523435D01*
X120263851Y-95282938D01*
X125372535Y-95282938D01*
X125326571Y-95381508D01*
X125326568Y-95381514D01*
X125269364Y-95595000D01*
X126166988Y-95595000D01*
X126134075Y-95652007D01*
X126100000Y-95779174D01*
X126100000Y-95910826D01*
X126134075Y-96037993D01*
X126166988Y-96095000D01*
X125269364Y-96095000D01*
X125269365Y-96095001D01*
X125326568Y-96308487D01*
X125326571Y-96308493D01*
X125426400Y-96522578D01*
X125426401Y-96522580D01*
X125561887Y-96716074D01*
X125561892Y-96716080D01*
X125728918Y-96883106D01*
X125922422Y-97018601D01*
X126136508Y-97118430D01*
X126136514Y-97118433D01*
X126350000Y-97175636D01*
X126350000Y-96278012D01*
X126407007Y-96310925D01*
X126534174Y-96345000D01*
X126665826Y-96345000D01*
X126792993Y-96310925D01*
X126850000Y-96278012D01*
X126850000Y-97175636D01*
X126850001Y-97175636D01*
X127063487Y-97118433D01*
X127063493Y-97118430D01*
X127277578Y-97018601D01*
X127277580Y-97018600D01*
X127471074Y-96883114D01*
X127471080Y-96883109D01*
X127638109Y-96716080D01*
X127638114Y-96716074D01*
X127773600Y-96522580D01*
X127773601Y-96522578D01*
X127873430Y-96308493D01*
X127873433Y-96308487D01*
X127930636Y-96095001D01*
X127930636Y-96095000D01*
X127033012Y-96095000D01*
X127065925Y-96037993D01*
X127100000Y-95910826D01*
X127100000Y-95779174D01*
X127065925Y-95652007D01*
X127033012Y-95595000D01*
X127930636Y-95595000D01*
X127873433Y-95381514D01*
X127873430Y-95381508D01*
X127773601Y-95167422D01*
X127638106Y-94973918D01*
X127471083Y-94806895D01*
X127285405Y-94676881D01*
X127241781Y-94622304D01*
X127234588Y-94552805D01*
X127266110Y-94490451D01*
X127285405Y-94473731D01*
X127471406Y-94343492D01*
X127638495Y-94176403D01*
X127774035Y-93982831D01*
X127774036Y-93982829D01*
X127873902Y-93768665D01*
X127873906Y-93768656D01*
X127935062Y-93540414D01*
X127935064Y-93540404D01*
X127955659Y-93305001D01*
X168599500Y-93305001D01*
X168599500Y-95282938D01*
X166637149Y-95282938D01*
X166637149Y-95040361D01*
X166605488Y-94799864D01*
X166542702Y-94565545D01*
X166450725Y-94343494D01*
X166449873Y-94341437D01*
X166328585Y-94131360D01*
X166328583Y-94131357D01*
X166328582Y-94131356D01*
X166180916Y-93938913D01*
X166180910Y-93938906D01*
X166009393Y-93767389D01*
X166009387Y-93767384D01*
X165816938Y-93619713D01*
X165606861Y-93498425D01*
X165382749Y-93405595D01*
X165148438Y-93342811D01*
X164968063Y-93319065D01*
X164907938Y-93311149D01*
X164907937Y-93311149D01*
X164665360Y-93311149D01*
X164617261Y-93317482D01*
X164424860Y-93342811D01*
X164190549Y-93405595D01*
X163966437Y-93498425D01*
X163756360Y-93619713D01*
X163563911Y-93767384D01*
X163392384Y-93938911D01*
X163244713Y-94131360D01*
X163123425Y-94341437D01*
X163030595Y-94565549D01*
X162967811Y-94799860D01*
X162936149Y-95040361D01*
X162936149Y-95282937D01*
X162967811Y-95523438D01*
X163030595Y-95757749D01*
X163039470Y-95779174D01*
X163042454Y-95786380D01*
X163123425Y-95981861D01*
X163244713Y-96191938D01*
X163392384Y-96384387D01*
X163392389Y-96384393D01*
X163563906Y-96555910D01*
X163563913Y-96555916D01*
X163756356Y-96703582D01*
X163756357Y-96703583D01*
X163756360Y-96703585D01*
X163966437Y-96824873D01*
X163966444Y-96824876D01*
X164190545Y-96917702D01*
X164424864Y-96980488D01*
X164665360Y-97012149D01*
X164665361Y-97012149D01*
X164907937Y-97012149D01*
X164907938Y-97012149D01*
X165148435Y-96980488D01*
X165382754Y-96917702D01*
X165606855Y-96824876D01*
X165606864Y-96824872D01*
X165816943Y-96703582D01*
X166009386Y-96555916D01*
X166009393Y-96555910D01*
X166180910Y-96384393D01*
X166180916Y-96384386D01*
X166328582Y-96191943D01*
X166449872Y-95981864D01*
X166449876Y-95981855D01*
X166542702Y-95757754D01*
X166605488Y-95523435D01*
X166637149Y-95282938D01*
X168599500Y-95282938D01*
X168599500Y-98875500D01*
X168579815Y-98942539D01*
X168527011Y-98988294D01*
X168475500Y-98999500D01*
X114724500Y-98999500D01*
X114657461Y-98979815D01*
G37*
%TD.AperFunction*%
%TD*%
M02*
