M48
; DRILL file {KiCad 8.0.7} date 2025-01-10T14:29:59+0100
; FORMAT={-:-/ absolute / inch / decimal}
; #@! TF.CreationDate,2025-01-10T14:29:59+01:00
; #@! TF.GenerationSoftware,Kicad,Pcbnew,8.0.7
; #@! TF.FileFunction,Plated,1,2,PTH
FMAT,2
INCH
; #@! TA.AperFunction,Plated,PTH,ComponentDrill
T1C0.0315
; #@! TA.AperFunction,Plated,PTH,ViaDrill
T2C0.0394
; #@! TA.AperFunction,Plated,PTH,ComponentDrill
T3C0.0394
; #@! TA.AperFunction,Plated,PTH,ComponentDrill
T4C0.0433
%
G90
G05
T1
X4.7638Y-2.9081
X4.7638Y-3.2081
X4.9Y-2.9085
X4.9Y-3.2085
T2
X4.6299Y-2.9104
X4.7638Y-3.3435
X4.9016Y-3.3494
X5.2008Y-3.3297
X5.3268Y-2.7116
X5.3268Y-3.2963
X5.3504Y-3.8455
X5.4272Y-2.0797
X5.7579Y-3.3238
X6.0217Y-2.6742
X6.378Y-3.2746
X6.3799Y-3.4656
T3
X4.9843Y-3.4734
X4.9843Y-3.5734
X4.9843Y-3.6734
X4.9843Y-3.7734
X5.1583Y-3.5837
X5.2583Y-3.5837
X5.3583Y-3.5837
X5.4583Y-3.5837
X5.5583Y-3.5837
X5.6583Y-3.5837
X5.7583Y-3.5837
X5.8583Y-3.5837
X5.9583Y-3.5837
X6.0583Y-3.5837
T4
X5.0709Y-1.8022
X5.0709Y-1.9793
X5.0709Y-2.3927
X5.0709Y-2.5699
X5.0709Y-2.9833
X5.0709Y-3.1604
X5.3268Y-1.8022
X5.3268Y-1.9793
X5.3268Y-2.3927
X5.3268Y-2.5699
X5.3268Y-2.9833
X5.3268Y-3.1604
X5.6614Y-2.3927
X5.6614Y-2.5699
X5.6614Y-2.9833
X5.6614Y-3.1604
X5.9173Y-2.3927
X5.9173Y-2.5699
X5.9173Y-2.9833
X5.9173Y-3.1604
X6.4882Y-2.9833
X6.4882Y-3.1801
X6.4882Y-3.377
M30
