M48
; DRILL file {KiCad 8.0.7} date 2025-01-10T14:26:30+0100
; FORMAT={-:-/ absolute / inch / decimal}
; #@! TF.CreationDate,2025-01-10T14:26:30+01:00
; #@! TF.GenerationSoftware,Kicad,Pcbnew,8.0.7
; #@! TF.FileFunction,Plated,1,2,PTH
FMAT,2
INCH
; #@! TA.AperFunction,Plated,PTH,ComponentDrill
T1C0.0315
; #@! TA.AperFunction,Plated,PTH,ViaDrill
T2C0.0394
; #@! TA.AperFunction,Plated,PTH,ComponentDrill
T3C0.0394
%
G90
G05
T1
X1.2335Y-2.3016
X1.2335Y-2.7016
X1.4969Y-3.372
X1.4969Y-3.772
X1.89Y-3.4469
X1.8929Y-3.2516
X1.9884Y-3.4469
X2.0898Y-3.2516
X2.2429Y-2.08
X2.2429Y-2.2151
X2.361Y-1.5996
X2.361Y-1.7996
X2.3673Y-2.5213
X2.3732Y-2.7039
X2.6429Y-2.08
X2.6429Y-2.2151
X2.761Y-1.5996
X2.761Y-1.7996
X2.7673Y-2.5213
X2.7732Y-2.7039
X3.3996Y-1.969
X3.3996Y-2.3233
X3.4028Y-2.1462
X3.4307Y-0.9757
X3.4307Y-1.1351
X3.4307Y-1.2946
X3.7504Y-2.5186
X3.7504Y-2.6186
X3.7504Y-2.7186
X3.7516Y-3.3917
X3.7516Y-3.4917
X3.7516Y-3.5917
X3.752Y-2.8051
X3.752Y-2.9051
X3.752Y-3.0051
X3.752Y-3.1012
X3.752Y-3.2012
X3.752Y-3.3012
X3.7996Y-1.969
X3.7996Y-2.3233
X3.8028Y-2.1462
X3.8307Y-0.9757
X3.8307Y-1.1351
X3.8307Y-1.2946
X3.8827Y-1.9635
X3.9551Y-1.2921
X3.9618Y-2.5647
X3.963Y-2.7158
X3.9646Y-2.8513
X3.9661Y-2.9836
X3.9677Y-3.1225
X3.974Y-3.2552
X3.974Y-3.4316
X3.974Y-3.6088
X3.974Y-3.8056
X3.974Y-3.9729
X3.9827Y-1.9635
X4.0425Y-1.7422
X4.0437Y-1.5863
X4.0551Y-1.2921
X4.0827Y-1.9635
X4.1551Y-1.2921
X4.1803Y-1.974
X4.1803Y-4.1634
X4.3606Y-2.2606
X4.3618Y-2.5647
X4.363Y-2.7158
X4.3646Y-2.8513
X4.3661Y-2.9836
X4.3677Y-3.1225
X4.374Y-3.2552
X4.374Y-3.4316
X4.374Y-3.6088
X4.374Y-3.8056
X4.374Y-3.9729
X4.3772Y-1.974
X4.3772Y-4.1634
X4.4425Y-1.7422
X4.4437Y-1.5863
X4.4453Y-1.2437
X4.4453Y-1.4406
X4.5575Y-2.2606
X4.6014Y-1.7685
X4.6077Y-1.4453
X4.6087Y-3.8138
X4.6242Y-2.4354
X4.6998Y-1.7685
X4.7061Y-1.4453
X4.7071Y-3.8138
X4.7226Y-2.4354
T2
X1.0272Y-2.7661
X1.0618Y-2.3224
X1.0622Y-1.4601
X1.1185Y-2.6938
X1.1295Y-0.9874
X1.161Y-1.7996
X1.202Y-2.2012
X1.2283Y-3.1639
X1.3118Y-2.0988
X1.3313Y-1.5045
X1.3354Y-1.9728
X1.374Y-2.3085
X1.4213Y-2.2299
X1.4244Y-2.6205
X1.6205Y-3.3803
X1.6882Y-0.9508
X1.8697Y-1.2245
X2.029Y-1.2335
X2.1169Y-1.2709
X2.2409Y-1.6509
X2.2465Y-1.9705
X2.2528Y-2.974
X2.2531Y-2.3697
X2.4933Y-1.1024
X2.5Y-3.276
X2.6093Y-2.3656
X2.7657Y-2.3516
X2.8244Y-2.2292
X2.8697Y-2.5185
X2.8791Y-1.585
X2.8823Y-1.7142
X2.8886Y-2.7449
X3.1894Y-2.4706
X3.2063Y-0.8036
X3.3091Y-2.0438
X3.3091Y-2.1426
X3.3134Y-2.2477
X3.3307Y-1.2855
X3.3339Y-0.9828
X3.3339Y-1.1344
X3.5961Y-2.6194
X3.615Y-3.1008
X3.6181Y-3.2
X3.6189Y-2.7874
X3.6205Y-3.4878
X3.6213Y-2.8894
X3.8118Y-3.8099
X3.8756Y-3.7413
X3.8756Y-3.971
X3.8933Y-2.321
X3.9043Y-1.7773
X3.9425Y-1.5218
X3.9488Y-0.8379
X3.9681Y-2.456
X4.4461Y-1.8615
X4.4594Y-2.7178
X4.4618Y-2.9859
X4.4764Y-3.8942
X4.4787Y-3.2032
X4.5234Y-2.5661
X4.5311Y-2.9021
X4.5315Y-3.5154
X4.5346Y-3.3854
X4.5366Y-3.6437
X4.5496Y-3.0281
X4.6594Y-3.1902
X4.6626Y-2.6115
T3
X1.0598Y-1.142
X1.0598Y-1.242
X1.0598Y-1.342
X1.061Y-1.5996
X1.061Y-1.6996
X1.061Y-1.7996
X1.061Y-1.9996
X1.061Y-2.0996
X1.061Y-2.1996
X1.063Y-2.4448
X1.063Y-2.5448
X1.2268Y-2.8426
X1.2268Y-2.9426
X1.2268Y-3.0426
X1.4667Y-1.1009
X1.5311Y-1.5736
X1.5311Y-1.6736
X1.5311Y-1.7736
X1.5311Y-1.8736
X1.5311Y-1.9736
X1.5311Y-2.0736
X1.5311Y-2.1736
X1.5311Y-2.2736
X1.5311Y-2.3736
X1.5311Y-2.4736
X1.5311Y-2.5736
X1.5311Y-2.6736
X1.5311Y-2.7736
X1.5311Y-2.8736
X1.5311Y-2.9736
X1.5667Y-1.1009
X1.6195Y-3.252
X1.6667Y-1.1009
X1.7014Y-3.7713
X1.7195Y-3.252
X1.7667Y-1.1009
X1.8014Y-3.7713
X1.8667Y-1.1009
X1.9667Y-1.1009
X2.0667Y-1.1009
X2.1311Y-1.5736
X2.1311Y-1.6736
X2.1311Y-1.7736
X2.1311Y-1.8736
X2.1311Y-1.9736
X2.1311Y-2.0736
X2.1311Y-2.1736
X2.1311Y-2.2736
X2.1311Y-2.3736
X2.1311Y-2.4736
X2.1311Y-2.5736
X2.1311Y-2.6736
X2.1311Y-2.7736
X2.1311Y-2.8736
X2.1311Y-2.9736
X2.1667Y-1.1009
X2.2667Y-1.1009
X2.3667Y-1.1009
X2.3787Y-2.9772
X2.3787Y-3.0772
X2.3787Y-3.1772
X2.3787Y-3.2772
X2.3982Y-2.3657
X2.4982Y-2.3657
X3.1878Y-2.0485
X3.1878Y-2.1485
X3.1878Y-2.2485
X3.1878Y-2.3485
X3.2047Y-0.9395
X3.2047Y-1.0395
X3.2047Y-1.1395
X3.2047Y-1.2395
X4.6587Y-3.3134
X4.6587Y-3.4134
X4.6587Y-3.5134
X4.6587Y-3.6134
X4.6673Y-2.7245
X4.6673Y-2.8245
X4.6673Y-2.9245
X4.6673Y-3.0245
T3
G00X2.3142Y-3.8528
M15
G01X2.3929Y-3.8528
M16
G05
G00X2.3142Y-4.089
M15
G01X2.3929Y-4.089
M16
G05
G00X2.5386Y-4.0102
M15
G01X2.5386Y-3.9315
M16
G05
M30
