%TF.GenerationSoftware,KiCad,Pcbnew,8.0.5*%
%TF.CreationDate,2024-11-14T11:30:08+01:00*%
%TF.ProjectId,LCD_PCB,4c43445f-5043-4422-9e6b-696361645f70,rev?*%
%TF.SameCoordinates,Original*%
%TF.FileFunction,Copper,L2,Bot*%
%TF.FilePolarity,Positive*%
%FSLAX46Y46*%
G04 Gerber Fmt 4.6, Leading zero omitted, Abs format (unit mm)*
G04 Created by KiCad (PCBNEW 8.0.5) date 2024-11-14 11:30:08*
%MOMM*%
%LPD*%
G01*
G04 APERTURE LIST*
%TA.AperFunction,ComponentPad*%
%ADD10C,2.000000*%
%TD*%
%TA.AperFunction,ComponentPad*%
%ADD11C,1.600000*%
%TD*%
%TA.AperFunction,ComponentPad*%
%ADD12O,1.600000X1.600000*%
%TD*%
%TA.AperFunction,ComponentPad*%
%ADD13R,1.500000X1.500000*%
%TD*%
%TA.AperFunction,ComponentPad*%
%ADD14C,1.500000*%
%TD*%
%TA.AperFunction,ComponentPad*%
%ADD15R,1.700000X1.700000*%
%TD*%
%TA.AperFunction,ComponentPad*%
%ADD16O,1.700000X1.700000*%
%TD*%
%TA.AperFunction,ViaPad*%
%ADD17C,2.000000*%
%TD*%
%TA.AperFunction,Conductor*%
%ADD18C,1.000000*%
%TD*%
G04 APERTURE END LIST*
D10*
%TO.P,SW1,1,1*%
%TO.N,Button Down*%
X123500000Y-81500000D03*
X130000000Y-81500000D03*
%TO.P,SW1,2,2*%
%TO.N,GND*%
X123500000Y-86000000D03*
X130000000Y-86000000D03*
%TD*%
%TO.P,SW2,1,1*%
%TO.N,Button Up*%
X123500000Y-51500000D03*
X130000000Y-51500000D03*
%TO.P,SW2,2,2*%
%TO.N,GND*%
X123500000Y-56000000D03*
X130000000Y-56000000D03*
%TD*%
D11*
%TO.P,R1,1*%
%TO.N,5V*%
X134340000Y-57900000D03*
D12*
%TO.P,R1,2*%
%TO.N,lcd SCL*%
X134340000Y-50280000D03*
%TD*%
D11*
%TO.P,R2,1*%
%TO.N,5V*%
X137800000Y-57910000D03*
D12*
%TO.P,R2,2*%
%TO.N,lcd SDA*%
X137800000Y-50290000D03*
%TD*%
D13*
%TO.P,RV1,1,1*%
%TO.N,GND*%
X94000000Y-56000000D03*
D14*
%TO.P,RV1,2,2*%
%TO.N,control panel pot*%
X94000000Y-51000000D03*
%TO.P,RV1,3,3*%
%TO.N,5V*%
X94000000Y-46000000D03*
%TD*%
D10*
%TO.P,SW3,1,1*%
%TO.N,Button OK*%
X123500000Y-66500000D03*
X130000000Y-66500000D03*
%TO.P,SW3,2,2*%
%TO.N,GND*%
X123500000Y-71000000D03*
X130000000Y-71000000D03*
%TD*%
%TO.P,SW5,1,1*%
%TO.N,Button Sleep*%
X108500000Y-66500000D03*
X115000000Y-66500000D03*
%TO.P,SW5,2,2*%
%TO.N,GND*%
X108500000Y-71000000D03*
X115000000Y-71000000D03*
%TD*%
%TO.P,SW4,1,1*%
%TO.N,Button Back*%
X108500000Y-51500000D03*
X115000000Y-51500000D03*
%TO.P,SW4,2,2*%
%TO.N,GND*%
X108500000Y-56000000D03*
X115000000Y-56000000D03*
%TD*%
D15*
%TO.P,J1,1,Pin_1*%
%TO.N,lcd SCL*%
X132200000Y-43550000D03*
D16*
%TO.P,J1,2,Pin_2*%
%TO.N,lcd SDA*%
X132200000Y-41010000D03*
%TO.P,J1,3,Pin_3*%
%TO.N,5V*%
X132200000Y-38470000D03*
%TO.P,J1,4,Pin_4*%
%TO.N,GND*%
X132200000Y-35930000D03*
%TD*%
D15*
%TO.P,J2,1,Pin_1*%
%TO.N,control panel pot*%
X104920000Y-40750000D03*
D16*
%TO.P,J2,2,Pin_2*%
%TO.N,5V*%
X107460000Y-40750000D03*
%TO.P,J2,3,Pin_3*%
%TO.N,Button Sleep*%
X110000000Y-40750000D03*
%TO.P,J2,4,Pin_4*%
%TO.N,Button Back*%
X112540000Y-40750000D03*
%TO.P,J2,5,Pin_5*%
%TO.N,Button Down*%
X115080000Y-40750000D03*
%TO.P,J2,6,Pin_6*%
%TO.N,Button OK*%
X117620000Y-40750000D03*
%TO.P,J2,7,Pin_7*%
%TO.N,Button Up*%
X120160000Y-40750000D03*
%TO.P,J2,8,Pin_8*%
%TO.N,GND*%
X122700000Y-40750000D03*
%TO.P,J2,9,Pin_9*%
%TO.N,lcd SCL*%
X125240000Y-40750000D03*
%TO.P,J2,10,Pin_10*%
%TO.N,lcd SDA*%
X127780000Y-40750000D03*
%TD*%
D17*
%TO.N,GND*%
X122900000Y-34100000D03*
X126700000Y-47200000D03*
%TO.N,lcd SDA*%
X137800000Y-46850000D03*
%TO.N,lcd SCL*%
X134300000Y-46700000D03*
%TO.N,5V*%
X141200000Y-57850000D03*
X96750000Y-43750000D03*
%TO.N,control panel pot*%
X96800000Y-48600000D03*
%TO.N,Button Down*%
X120950000Y-78950000D03*
%TO.N,Button Back*%
X112550000Y-47350000D03*
%TO.N,Button OK*%
X123500000Y-62900000D03*
%TO.N,Button Up*%
X123500000Y-48050000D03*
%TO.N,Button Sleep*%
X105850000Y-63850000D03*
%TD*%
D18*
%TO.N,lcd SDA*%
X137800000Y-46850000D02*
X137800000Y-50290000D01*
%TO.N,lcd SCL*%
X134300000Y-50140000D02*
X134350000Y-50190000D01*
X134300000Y-50240000D02*
X134340000Y-50280000D01*
X134300000Y-46700000D02*
X134300000Y-50240000D01*
%TO.N,5V*%
X141200000Y-57850000D02*
X137860000Y-57850000D01*
X137800000Y-57910000D02*
X134350000Y-57910000D01*
X137860000Y-57850000D02*
X137800000Y-57910000D01*
X96750000Y-43750000D02*
X96250000Y-43750000D01*
X96250000Y-43750000D02*
X94000000Y-46000000D01*
X134350000Y-57910000D02*
X134340000Y-57900000D01*
X134450000Y-57910000D02*
X134350000Y-57810000D01*
%TO.N,control panel pot*%
X96400000Y-48600000D02*
X94000000Y-51000000D01*
X96800000Y-48600000D02*
X96400000Y-48600000D01*
%TO.N,Button Down*%
X120950000Y-78950000D02*
X123500000Y-81500000D01*
X123500000Y-81500000D02*
X130000000Y-81500000D01*
%TO.N,Button Back*%
X112550000Y-47350000D02*
X112550000Y-49050000D01*
X110100000Y-51500000D02*
X108500000Y-51500000D01*
X112550000Y-49050000D02*
X115000000Y-51500000D01*
X112550000Y-49050000D02*
X110100000Y-51500000D01*
%TO.N,Button OK*%
X123500000Y-66500000D02*
X130000000Y-66500000D01*
X123500000Y-62900000D02*
X123500000Y-66500000D01*
%TO.N,Button Up*%
X123500000Y-48050000D02*
X123500000Y-51500000D01*
X123500000Y-51500000D02*
X130000000Y-51500000D01*
%TO.N,Button Sleep*%
X105850000Y-63850000D02*
X108500000Y-66500000D01*
X108500000Y-66500000D02*
X115000000Y-66500000D01*
%TD*%
%TA.AperFunction,Conductor*%
%TO.N,GND*%
G36*
X144142539Y-32795185D02*
G01*
X144188294Y-32847989D01*
X144199500Y-32899500D01*
X144199500Y-91650500D01*
X144179815Y-91717539D01*
X144127011Y-91763294D01*
X144075500Y-91774500D01*
X90324500Y-91774500D01*
X90257461Y-91754815D01*
X90211706Y-91702011D01*
X90200500Y-91650500D01*
X90200500Y-87815360D01*
X92212851Y-87815360D01*
X92212851Y-88057937D01*
X92244512Y-88298434D01*
X92307298Y-88532753D01*
X92328009Y-88582753D01*
X92400127Y-88756861D01*
X92521415Y-88966938D01*
X92521417Y-88966941D01*
X92521418Y-88966942D01*
X92669084Y-89159385D01*
X92669090Y-89159392D01*
X92840607Y-89330909D01*
X92840613Y-89330914D01*
X93033062Y-89478585D01*
X93243139Y-89599873D01*
X93467251Y-89692703D01*
X93701562Y-89755487D01*
X93881937Y-89779233D01*
X93942062Y-89787149D01*
X93942063Y-89787149D01*
X94184640Y-89787149D01*
X94232739Y-89780816D01*
X94425140Y-89755487D01*
X94659451Y-89692703D01*
X94883563Y-89599873D01*
X95093640Y-89478585D01*
X95286089Y-89330914D01*
X95457616Y-89159387D01*
X95605287Y-88966938D01*
X95726575Y-88756861D01*
X95819405Y-88532749D01*
X95882189Y-88298438D01*
X95913851Y-88057937D01*
X95913851Y-87865360D01*
X138536149Y-87865360D01*
X138536149Y-88107937D01*
X138567810Y-88348434D01*
X138630596Y-88582753D01*
X138702711Y-88756854D01*
X138723425Y-88806861D01*
X138844713Y-89016938D01*
X138844715Y-89016941D01*
X138844716Y-89016942D01*
X138992382Y-89209385D01*
X138992388Y-89209392D01*
X139163905Y-89380909D01*
X139163911Y-89380914D01*
X139356360Y-89528585D01*
X139566437Y-89649873D01*
X139790549Y-89742703D01*
X140024860Y-89805487D01*
X140205235Y-89829233D01*
X140265360Y-89837149D01*
X140265361Y-89837149D01*
X140507938Y-89837149D01*
X140556037Y-89830816D01*
X140748438Y-89805487D01*
X140982749Y-89742703D01*
X141206861Y-89649873D01*
X141416938Y-89528585D01*
X141609387Y-89380914D01*
X141780914Y-89209387D01*
X141928585Y-89016938D01*
X142049873Y-88806861D01*
X142142703Y-88582749D01*
X142205487Y-88348438D01*
X142237149Y-88107937D01*
X142237149Y-87865361D01*
X142230566Y-87815361D01*
X142205487Y-87624863D01*
X142205487Y-87624860D01*
X142142703Y-87390549D01*
X142049873Y-87166437D01*
X141928585Y-86956360D01*
X141780914Y-86763911D01*
X141780909Y-86763905D01*
X141609392Y-86592388D01*
X141609385Y-86592382D01*
X141416942Y-86444716D01*
X141416941Y-86444715D01*
X141416938Y-86444713D01*
X141206861Y-86323425D01*
X141206854Y-86323422D01*
X140982753Y-86230596D01*
X140748434Y-86167810D01*
X140507938Y-86136149D01*
X140507937Y-86136149D01*
X140265361Y-86136149D01*
X140265360Y-86136149D01*
X140024863Y-86167810D01*
X139790544Y-86230596D01*
X139566443Y-86323422D01*
X139566434Y-86323426D01*
X139356355Y-86444716D01*
X139163912Y-86592382D01*
X139163905Y-86592388D01*
X138992388Y-86763905D01*
X138992382Y-86763912D01*
X138844716Y-86956355D01*
X138723426Y-87166434D01*
X138723422Y-87166443D01*
X138630596Y-87390544D01*
X138567810Y-87624863D01*
X138536149Y-87865360D01*
X95913851Y-87865360D01*
X95913851Y-87815361D01*
X95882189Y-87574860D01*
X95819405Y-87340549D01*
X95726575Y-87116437D01*
X95605287Y-86906360D01*
X95457616Y-86713911D01*
X95457611Y-86713905D01*
X95286094Y-86542388D01*
X95286087Y-86542382D01*
X95093644Y-86394716D01*
X95093643Y-86394715D01*
X95093640Y-86394713D01*
X94883563Y-86273425D01*
X94883556Y-86273422D01*
X94659455Y-86180596D01*
X94425136Y-86117810D01*
X94184640Y-86086149D01*
X94184639Y-86086149D01*
X93942063Y-86086149D01*
X93942062Y-86086149D01*
X93701565Y-86117810D01*
X93467246Y-86180596D01*
X93243145Y-86273422D01*
X93243136Y-86273426D01*
X93033057Y-86394716D01*
X92840614Y-86542382D01*
X92840607Y-86542388D01*
X92669090Y-86713905D01*
X92669084Y-86713912D01*
X92521418Y-86906355D01*
X92400128Y-87116434D01*
X92400124Y-87116443D01*
X92307298Y-87340544D01*
X92244512Y-87574863D01*
X92212851Y-87815360D01*
X90200500Y-87815360D01*
X90200500Y-85999994D01*
X121994859Y-85999994D01*
X121994859Y-86000005D01*
X122015385Y-86247729D01*
X122015387Y-86247738D01*
X122076412Y-86488717D01*
X122176266Y-86716364D01*
X122276564Y-86869882D01*
X122976212Y-86170234D01*
X122987482Y-86212292D01*
X123059890Y-86337708D01*
X123162292Y-86440110D01*
X123287708Y-86512518D01*
X123329765Y-86523787D01*
X122629942Y-87223609D01*
X122676768Y-87260055D01*
X122676770Y-87260056D01*
X122895385Y-87378364D01*
X122895396Y-87378369D01*
X123130506Y-87459083D01*
X123375707Y-87500000D01*
X123624293Y-87500000D01*
X123869493Y-87459083D01*
X124104603Y-87378369D01*
X124104614Y-87378364D01*
X124323228Y-87260057D01*
X124323231Y-87260055D01*
X124370056Y-87223609D01*
X123670234Y-86523787D01*
X123712292Y-86512518D01*
X123837708Y-86440110D01*
X123940110Y-86337708D01*
X124012518Y-86212292D01*
X124023787Y-86170235D01*
X124723434Y-86869882D01*
X124823731Y-86716369D01*
X124923587Y-86488717D01*
X124984612Y-86247738D01*
X124984614Y-86247729D01*
X125005141Y-86000005D01*
X125005141Y-85999994D01*
X128494859Y-85999994D01*
X128494859Y-86000005D01*
X128515385Y-86247729D01*
X128515387Y-86247738D01*
X128576412Y-86488717D01*
X128676266Y-86716364D01*
X128776564Y-86869882D01*
X129476212Y-86170234D01*
X129487482Y-86212292D01*
X129559890Y-86337708D01*
X129662292Y-86440110D01*
X129787708Y-86512518D01*
X129829765Y-86523787D01*
X129129942Y-87223609D01*
X129176768Y-87260055D01*
X129176770Y-87260056D01*
X129395385Y-87378364D01*
X129395396Y-87378369D01*
X129630506Y-87459083D01*
X129875707Y-87500000D01*
X130124293Y-87500000D01*
X130369493Y-87459083D01*
X130604603Y-87378369D01*
X130604614Y-87378364D01*
X130823228Y-87260057D01*
X130823231Y-87260055D01*
X130870056Y-87223609D01*
X130170234Y-86523787D01*
X130212292Y-86512518D01*
X130337708Y-86440110D01*
X130440110Y-86337708D01*
X130512518Y-86212292D01*
X130523787Y-86170235D01*
X131223434Y-86869882D01*
X131323731Y-86716369D01*
X131423587Y-86488717D01*
X131484612Y-86247738D01*
X131484614Y-86247729D01*
X131505141Y-86000005D01*
X131505141Y-85999994D01*
X131484614Y-85752270D01*
X131484612Y-85752261D01*
X131423587Y-85511282D01*
X131323731Y-85283630D01*
X131223434Y-85130116D01*
X130523787Y-85829764D01*
X130512518Y-85787708D01*
X130440110Y-85662292D01*
X130337708Y-85559890D01*
X130212292Y-85487482D01*
X130170235Y-85476212D01*
X130870057Y-84776390D01*
X130870056Y-84776389D01*
X130823229Y-84739943D01*
X130604614Y-84621635D01*
X130604603Y-84621630D01*
X130369493Y-84540916D01*
X130124293Y-84500000D01*
X129875707Y-84500000D01*
X129630506Y-84540916D01*
X129395396Y-84621630D01*
X129395390Y-84621632D01*
X129176761Y-84739949D01*
X129129942Y-84776388D01*
X129129942Y-84776390D01*
X129829765Y-85476212D01*
X129787708Y-85487482D01*
X129662292Y-85559890D01*
X129559890Y-85662292D01*
X129487482Y-85787708D01*
X129476212Y-85829764D01*
X128776564Y-85130116D01*
X128676267Y-85283632D01*
X128576412Y-85511282D01*
X128515387Y-85752261D01*
X128515385Y-85752270D01*
X128494859Y-85999994D01*
X125005141Y-85999994D01*
X124984614Y-85752270D01*
X124984612Y-85752261D01*
X124923587Y-85511282D01*
X124823731Y-85283630D01*
X124723434Y-85130116D01*
X124023787Y-85829764D01*
X124012518Y-85787708D01*
X123940110Y-85662292D01*
X123837708Y-85559890D01*
X123712292Y-85487482D01*
X123670235Y-85476212D01*
X124370057Y-84776390D01*
X124370056Y-84776389D01*
X124323229Y-84739943D01*
X124104614Y-84621635D01*
X124104603Y-84621630D01*
X123869493Y-84540916D01*
X123624293Y-84500000D01*
X123375707Y-84500000D01*
X123130506Y-84540916D01*
X122895396Y-84621630D01*
X122895390Y-84621632D01*
X122676761Y-84739949D01*
X122629942Y-84776388D01*
X122629942Y-84776390D01*
X123329765Y-85476212D01*
X123287708Y-85487482D01*
X123162292Y-85559890D01*
X123059890Y-85662292D01*
X122987482Y-85787708D01*
X122976212Y-85829764D01*
X122276564Y-85130116D01*
X122176267Y-85283632D01*
X122076412Y-85511282D01*
X122015387Y-85752261D01*
X122015385Y-85752270D01*
X121994859Y-85999994D01*
X90200500Y-85999994D01*
X90200500Y-78949994D01*
X119444357Y-78949994D01*
X119444357Y-78950005D01*
X119464890Y-79197812D01*
X119464892Y-79197824D01*
X119525936Y-79438881D01*
X119625826Y-79666606D01*
X119761833Y-79874782D01*
X119761836Y-79874785D01*
X119930256Y-80057738D01*
X120126491Y-80210474D01*
X120345190Y-80328828D01*
X120580386Y-80409571D01*
X120825665Y-80450500D01*
X120984218Y-80450500D01*
X121051257Y-80470185D01*
X121071899Y-80486819D01*
X121960657Y-81375577D01*
X121994142Y-81436900D01*
X121996553Y-81473495D01*
X121994358Y-81499994D01*
X121994357Y-81500002D01*
X121994357Y-81500005D01*
X122014890Y-81747812D01*
X122014892Y-81747824D01*
X122075936Y-81988881D01*
X122175826Y-82216606D01*
X122311833Y-82424782D01*
X122311836Y-82424785D01*
X122480256Y-82607738D01*
X122676491Y-82760474D01*
X122895190Y-82878828D01*
X123130386Y-82959571D01*
X123375665Y-83000500D01*
X123624335Y-83000500D01*
X123869614Y-82959571D01*
X124104810Y-82878828D01*
X124323509Y-82760474D01*
X124519744Y-82607738D01*
X124544194Y-82581177D01*
X124581626Y-82540517D01*
X124641513Y-82504526D01*
X124672855Y-82500500D01*
X128827145Y-82500500D01*
X128894184Y-82520185D01*
X128918374Y-82540517D01*
X128980252Y-82607734D01*
X128980256Y-82607738D01*
X129176491Y-82760474D01*
X129395190Y-82878828D01*
X129630386Y-82959571D01*
X129875665Y-83000500D01*
X130124335Y-83000500D01*
X130369614Y-82959571D01*
X130604810Y-82878828D01*
X130823509Y-82760474D01*
X131019744Y-82607738D01*
X131188164Y-82424785D01*
X131324173Y-82216607D01*
X131424063Y-81988881D01*
X131485108Y-81747821D01*
X131505643Y-81500000D01*
X131500414Y-81436900D01*
X131485109Y-81252187D01*
X131485107Y-81252175D01*
X131424063Y-81011118D01*
X131324173Y-80783393D01*
X131188166Y-80575217D01*
X131114757Y-80495474D01*
X131019744Y-80392262D01*
X130823509Y-80239526D01*
X130823507Y-80239525D01*
X130823506Y-80239524D01*
X130604811Y-80121172D01*
X130604802Y-80121169D01*
X130369616Y-80040429D01*
X130124335Y-79999500D01*
X129875665Y-79999500D01*
X129630383Y-80040429D01*
X129395197Y-80121169D01*
X129395188Y-80121172D01*
X129176493Y-80239524D01*
X128980255Y-80392262D01*
X128980252Y-80392265D01*
X128918374Y-80459483D01*
X128858487Y-80495474D01*
X128827145Y-80499500D01*
X124672855Y-80499500D01*
X124605816Y-80479815D01*
X124581626Y-80459483D01*
X124519747Y-80392265D01*
X124519744Y-80392262D01*
X124519743Y-80392261D01*
X124323509Y-80239526D01*
X124323507Y-80239525D01*
X124323506Y-80239524D01*
X124104811Y-80121172D01*
X124104802Y-80121169D01*
X123869616Y-80040429D01*
X123624335Y-79999500D01*
X123465783Y-79999500D01*
X123398744Y-79979815D01*
X123378102Y-79963181D01*
X122489342Y-79074422D01*
X122455857Y-79013099D01*
X122453447Y-78976499D01*
X122455643Y-78950003D01*
X122455643Y-78949995D01*
X122435109Y-78702187D01*
X122435107Y-78702175D01*
X122374063Y-78461118D01*
X122274173Y-78233393D01*
X122138166Y-78025217D01*
X122116557Y-78001744D01*
X121969744Y-77842262D01*
X121773509Y-77689526D01*
X121773507Y-77689525D01*
X121773506Y-77689524D01*
X121554811Y-77571172D01*
X121554802Y-77571169D01*
X121319616Y-77490429D01*
X121074335Y-77449500D01*
X120825665Y-77449500D01*
X120580383Y-77490429D01*
X120345197Y-77571169D01*
X120345188Y-77571172D01*
X120126493Y-77689524D01*
X119930257Y-77842261D01*
X119761833Y-78025217D01*
X119625826Y-78233393D01*
X119525936Y-78461118D01*
X119464892Y-78702175D01*
X119464890Y-78702187D01*
X119444357Y-78949994D01*
X90200500Y-78949994D01*
X90200500Y-70999994D01*
X106994859Y-70999994D01*
X106994859Y-71000005D01*
X107015385Y-71247729D01*
X107015387Y-71247738D01*
X107076412Y-71488717D01*
X107176266Y-71716364D01*
X107276564Y-71869882D01*
X107976212Y-71170234D01*
X107987482Y-71212292D01*
X108059890Y-71337708D01*
X108162292Y-71440110D01*
X108287708Y-71512518D01*
X108329765Y-71523787D01*
X107629942Y-72223609D01*
X107676768Y-72260055D01*
X107676770Y-72260056D01*
X107895385Y-72378364D01*
X107895396Y-72378369D01*
X108130506Y-72459083D01*
X108375707Y-72500000D01*
X108624293Y-72500000D01*
X108869493Y-72459083D01*
X109104603Y-72378369D01*
X109104614Y-72378364D01*
X109323228Y-72260057D01*
X109323231Y-72260055D01*
X109370056Y-72223609D01*
X108670234Y-71523787D01*
X108712292Y-71512518D01*
X108837708Y-71440110D01*
X108940110Y-71337708D01*
X109012518Y-71212292D01*
X109023787Y-71170235D01*
X109723434Y-71869882D01*
X109823731Y-71716369D01*
X109923587Y-71488717D01*
X109984612Y-71247738D01*
X109984614Y-71247729D01*
X110005141Y-71000005D01*
X110005141Y-70999994D01*
X113494859Y-70999994D01*
X113494859Y-71000005D01*
X113515385Y-71247729D01*
X113515387Y-71247738D01*
X113576412Y-71488717D01*
X113676266Y-71716364D01*
X113776564Y-71869882D01*
X114476212Y-71170234D01*
X114487482Y-71212292D01*
X114559890Y-71337708D01*
X114662292Y-71440110D01*
X114787708Y-71512518D01*
X114829765Y-71523787D01*
X114129942Y-72223609D01*
X114176768Y-72260055D01*
X114176770Y-72260056D01*
X114395385Y-72378364D01*
X114395396Y-72378369D01*
X114630506Y-72459083D01*
X114875707Y-72500000D01*
X115124293Y-72500000D01*
X115369493Y-72459083D01*
X115604603Y-72378369D01*
X115604614Y-72378364D01*
X115823228Y-72260057D01*
X115823231Y-72260055D01*
X115870056Y-72223609D01*
X115170234Y-71523787D01*
X115212292Y-71512518D01*
X115337708Y-71440110D01*
X115440110Y-71337708D01*
X115512518Y-71212292D01*
X115523787Y-71170235D01*
X116223434Y-71869882D01*
X116323731Y-71716369D01*
X116423587Y-71488717D01*
X116484612Y-71247738D01*
X116484614Y-71247729D01*
X116505141Y-71000005D01*
X116505141Y-70999994D01*
X121994859Y-70999994D01*
X121994859Y-71000005D01*
X122015385Y-71247729D01*
X122015387Y-71247738D01*
X122076412Y-71488717D01*
X122176266Y-71716364D01*
X122276564Y-71869882D01*
X122976212Y-71170234D01*
X122987482Y-71212292D01*
X123059890Y-71337708D01*
X123162292Y-71440110D01*
X123287708Y-71512518D01*
X123329765Y-71523787D01*
X122629942Y-72223609D01*
X122676768Y-72260055D01*
X122676770Y-72260056D01*
X122895385Y-72378364D01*
X122895396Y-72378369D01*
X123130506Y-72459083D01*
X123375707Y-72500000D01*
X123624293Y-72500000D01*
X123869493Y-72459083D01*
X124104603Y-72378369D01*
X124104614Y-72378364D01*
X124323228Y-72260057D01*
X124323231Y-72260055D01*
X124370056Y-72223609D01*
X123670234Y-71523787D01*
X123712292Y-71512518D01*
X123837708Y-71440110D01*
X123940110Y-71337708D01*
X124012518Y-71212292D01*
X124023787Y-71170235D01*
X124723434Y-71869882D01*
X124823731Y-71716369D01*
X124923587Y-71488717D01*
X124984612Y-71247738D01*
X124984614Y-71247729D01*
X125005141Y-71000005D01*
X125005141Y-70999994D01*
X128494859Y-70999994D01*
X128494859Y-71000005D01*
X128515385Y-71247729D01*
X128515387Y-71247738D01*
X128576412Y-71488717D01*
X128676266Y-71716364D01*
X128776564Y-71869882D01*
X129476212Y-71170234D01*
X129487482Y-71212292D01*
X129559890Y-71337708D01*
X129662292Y-71440110D01*
X129787708Y-71512518D01*
X129829765Y-71523787D01*
X129129942Y-72223609D01*
X129176768Y-72260055D01*
X129176770Y-72260056D01*
X129395385Y-72378364D01*
X129395396Y-72378369D01*
X129630506Y-72459083D01*
X129875707Y-72500000D01*
X130124293Y-72500000D01*
X130369493Y-72459083D01*
X130604603Y-72378369D01*
X130604614Y-72378364D01*
X130823228Y-72260057D01*
X130823231Y-72260055D01*
X130870056Y-72223609D01*
X130170234Y-71523787D01*
X130212292Y-71512518D01*
X130337708Y-71440110D01*
X130440110Y-71337708D01*
X130512518Y-71212292D01*
X130523787Y-71170235D01*
X131223434Y-71869882D01*
X131323731Y-71716369D01*
X131423587Y-71488717D01*
X131484612Y-71247738D01*
X131484614Y-71247729D01*
X131505141Y-71000005D01*
X131505141Y-70999994D01*
X131484614Y-70752270D01*
X131484612Y-70752261D01*
X131423587Y-70511282D01*
X131323731Y-70283630D01*
X131223434Y-70130116D01*
X130523787Y-70829764D01*
X130512518Y-70787708D01*
X130440110Y-70662292D01*
X130337708Y-70559890D01*
X130212292Y-70487482D01*
X130170235Y-70476212D01*
X130870057Y-69776390D01*
X130870056Y-69776389D01*
X130823229Y-69739943D01*
X130604614Y-69621635D01*
X130604603Y-69621630D01*
X130369493Y-69540916D01*
X130124293Y-69500000D01*
X129875707Y-69500000D01*
X129630506Y-69540916D01*
X129395396Y-69621630D01*
X129395390Y-69621632D01*
X129176761Y-69739949D01*
X129129942Y-69776388D01*
X129129942Y-69776390D01*
X129829765Y-70476212D01*
X129787708Y-70487482D01*
X129662292Y-70559890D01*
X129559890Y-70662292D01*
X129487482Y-70787708D01*
X129476212Y-70829764D01*
X128776564Y-70130116D01*
X128676267Y-70283632D01*
X128576412Y-70511282D01*
X128515387Y-70752261D01*
X128515385Y-70752270D01*
X128494859Y-70999994D01*
X125005141Y-70999994D01*
X124984614Y-70752270D01*
X124984612Y-70752261D01*
X124923587Y-70511282D01*
X124823731Y-70283630D01*
X124723434Y-70130116D01*
X124023787Y-70829764D01*
X124012518Y-70787708D01*
X123940110Y-70662292D01*
X123837708Y-70559890D01*
X123712292Y-70487482D01*
X123670235Y-70476212D01*
X124370057Y-69776390D01*
X124370056Y-69776389D01*
X124323229Y-69739943D01*
X124104614Y-69621635D01*
X124104603Y-69621630D01*
X123869493Y-69540916D01*
X123624293Y-69500000D01*
X123375707Y-69500000D01*
X123130506Y-69540916D01*
X122895396Y-69621630D01*
X122895390Y-69621632D01*
X122676761Y-69739949D01*
X122629942Y-69776388D01*
X122629942Y-69776390D01*
X123329765Y-70476212D01*
X123287708Y-70487482D01*
X123162292Y-70559890D01*
X123059890Y-70662292D01*
X122987482Y-70787708D01*
X122976212Y-70829764D01*
X122276564Y-70130116D01*
X122176267Y-70283632D01*
X122076412Y-70511282D01*
X122015387Y-70752261D01*
X122015385Y-70752270D01*
X121994859Y-70999994D01*
X116505141Y-70999994D01*
X116484614Y-70752270D01*
X116484612Y-70752261D01*
X116423587Y-70511282D01*
X116323731Y-70283630D01*
X116223434Y-70130116D01*
X115523787Y-70829764D01*
X115512518Y-70787708D01*
X115440110Y-70662292D01*
X115337708Y-70559890D01*
X115212292Y-70487482D01*
X115170235Y-70476212D01*
X115870057Y-69776390D01*
X115870056Y-69776389D01*
X115823229Y-69739943D01*
X115604614Y-69621635D01*
X115604603Y-69621630D01*
X115369493Y-69540916D01*
X115124293Y-69500000D01*
X114875707Y-69500000D01*
X114630506Y-69540916D01*
X114395396Y-69621630D01*
X114395390Y-69621632D01*
X114176761Y-69739949D01*
X114129942Y-69776388D01*
X114129942Y-69776390D01*
X114829765Y-70476212D01*
X114787708Y-70487482D01*
X114662292Y-70559890D01*
X114559890Y-70662292D01*
X114487482Y-70787708D01*
X114476212Y-70829764D01*
X113776564Y-70130116D01*
X113676267Y-70283632D01*
X113576412Y-70511282D01*
X113515387Y-70752261D01*
X113515385Y-70752270D01*
X113494859Y-70999994D01*
X110005141Y-70999994D01*
X109984614Y-70752270D01*
X109984612Y-70752261D01*
X109923587Y-70511282D01*
X109823731Y-70283630D01*
X109723434Y-70130116D01*
X109023787Y-70829764D01*
X109012518Y-70787708D01*
X108940110Y-70662292D01*
X108837708Y-70559890D01*
X108712292Y-70487482D01*
X108670235Y-70476212D01*
X109370057Y-69776390D01*
X109370056Y-69776389D01*
X109323229Y-69739943D01*
X109104614Y-69621635D01*
X109104603Y-69621630D01*
X108869493Y-69540916D01*
X108624293Y-69500000D01*
X108375707Y-69500000D01*
X108130506Y-69540916D01*
X107895396Y-69621630D01*
X107895390Y-69621632D01*
X107676761Y-69739949D01*
X107629942Y-69776388D01*
X107629942Y-69776390D01*
X108329765Y-70476212D01*
X108287708Y-70487482D01*
X108162292Y-70559890D01*
X108059890Y-70662292D01*
X107987482Y-70787708D01*
X107976212Y-70829764D01*
X107276564Y-70130116D01*
X107176267Y-70283632D01*
X107076412Y-70511282D01*
X107015387Y-70752261D01*
X107015385Y-70752270D01*
X106994859Y-70999994D01*
X90200500Y-70999994D01*
X90200500Y-63849994D01*
X104344357Y-63849994D01*
X104344357Y-63850005D01*
X104364890Y-64097812D01*
X104364892Y-64097824D01*
X104425936Y-64338881D01*
X104525826Y-64566606D01*
X104661833Y-64774782D01*
X104661836Y-64774785D01*
X104830256Y-64957738D01*
X105026491Y-65110474D01*
X105245190Y-65228828D01*
X105480386Y-65309571D01*
X105725665Y-65350500D01*
X105884218Y-65350500D01*
X105951257Y-65370185D01*
X105971899Y-65386819D01*
X106960657Y-66375577D01*
X106994142Y-66436900D01*
X106996553Y-66473495D01*
X106994358Y-66499994D01*
X106994357Y-66500002D01*
X106994357Y-66500005D01*
X107014890Y-66747812D01*
X107014892Y-66747824D01*
X107075936Y-66988881D01*
X107175826Y-67216606D01*
X107311833Y-67424782D01*
X107311836Y-67424785D01*
X107480256Y-67607738D01*
X107676491Y-67760474D01*
X107895190Y-67878828D01*
X108130386Y-67959571D01*
X108375665Y-68000500D01*
X108624335Y-68000500D01*
X108869614Y-67959571D01*
X109104810Y-67878828D01*
X109323509Y-67760474D01*
X109519744Y-67607738D01*
X109544194Y-67581177D01*
X109581626Y-67540517D01*
X109641513Y-67504526D01*
X109672855Y-67500500D01*
X113827145Y-67500500D01*
X113894184Y-67520185D01*
X113918374Y-67540517D01*
X113980252Y-67607734D01*
X113980256Y-67607738D01*
X114176491Y-67760474D01*
X114395190Y-67878828D01*
X114630386Y-67959571D01*
X114875665Y-68000500D01*
X115124335Y-68000500D01*
X115369614Y-67959571D01*
X115604810Y-67878828D01*
X115823509Y-67760474D01*
X116019744Y-67607738D01*
X116188164Y-67424785D01*
X116324173Y-67216607D01*
X116424063Y-66988881D01*
X116485108Y-66747821D01*
X116505643Y-66500000D01*
X116500414Y-66436900D01*
X116485109Y-66252187D01*
X116485107Y-66252175D01*
X116424063Y-66011118D01*
X116324173Y-65783393D01*
X116188166Y-65575217D01*
X116081625Y-65459483D01*
X116019744Y-65392262D01*
X115823509Y-65239526D01*
X115823507Y-65239525D01*
X115823506Y-65239524D01*
X115604811Y-65121172D01*
X115604802Y-65121169D01*
X115369616Y-65040429D01*
X115124335Y-64999500D01*
X114875665Y-64999500D01*
X114630383Y-65040429D01*
X114395197Y-65121169D01*
X114395188Y-65121172D01*
X114176493Y-65239524D01*
X113980255Y-65392262D01*
X113980252Y-65392265D01*
X113918374Y-65459483D01*
X113858487Y-65495474D01*
X113827145Y-65499500D01*
X109672855Y-65499500D01*
X109605816Y-65479815D01*
X109581626Y-65459483D01*
X109519747Y-65392265D01*
X109519744Y-65392262D01*
X109500499Y-65377283D01*
X109323509Y-65239526D01*
X109323507Y-65239525D01*
X109323506Y-65239524D01*
X109104811Y-65121172D01*
X109104802Y-65121169D01*
X108869616Y-65040429D01*
X108624335Y-64999500D01*
X108465782Y-64999500D01*
X108398743Y-64979815D01*
X108378101Y-64963181D01*
X107389342Y-63974422D01*
X107355857Y-63913099D01*
X107353447Y-63876499D01*
X107355643Y-63850003D01*
X107355643Y-63849995D01*
X107335109Y-63602187D01*
X107335107Y-63602175D01*
X107274063Y-63361118D01*
X107174173Y-63133393D01*
X107038166Y-62925217D01*
X107014946Y-62899994D01*
X121994357Y-62899994D01*
X121994357Y-62900005D01*
X122014890Y-63147812D01*
X122014892Y-63147824D01*
X122075936Y-63388881D01*
X122175826Y-63616606D01*
X122311833Y-63824782D01*
X122335043Y-63849995D01*
X122466730Y-63993045D01*
X122497652Y-64055698D01*
X122499500Y-64077027D01*
X122499500Y-65322971D01*
X122479815Y-65390010D01*
X122466730Y-65406953D01*
X122311836Y-65575214D01*
X122175826Y-65783393D01*
X122075936Y-66011118D01*
X122014892Y-66252175D01*
X122014890Y-66252187D01*
X121994357Y-66499994D01*
X121994357Y-66500005D01*
X122014890Y-66747812D01*
X122014892Y-66747824D01*
X122075936Y-66988881D01*
X122175826Y-67216606D01*
X122311833Y-67424782D01*
X122311836Y-67424785D01*
X122480256Y-67607738D01*
X122676491Y-67760474D01*
X122895190Y-67878828D01*
X123130386Y-67959571D01*
X123375665Y-68000500D01*
X123624335Y-68000500D01*
X123869614Y-67959571D01*
X124104810Y-67878828D01*
X124323509Y-67760474D01*
X124519744Y-67607738D01*
X124544194Y-67581177D01*
X124581626Y-67540517D01*
X124641513Y-67504526D01*
X124672855Y-67500500D01*
X128827145Y-67500500D01*
X128894184Y-67520185D01*
X128918374Y-67540517D01*
X128980252Y-67607734D01*
X128980256Y-67607738D01*
X129176491Y-67760474D01*
X129395190Y-67878828D01*
X129630386Y-67959571D01*
X129875665Y-68000500D01*
X130124335Y-68000500D01*
X130369614Y-67959571D01*
X130604810Y-67878828D01*
X130823509Y-67760474D01*
X131019744Y-67607738D01*
X131188164Y-67424785D01*
X131324173Y-67216607D01*
X131424063Y-66988881D01*
X131485108Y-66747821D01*
X131505643Y-66500000D01*
X131500414Y-66436900D01*
X131485109Y-66252187D01*
X131485107Y-66252175D01*
X131424063Y-66011118D01*
X131324173Y-65783393D01*
X131188166Y-65575217D01*
X131081625Y-65459483D01*
X131019744Y-65392262D01*
X130823509Y-65239526D01*
X130823507Y-65239525D01*
X130823506Y-65239524D01*
X130604811Y-65121172D01*
X130604802Y-65121169D01*
X130369616Y-65040429D01*
X130124335Y-64999500D01*
X129875665Y-64999500D01*
X129630383Y-65040429D01*
X129395197Y-65121169D01*
X129395188Y-65121172D01*
X129176493Y-65239524D01*
X128980255Y-65392262D01*
X128980252Y-65392265D01*
X128918374Y-65459483D01*
X128858487Y-65495474D01*
X128827145Y-65499500D01*
X124672855Y-65499500D01*
X124605816Y-65479815D01*
X124581625Y-65459483D01*
X124533270Y-65406955D01*
X124502348Y-65344300D01*
X124500500Y-65322972D01*
X124500500Y-64077027D01*
X124520185Y-64009988D01*
X124533265Y-63993049D01*
X124688164Y-63824785D01*
X124824173Y-63616607D01*
X124924063Y-63388881D01*
X124985108Y-63147821D01*
X124986304Y-63133393D01*
X125005643Y-62900005D01*
X125005643Y-62899994D01*
X124985109Y-62652187D01*
X124985107Y-62652175D01*
X124924063Y-62411118D01*
X124824173Y-62183393D01*
X124688166Y-61975217D01*
X124666557Y-61951744D01*
X124519744Y-61792262D01*
X124323509Y-61639526D01*
X124323507Y-61639525D01*
X124323506Y-61639524D01*
X124104811Y-61521172D01*
X124104802Y-61521169D01*
X123869616Y-61440429D01*
X123624335Y-61399500D01*
X123375665Y-61399500D01*
X123130383Y-61440429D01*
X122895197Y-61521169D01*
X122895188Y-61521172D01*
X122676493Y-61639524D01*
X122480257Y-61792261D01*
X122311833Y-61975217D01*
X122175826Y-62183393D01*
X122075936Y-62411118D01*
X122014892Y-62652175D01*
X122014890Y-62652187D01*
X121994357Y-62899994D01*
X107014946Y-62899994D01*
X106869744Y-62742262D01*
X106673509Y-62589526D01*
X106673507Y-62589525D01*
X106673506Y-62589524D01*
X106454811Y-62471172D01*
X106454802Y-62471169D01*
X106219616Y-62390429D01*
X105974335Y-62349500D01*
X105725665Y-62349500D01*
X105480383Y-62390429D01*
X105245197Y-62471169D01*
X105245188Y-62471172D01*
X105026493Y-62589524D01*
X104830257Y-62742261D01*
X104661833Y-62925217D01*
X104525826Y-63133393D01*
X104425936Y-63361118D01*
X104364892Y-63602175D01*
X104364890Y-63602187D01*
X104344357Y-63849994D01*
X90200500Y-63849994D01*
X90200500Y-57899998D01*
X133034532Y-57899998D01*
X133034532Y-57900001D01*
X133054364Y-58126686D01*
X133054366Y-58126697D01*
X133113258Y-58346488D01*
X133113261Y-58346497D01*
X133209431Y-58552732D01*
X133209432Y-58552734D01*
X133339954Y-58739141D01*
X133500858Y-58900045D01*
X133543903Y-58930185D01*
X133687266Y-59030568D01*
X133893504Y-59126739D01*
X134113308Y-59185635D01*
X134275230Y-59199801D01*
X134339998Y-59205468D01*
X134340000Y-59205468D01*
X134340002Y-59205468D01*
X134396673Y-59200509D01*
X134566692Y-59185635D01*
X134786496Y-59126739D01*
X134992734Y-59030568D01*
X135132184Y-58932924D01*
X135198389Y-58910598D01*
X135203306Y-58910500D01*
X136922412Y-58910500D01*
X136989451Y-58930185D01*
X136993523Y-58932917D01*
X137147266Y-59040568D01*
X137353504Y-59136739D01*
X137573308Y-59195635D01*
X137735230Y-59209801D01*
X137799998Y-59215468D01*
X137800000Y-59215468D01*
X137800002Y-59215468D01*
X137856673Y-59210509D01*
X138026692Y-59195635D01*
X138246496Y-59136739D01*
X138452734Y-59040568D01*
X138639139Y-58910047D01*
X138649141Y-58900045D01*
X138662368Y-58886819D01*
X138723691Y-58853334D01*
X138750049Y-58850500D01*
X140027145Y-58850500D01*
X140094184Y-58870185D01*
X140118374Y-58890517D01*
X140157414Y-58932925D01*
X140180256Y-58957738D01*
X140376491Y-59110474D01*
X140425028Y-59136741D01*
X140552024Y-59205468D01*
X140595190Y-59228828D01*
X140830386Y-59309571D01*
X141075665Y-59350500D01*
X141324335Y-59350500D01*
X141569614Y-59309571D01*
X141804810Y-59228828D01*
X142023509Y-59110474D01*
X142219744Y-58957738D01*
X142388164Y-58774785D01*
X142524173Y-58566607D01*
X142624063Y-58338881D01*
X142685108Y-58097821D01*
X142705643Y-57850000D01*
X142691002Y-57673313D01*
X142685109Y-57602187D01*
X142685107Y-57602175D01*
X142624063Y-57361118D01*
X142524173Y-57133393D01*
X142388166Y-56925217D01*
X142337226Y-56869882D01*
X142219744Y-56742262D01*
X142023509Y-56589526D01*
X142023507Y-56589525D01*
X142023506Y-56589524D01*
X141804811Y-56471172D01*
X141804802Y-56471169D01*
X141569616Y-56390429D01*
X141324335Y-56349500D01*
X141075665Y-56349500D01*
X140830383Y-56390429D01*
X140595197Y-56471169D01*
X140595188Y-56471172D01*
X140376493Y-56589524D01*
X140180255Y-56742262D01*
X140180252Y-56742265D01*
X140118374Y-56809483D01*
X140058487Y-56845474D01*
X140027145Y-56849500D01*
X138591898Y-56849500D01*
X138524859Y-56829815D01*
X138520789Y-56827084D01*
X138452734Y-56779432D01*
X138452733Y-56779431D01*
X138452731Y-56779430D01*
X138452732Y-56779430D01*
X138315242Y-56715318D01*
X138246496Y-56683261D01*
X138246492Y-56683260D01*
X138246488Y-56683258D01*
X138026697Y-56624366D01*
X138026693Y-56624365D01*
X138026692Y-56624365D01*
X138026691Y-56624364D01*
X138026686Y-56624364D01*
X137800002Y-56604532D01*
X137799998Y-56604532D01*
X137573313Y-56624364D01*
X137573302Y-56624366D01*
X137353511Y-56683258D01*
X137353502Y-56683261D01*
X137147267Y-56779431D01*
X137147265Y-56779432D01*
X136993535Y-56887075D01*
X136927329Y-56909402D01*
X136922412Y-56909500D01*
X135231871Y-56909500D01*
X135164832Y-56889815D01*
X135160748Y-56887075D01*
X134992734Y-56769432D01*
X134992732Y-56769431D01*
X134786497Y-56673261D01*
X134786488Y-56673258D01*
X134566697Y-56614366D01*
X134566693Y-56614365D01*
X134566692Y-56614365D01*
X134566691Y-56614364D01*
X134566686Y-56614364D01*
X134340002Y-56594532D01*
X134339998Y-56594532D01*
X134113313Y-56614364D01*
X134113302Y-56614366D01*
X133893511Y-56673258D01*
X133893502Y-56673261D01*
X133687267Y-56769431D01*
X133687265Y-56769432D01*
X133500858Y-56899954D01*
X133339954Y-57060858D01*
X133209432Y-57247265D01*
X133209431Y-57247267D01*
X133113261Y-57453502D01*
X133113258Y-57453511D01*
X133054366Y-57673302D01*
X133054364Y-57673313D01*
X133034532Y-57899998D01*
X90200500Y-57899998D01*
X90200500Y-55202155D01*
X92750000Y-55202155D01*
X92750000Y-55750000D01*
X93509252Y-55750000D01*
X93487482Y-55787708D01*
X93450000Y-55927591D01*
X93450000Y-56072409D01*
X93487482Y-56212292D01*
X93509252Y-56250000D01*
X92750000Y-56250000D01*
X92750000Y-56797844D01*
X92756401Y-56857372D01*
X92756403Y-56857379D01*
X92806645Y-56992086D01*
X92806649Y-56992093D01*
X92892809Y-57107187D01*
X92892812Y-57107190D01*
X93007906Y-57193350D01*
X93007913Y-57193354D01*
X93142620Y-57243596D01*
X93142627Y-57243598D01*
X93202155Y-57249999D01*
X93202172Y-57250000D01*
X93750000Y-57250000D01*
X93750000Y-56490747D01*
X93787708Y-56512518D01*
X93927591Y-56550000D01*
X94072409Y-56550000D01*
X94212292Y-56512518D01*
X94250000Y-56490747D01*
X94250000Y-57250000D01*
X94797828Y-57250000D01*
X94797844Y-57249999D01*
X94857372Y-57243598D01*
X94857379Y-57243596D01*
X94992086Y-57193354D01*
X94992093Y-57193350D01*
X95107187Y-57107190D01*
X95107190Y-57107187D01*
X95193350Y-56992093D01*
X95193354Y-56992086D01*
X95243596Y-56857379D01*
X95243598Y-56857372D01*
X95249999Y-56797844D01*
X95250000Y-56797827D01*
X95250000Y-56250000D01*
X94490748Y-56250000D01*
X94512518Y-56212292D01*
X94550000Y-56072409D01*
X94550000Y-55999994D01*
X106994859Y-55999994D01*
X106994859Y-56000005D01*
X107015385Y-56247729D01*
X107015387Y-56247738D01*
X107076412Y-56488717D01*
X107176266Y-56716364D01*
X107276564Y-56869882D01*
X107976212Y-56170234D01*
X107987482Y-56212292D01*
X108059890Y-56337708D01*
X108162292Y-56440110D01*
X108287708Y-56512518D01*
X108329765Y-56523787D01*
X107629942Y-57223609D01*
X107676768Y-57260055D01*
X107676770Y-57260056D01*
X107895385Y-57378364D01*
X107895396Y-57378369D01*
X108130506Y-57459083D01*
X108375707Y-57500000D01*
X108624293Y-57500000D01*
X108869493Y-57459083D01*
X109104603Y-57378369D01*
X109104614Y-57378364D01*
X109323228Y-57260057D01*
X109323231Y-57260055D01*
X109370056Y-57223609D01*
X108670234Y-56523787D01*
X108712292Y-56512518D01*
X108837708Y-56440110D01*
X108940110Y-56337708D01*
X109012518Y-56212292D01*
X109023787Y-56170235D01*
X109723434Y-56869882D01*
X109823731Y-56716369D01*
X109923587Y-56488717D01*
X109984612Y-56247738D01*
X109984614Y-56247729D01*
X110005141Y-56000005D01*
X110005141Y-55999994D01*
X113494859Y-55999994D01*
X113494859Y-56000005D01*
X113515385Y-56247729D01*
X113515387Y-56247738D01*
X113576412Y-56488717D01*
X113676266Y-56716364D01*
X113776564Y-56869882D01*
X114476212Y-56170234D01*
X114487482Y-56212292D01*
X114559890Y-56337708D01*
X114662292Y-56440110D01*
X114787708Y-56512518D01*
X114829765Y-56523787D01*
X114129942Y-57223609D01*
X114176768Y-57260055D01*
X114176770Y-57260056D01*
X114395385Y-57378364D01*
X114395396Y-57378369D01*
X114630506Y-57459083D01*
X114875707Y-57500000D01*
X115124293Y-57500000D01*
X115369493Y-57459083D01*
X115604603Y-57378369D01*
X115604614Y-57378364D01*
X115823228Y-57260057D01*
X115823231Y-57260055D01*
X115870056Y-57223609D01*
X115170234Y-56523787D01*
X115212292Y-56512518D01*
X115337708Y-56440110D01*
X115440110Y-56337708D01*
X115512518Y-56212292D01*
X115523787Y-56170235D01*
X116223434Y-56869882D01*
X116323731Y-56716369D01*
X116423587Y-56488717D01*
X116484612Y-56247738D01*
X116484614Y-56247729D01*
X116505141Y-56000005D01*
X116505141Y-55999994D01*
X121994859Y-55999994D01*
X121994859Y-56000005D01*
X122015385Y-56247729D01*
X122015387Y-56247738D01*
X122076412Y-56488717D01*
X122176266Y-56716364D01*
X122276564Y-56869882D01*
X122976212Y-56170234D01*
X122987482Y-56212292D01*
X123059890Y-56337708D01*
X123162292Y-56440110D01*
X123287708Y-56512518D01*
X123329765Y-56523787D01*
X122629942Y-57223609D01*
X122676768Y-57260055D01*
X122676770Y-57260056D01*
X122895385Y-57378364D01*
X122895396Y-57378369D01*
X123130506Y-57459083D01*
X123375707Y-57500000D01*
X123624293Y-57500000D01*
X123869493Y-57459083D01*
X124104603Y-57378369D01*
X124104614Y-57378364D01*
X124323228Y-57260057D01*
X124323231Y-57260055D01*
X124370056Y-57223609D01*
X123670234Y-56523787D01*
X123712292Y-56512518D01*
X123837708Y-56440110D01*
X123940110Y-56337708D01*
X124012518Y-56212292D01*
X124023787Y-56170235D01*
X124723434Y-56869882D01*
X124823731Y-56716369D01*
X124923587Y-56488717D01*
X124984612Y-56247738D01*
X124984614Y-56247729D01*
X125005141Y-56000005D01*
X125005141Y-55999994D01*
X128494859Y-55999994D01*
X128494859Y-56000005D01*
X128515385Y-56247729D01*
X128515387Y-56247738D01*
X128576412Y-56488717D01*
X128676266Y-56716364D01*
X128776564Y-56869882D01*
X129476212Y-56170234D01*
X129487482Y-56212292D01*
X129559890Y-56337708D01*
X129662292Y-56440110D01*
X129787708Y-56512518D01*
X129829765Y-56523787D01*
X129129942Y-57223609D01*
X129176768Y-57260055D01*
X129176770Y-57260056D01*
X129395385Y-57378364D01*
X129395396Y-57378369D01*
X129630506Y-57459083D01*
X129875707Y-57500000D01*
X130124293Y-57500000D01*
X130369493Y-57459083D01*
X130604603Y-57378369D01*
X130604614Y-57378364D01*
X130823228Y-57260057D01*
X130823231Y-57260055D01*
X130870056Y-57223609D01*
X130170234Y-56523787D01*
X130212292Y-56512518D01*
X130337708Y-56440110D01*
X130440110Y-56337708D01*
X130512518Y-56212292D01*
X130523787Y-56170235D01*
X131223434Y-56869882D01*
X131323731Y-56716369D01*
X131423587Y-56488717D01*
X131484612Y-56247738D01*
X131484614Y-56247729D01*
X131505141Y-56000005D01*
X131505141Y-55999994D01*
X131484614Y-55752270D01*
X131484612Y-55752261D01*
X131423587Y-55511282D01*
X131323731Y-55283630D01*
X131223434Y-55130116D01*
X130523787Y-55829764D01*
X130512518Y-55787708D01*
X130440110Y-55662292D01*
X130337708Y-55559890D01*
X130212292Y-55487482D01*
X130170235Y-55476212D01*
X130870057Y-54776390D01*
X130870056Y-54776389D01*
X130823229Y-54739943D01*
X130604614Y-54621635D01*
X130604603Y-54621630D01*
X130369493Y-54540916D01*
X130124293Y-54500000D01*
X129875707Y-54500000D01*
X129630506Y-54540916D01*
X129395396Y-54621630D01*
X129395390Y-54621632D01*
X129176761Y-54739949D01*
X129129942Y-54776388D01*
X129129942Y-54776390D01*
X129829765Y-55476212D01*
X129787708Y-55487482D01*
X129662292Y-55559890D01*
X129559890Y-55662292D01*
X129487482Y-55787708D01*
X129476212Y-55829764D01*
X128776564Y-55130116D01*
X128676267Y-55283632D01*
X128576412Y-55511282D01*
X128515387Y-55752261D01*
X128515385Y-55752270D01*
X128494859Y-55999994D01*
X125005141Y-55999994D01*
X124984614Y-55752270D01*
X124984612Y-55752261D01*
X124923587Y-55511282D01*
X124823731Y-55283630D01*
X124723434Y-55130116D01*
X124023787Y-55829764D01*
X124012518Y-55787708D01*
X123940110Y-55662292D01*
X123837708Y-55559890D01*
X123712292Y-55487482D01*
X123670235Y-55476212D01*
X124370057Y-54776390D01*
X124370056Y-54776389D01*
X124323229Y-54739943D01*
X124104614Y-54621635D01*
X124104603Y-54621630D01*
X123869493Y-54540916D01*
X123624293Y-54500000D01*
X123375707Y-54500000D01*
X123130506Y-54540916D01*
X122895396Y-54621630D01*
X122895390Y-54621632D01*
X122676761Y-54739949D01*
X122629942Y-54776388D01*
X122629942Y-54776390D01*
X123329765Y-55476212D01*
X123287708Y-55487482D01*
X123162292Y-55559890D01*
X123059890Y-55662292D01*
X122987482Y-55787708D01*
X122976212Y-55829764D01*
X122276564Y-55130116D01*
X122176267Y-55283632D01*
X122076412Y-55511282D01*
X122015387Y-55752261D01*
X122015385Y-55752270D01*
X121994859Y-55999994D01*
X116505141Y-55999994D01*
X116484614Y-55752270D01*
X116484612Y-55752261D01*
X116423587Y-55511282D01*
X116323731Y-55283630D01*
X116223434Y-55130116D01*
X115523787Y-55829764D01*
X115512518Y-55787708D01*
X115440110Y-55662292D01*
X115337708Y-55559890D01*
X115212292Y-55487482D01*
X115170235Y-55476212D01*
X115870057Y-54776390D01*
X115870056Y-54776389D01*
X115823229Y-54739943D01*
X115604614Y-54621635D01*
X115604603Y-54621630D01*
X115369493Y-54540916D01*
X115124293Y-54500000D01*
X114875707Y-54500000D01*
X114630506Y-54540916D01*
X114395396Y-54621630D01*
X114395390Y-54621632D01*
X114176761Y-54739949D01*
X114129942Y-54776388D01*
X114129942Y-54776390D01*
X114829765Y-55476212D01*
X114787708Y-55487482D01*
X114662292Y-55559890D01*
X114559890Y-55662292D01*
X114487482Y-55787708D01*
X114476212Y-55829764D01*
X113776564Y-55130116D01*
X113676267Y-55283632D01*
X113576412Y-55511282D01*
X113515387Y-55752261D01*
X113515385Y-55752270D01*
X113494859Y-55999994D01*
X110005141Y-55999994D01*
X109984614Y-55752270D01*
X109984612Y-55752261D01*
X109923587Y-55511282D01*
X109823731Y-55283630D01*
X109723434Y-55130116D01*
X109023787Y-55829764D01*
X109012518Y-55787708D01*
X108940110Y-55662292D01*
X108837708Y-55559890D01*
X108712292Y-55487482D01*
X108670235Y-55476212D01*
X109370057Y-54776390D01*
X109370056Y-54776389D01*
X109323229Y-54739943D01*
X109104614Y-54621635D01*
X109104603Y-54621630D01*
X108869493Y-54540916D01*
X108624293Y-54500000D01*
X108375707Y-54500000D01*
X108130506Y-54540916D01*
X107895396Y-54621630D01*
X107895390Y-54621632D01*
X107676761Y-54739949D01*
X107629942Y-54776388D01*
X107629942Y-54776390D01*
X108329765Y-55476212D01*
X108287708Y-55487482D01*
X108162292Y-55559890D01*
X108059890Y-55662292D01*
X107987482Y-55787708D01*
X107976212Y-55829764D01*
X107276564Y-55130116D01*
X107176267Y-55283632D01*
X107076412Y-55511282D01*
X107015387Y-55752261D01*
X107015385Y-55752270D01*
X106994859Y-55999994D01*
X94550000Y-55999994D01*
X94550000Y-55927591D01*
X94512518Y-55787708D01*
X94490748Y-55750000D01*
X95250000Y-55750000D01*
X95250000Y-55202172D01*
X95249999Y-55202155D01*
X95243598Y-55142627D01*
X95243596Y-55142620D01*
X95193354Y-55007913D01*
X95193350Y-55007906D01*
X95107190Y-54892812D01*
X95107187Y-54892809D01*
X94992093Y-54806649D01*
X94992086Y-54806645D01*
X94857379Y-54756403D01*
X94857372Y-54756401D01*
X94797844Y-54750000D01*
X94250000Y-54750000D01*
X94250000Y-55509252D01*
X94212292Y-55487482D01*
X94072409Y-55450000D01*
X93927591Y-55450000D01*
X93787708Y-55487482D01*
X93750000Y-55509252D01*
X93750000Y-54750000D01*
X93202155Y-54750000D01*
X93142627Y-54756401D01*
X93142620Y-54756403D01*
X93007913Y-54806645D01*
X93007906Y-54806649D01*
X92892812Y-54892809D01*
X92892809Y-54892812D01*
X92806649Y-55007906D01*
X92806645Y-55007913D01*
X92756403Y-55142620D01*
X92756401Y-55142627D01*
X92750000Y-55202155D01*
X90200500Y-55202155D01*
X90200500Y-51000000D01*
X92744723Y-51000000D01*
X92758271Y-51154864D01*
X92763793Y-51217975D01*
X92763793Y-51217979D01*
X92820422Y-51429322D01*
X92820424Y-51429326D01*
X92820425Y-51429330D01*
X92861185Y-51516741D01*
X92912897Y-51627638D01*
X92912898Y-51627639D01*
X93038402Y-51806877D01*
X93193123Y-51961598D01*
X93372361Y-52087102D01*
X93570670Y-52179575D01*
X93782023Y-52236207D01*
X93964926Y-52252208D01*
X93999998Y-52255277D01*
X94000000Y-52255277D01*
X94000002Y-52255277D01*
X94028254Y-52252805D01*
X94217977Y-52236207D01*
X94429330Y-52179575D01*
X94627639Y-52087102D01*
X94806877Y-51961598D01*
X94961598Y-51806877D01*
X95087102Y-51627639D01*
X95146624Y-51499994D01*
X106994357Y-51499994D01*
X106994357Y-51500005D01*
X107014890Y-51747812D01*
X107014892Y-51747824D01*
X107075936Y-51988881D01*
X107175826Y-52216606D01*
X107311833Y-52424782D01*
X107311836Y-52424785D01*
X107480256Y-52607738D01*
X107676491Y-52760474D01*
X107895190Y-52878828D01*
X108130386Y-52959571D01*
X108375665Y-53000500D01*
X108624335Y-53000500D01*
X108869614Y-52959571D01*
X109104810Y-52878828D01*
X109323509Y-52760474D01*
X109519744Y-52607738D01*
X109544194Y-52581177D01*
X109581626Y-52540517D01*
X109641513Y-52504526D01*
X109672855Y-52500500D01*
X110198542Y-52500500D01*
X110217870Y-52496655D01*
X110295188Y-52481275D01*
X110391836Y-52462051D01*
X110445165Y-52439961D01*
X110573914Y-52386632D01*
X110737782Y-52277139D01*
X110877139Y-52137782D01*
X110877140Y-52137779D01*
X110884206Y-52130714D01*
X110884208Y-52130710D01*
X112462322Y-50552597D01*
X112523641Y-50519115D01*
X112593333Y-50524099D01*
X112637680Y-50552600D01*
X113460657Y-51375577D01*
X113494142Y-51436900D01*
X113496553Y-51473495D01*
X113494358Y-51499994D01*
X113494357Y-51500002D01*
X113494357Y-51500005D01*
X113514890Y-51747812D01*
X113514892Y-51747824D01*
X113575936Y-51988881D01*
X113675826Y-52216606D01*
X113811833Y-52424782D01*
X113811836Y-52424785D01*
X113980256Y-52607738D01*
X114176491Y-52760474D01*
X114395190Y-52878828D01*
X114630386Y-52959571D01*
X114875665Y-53000500D01*
X115124335Y-53000500D01*
X115369614Y-52959571D01*
X115604810Y-52878828D01*
X115823509Y-52760474D01*
X116019744Y-52607738D01*
X116188164Y-52424785D01*
X116324173Y-52216607D01*
X116424063Y-51988881D01*
X116485108Y-51747821D01*
X116495067Y-51627638D01*
X116505643Y-51500005D01*
X116505643Y-51499994D01*
X116485109Y-51252187D01*
X116485107Y-51252175D01*
X116424063Y-51011118D01*
X116324173Y-50783393D01*
X116188166Y-50575217D01*
X116134284Y-50516686D01*
X116019744Y-50392262D01*
X115823509Y-50239526D01*
X115823507Y-50239525D01*
X115823506Y-50239524D01*
X115604811Y-50121172D01*
X115604802Y-50121169D01*
X115369616Y-50040429D01*
X115124335Y-49999500D01*
X114965782Y-49999500D01*
X114898743Y-49979815D01*
X114878101Y-49963181D01*
X113586819Y-48671899D01*
X113553334Y-48610576D01*
X113550500Y-48584218D01*
X113550500Y-48527027D01*
X113570185Y-48459988D01*
X113583265Y-48443049D01*
X113738164Y-48274785D01*
X113874173Y-48066607D01*
X113881460Y-48049994D01*
X121994357Y-48049994D01*
X121994357Y-48050005D01*
X122014890Y-48297812D01*
X122014892Y-48297824D01*
X122075936Y-48538881D01*
X122175826Y-48766606D01*
X122311833Y-48974782D01*
X122311836Y-48974785D01*
X122466730Y-49143045D01*
X122497652Y-49205698D01*
X122499500Y-49227027D01*
X122499500Y-50322971D01*
X122479815Y-50390010D01*
X122466730Y-50406953D01*
X122311836Y-50575214D01*
X122175826Y-50783393D01*
X122075936Y-51011118D01*
X122014892Y-51252175D01*
X122014890Y-51252187D01*
X121994357Y-51499994D01*
X121994357Y-51500005D01*
X122014890Y-51747812D01*
X122014892Y-51747824D01*
X122075936Y-51988881D01*
X122175826Y-52216606D01*
X122311833Y-52424782D01*
X122311836Y-52424785D01*
X122480256Y-52607738D01*
X122676491Y-52760474D01*
X122895190Y-52878828D01*
X123130386Y-52959571D01*
X123375665Y-53000500D01*
X123624335Y-53000500D01*
X123869614Y-52959571D01*
X124104810Y-52878828D01*
X124323509Y-52760474D01*
X124519744Y-52607738D01*
X124544194Y-52581177D01*
X124581626Y-52540517D01*
X124641513Y-52504526D01*
X124672855Y-52500500D01*
X128827145Y-52500500D01*
X128894184Y-52520185D01*
X128918374Y-52540517D01*
X128980252Y-52607734D01*
X128980256Y-52607738D01*
X129176491Y-52760474D01*
X129395190Y-52878828D01*
X129630386Y-52959571D01*
X129875665Y-53000500D01*
X130124335Y-53000500D01*
X130369614Y-52959571D01*
X130604810Y-52878828D01*
X130823509Y-52760474D01*
X131019744Y-52607738D01*
X131188164Y-52424785D01*
X131324173Y-52216607D01*
X131424063Y-51988881D01*
X131485108Y-51747821D01*
X131495067Y-51627638D01*
X131505643Y-51500005D01*
X131505643Y-51499994D01*
X131485109Y-51252187D01*
X131485107Y-51252175D01*
X131424063Y-51011118D01*
X131324173Y-50783393D01*
X131188166Y-50575217D01*
X131134284Y-50516686D01*
X131019744Y-50392262D01*
X130823509Y-50239526D01*
X130823507Y-50239525D01*
X130823506Y-50239524D01*
X130604811Y-50121172D01*
X130604802Y-50121169D01*
X130369616Y-50040429D01*
X130124335Y-49999500D01*
X129875665Y-49999500D01*
X129630383Y-50040429D01*
X129395197Y-50121169D01*
X129395188Y-50121172D01*
X129176493Y-50239524D01*
X128980255Y-50392262D01*
X128980252Y-50392265D01*
X128918374Y-50459483D01*
X128858487Y-50495474D01*
X128827145Y-50499500D01*
X124672855Y-50499500D01*
X124605816Y-50479815D01*
X124581625Y-50459483D01*
X124533270Y-50406955D01*
X124502348Y-50344300D01*
X124500500Y-50322972D01*
X124500500Y-49227027D01*
X124520185Y-49159988D01*
X124533265Y-49143049D01*
X124688164Y-48974785D01*
X124824173Y-48766607D01*
X124924063Y-48538881D01*
X124985108Y-48297821D01*
X124987017Y-48274782D01*
X125005643Y-48050005D01*
X125005643Y-48049994D01*
X124985109Y-47802187D01*
X124985107Y-47802175D01*
X124924063Y-47561118D01*
X124824173Y-47333393D01*
X124688166Y-47125217D01*
X124662938Y-47097812D01*
X124519744Y-46942262D01*
X124323509Y-46789526D01*
X124323507Y-46789525D01*
X124323506Y-46789524D01*
X124158069Y-46699994D01*
X132794357Y-46699994D01*
X132794357Y-46700005D01*
X132814890Y-46947812D01*
X132814892Y-46947824D01*
X132875936Y-47188881D01*
X132975826Y-47416606D01*
X133111833Y-47624782D01*
X133111836Y-47624785D01*
X133266730Y-47793045D01*
X133297652Y-47855698D01*
X133299500Y-47877027D01*
X133299500Y-49459537D01*
X133279815Y-49526576D01*
X133277076Y-49530659D01*
X133209431Y-49627267D01*
X133113261Y-49833502D01*
X133113258Y-49833511D01*
X133054366Y-50053302D01*
X133054364Y-50053313D01*
X133034532Y-50279998D01*
X133034532Y-50280001D01*
X133054364Y-50506686D01*
X133054366Y-50506697D01*
X133113258Y-50726488D01*
X133113261Y-50726497D01*
X133209431Y-50932732D01*
X133209432Y-50932734D01*
X133339954Y-51119141D01*
X133500858Y-51280045D01*
X133500861Y-51280047D01*
X133687266Y-51410568D01*
X133893504Y-51506739D01*
X134113308Y-51565635D01*
X134275230Y-51579801D01*
X134339998Y-51585468D01*
X134340000Y-51585468D01*
X134340002Y-51585468D01*
X134396673Y-51580509D01*
X134566692Y-51565635D01*
X134786496Y-51506739D01*
X134992734Y-51410568D01*
X135179139Y-51280047D01*
X135340047Y-51119139D01*
X135470568Y-50932734D01*
X135566739Y-50726496D01*
X135625635Y-50506692D01*
X135645468Y-50280000D01*
X135625635Y-50053308D01*
X135569420Y-49843511D01*
X135566741Y-49833511D01*
X135566738Y-49833502D01*
X135470568Y-49627266D01*
X135340047Y-49440861D01*
X135340045Y-49440858D01*
X135336819Y-49437632D01*
X135303334Y-49376309D01*
X135300500Y-49349951D01*
X135300500Y-47877027D01*
X135320185Y-47809988D01*
X135333265Y-47793049D01*
X135488164Y-47624785D01*
X135624173Y-47416607D01*
X135724063Y-47188881D01*
X135785108Y-46947821D01*
X135785569Y-46942261D01*
X135793214Y-46849994D01*
X136294357Y-46849994D01*
X136294357Y-46850005D01*
X136314890Y-47097812D01*
X136314892Y-47097824D01*
X136375936Y-47338881D01*
X136475826Y-47566606D01*
X136611833Y-47774782D01*
X136637050Y-47802175D01*
X136766730Y-47943045D01*
X136797652Y-48005698D01*
X136799500Y-48027027D01*
X136799500Y-49412410D01*
X136779815Y-49479449D01*
X136777076Y-49483532D01*
X136669431Y-49637267D01*
X136573261Y-49843502D01*
X136573258Y-49843511D01*
X136514366Y-50063302D01*
X136514364Y-50063313D01*
X136494532Y-50289998D01*
X136494532Y-50290001D01*
X136514364Y-50516686D01*
X136514366Y-50516697D01*
X136573258Y-50736488D01*
X136573261Y-50736497D01*
X136669431Y-50942732D01*
X136669432Y-50942734D01*
X136799954Y-51129141D01*
X136960858Y-51290045D01*
X136960861Y-51290047D01*
X137147266Y-51420568D01*
X137353504Y-51516739D01*
X137573308Y-51575635D01*
X137735230Y-51589801D01*
X137799998Y-51595468D01*
X137800000Y-51595468D01*
X137800002Y-51595468D01*
X137856673Y-51590509D01*
X138026692Y-51575635D01*
X138246496Y-51516739D01*
X138452734Y-51420568D01*
X138639139Y-51290047D01*
X138800047Y-51129139D01*
X138930568Y-50942734D01*
X139026739Y-50736496D01*
X139085635Y-50516692D01*
X139105468Y-50290000D01*
X139085635Y-50063308D01*
X139026739Y-49843504D01*
X138930568Y-49637266D01*
X138822924Y-49483532D01*
X138800597Y-49417326D01*
X138800500Y-49412410D01*
X138800500Y-48027027D01*
X138820185Y-47959988D01*
X138833265Y-47943049D01*
X138988164Y-47774785D01*
X139124173Y-47566607D01*
X139224063Y-47338881D01*
X139285108Y-47097821D01*
X139297537Y-46947824D01*
X139305643Y-46850005D01*
X139305643Y-46849994D01*
X139285109Y-46602187D01*
X139285107Y-46602175D01*
X139224063Y-46361118D01*
X139124173Y-46133393D01*
X138988166Y-45925217D01*
X138856347Y-45782024D01*
X138819744Y-45742262D01*
X138623509Y-45589526D01*
X138623507Y-45589525D01*
X138623506Y-45589524D01*
X138404811Y-45471172D01*
X138404802Y-45471169D01*
X138169616Y-45390429D01*
X137924335Y-45349500D01*
X137675665Y-45349500D01*
X137430383Y-45390429D01*
X137195197Y-45471169D01*
X137195188Y-45471172D01*
X136976493Y-45589524D01*
X136780257Y-45742261D01*
X136611833Y-45925217D01*
X136475826Y-46133393D01*
X136375936Y-46361118D01*
X136314892Y-46602175D01*
X136314890Y-46602187D01*
X136294357Y-46849994D01*
X135793214Y-46849994D01*
X135805643Y-46700005D01*
X135805643Y-46699994D01*
X135785109Y-46452187D01*
X135785107Y-46452175D01*
X135724063Y-46211118D01*
X135624173Y-45983393D01*
X135488166Y-45775217D01*
X135457828Y-45742261D01*
X135319744Y-45592262D01*
X135123509Y-45439526D01*
X135123507Y-45439525D01*
X135123506Y-45439524D01*
X134904811Y-45321172D01*
X134904802Y-45321169D01*
X134669616Y-45240429D01*
X134424335Y-45199500D01*
X134175665Y-45199500D01*
X133930383Y-45240429D01*
X133695197Y-45321169D01*
X133695188Y-45321172D01*
X133476493Y-45439524D01*
X133280257Y-45592261D01*
X133111833Y-45775217D01*
X132975826Y-45983393D01*
X132875936Y-46211118D01*
X132814892Y-46452175D01*
X132814890Y-46452187D01*
X132794357Y-46699994D01*
X124158069Y-46699994D01*
X124104811Y-46671172D01*
X124104802Y-46671169D01*
X123869616Y-46590429D01*
X123624335Y-46549500D01*
X123375665Y-46549500D01*
X123130383Y-46590429D01*
X122895197Y-46671169D01*
X122895188Y-46671172D01*
X122676493Y-46789524D01*
X122480257Y-46942261D01*
X122311833Y-47125217D01*
X122175826Y-47333393D01*
X122075936Y-47561118D01*
X122014892Y-47802175D01*
X122014890Y-47802187D01*
X121994357Y-48049994D01*
X113881460Y-48049994D01*
X113974063Y-47838881D01*
X114035108Y-47597821D01*
X114035109Y-47597812D01*
X114055643Y-47350005D01*
X114055643Y-47349994D01*
X114035109Y-47102187D01*
X114035107Y-47102175D01*
X113974063Y-46861118D01*
X113874173Y-46633393D01*
X113738166Y-46425217D01*
X113716557Y-46401744D01*
X113569744Y-46242262D01*
X113373509Y-46089526D01*
X113373507Y-46089525D01*
X113373506Y-46089524D01*
X113154811Y-45971172D01*
X113154802Y-45971169D01*
X112919616Y-45890429D01*
X112674335Y-45849500D01*
X112425665Y-45849500D01*
X112180383Y-45890429D01*
X111945197Y-45971169D01*
X111945188Y-45971172D01*
X111726493Y-46089524D01*
X111530257Y-46242261D01*
X111361833Y-46425217D01*
X111225826Y-46633393D01*
X111125936Y-46861118D01*
X111064892Y-47102175D01*
X111064890Y-47102187D01*
X111044357Y-47349994D01*
X111044357Y-47350005D01*
X111064890Y-47597812D01*
X111064892Y-47597824D01*
X111125936Y-47838881D01*
X111225826Y-48066606D01*
X111361833Y-48274782D01*
X111361836Y-48274785D01*
X111516730Y-48443045D01*
X111547652Y-48505698D01*
X111549500Y-48527027D01*
X111549500Y-48584218D01*
X111529815Y-48651257D01*
X111513181Y-48671899D01*
X109742016Y-50443063D01*
X109680693Y-50476548D01*
X109611001Y-50471564D01*
X109563106Y-50439365D01*
X109519747Y-50392265D01*
X109519744Y-50392262D01*
X109500499Y-50377283D01*
X109323509Y-50239526D01*
X109323507Y-50239525D01*
X109323506Y-50239524D01*
X109104811Y-50121172D01*
X109104802Y-50121169D01*
X108869616Y-50040429D01*
X108624335Y-49999500D01*
X108375665Y-49999500D01*
X108130383Y-50040429D01*
X107895197Y-50121169D01*
X107895188Y-50121172D01*
X107676493Y-50239524D01*
X107480257Y-50392261D01*
X107311833Y-50575217D01*
X107175826Y-50783393D01*
X107075936Y-51011118D01*
X107014892Y-51252175D01*
X107014890Y-51252187D01*
X106994357Y-51499994D01*
X95146624Y-51499994D01*
X95179575Y-51429330D01*
X95236207Y-51217977D01*
X95236207Y-51217969D01*
X95237146Y-51212649D01*
X95238771Y-51212935D01*
X95261470Y-51154864D01*
X95271876Y-51143042D01*
X96320948Y-50093971D01*
X96382269Y-50060488D01*
X96429037Y-50059345D01*
X96430380Y-50059569D01*
X96430386Y-50059571D01*
X96675665Y-50100500D01*
X96675666Y-50100500D01*
X96924335Y-50100500D01*
X97169614Y-50059571D01*
X97404810Y-49978828D01*
X97623509Y-49860474D01*
X97819744Y-49707738D01*
X97988164Y-49524785D01*
X98124173Y-49316607D01*
X98224063Y-49088881D01*
X98285108Y-48847821D01*
X98291838Y-48766606D01*
X98305643Y-48600005D01*
X98305643Y-48599994D01*
X98285109Y-48352187D01*
X98285107Y-48352175D01*
X98224063Y-48111118D01*
X98124173Y-47883393D01*
X97988166Y-47675217D01*
X97941737Y-47624782D01*
X97819744Y-47492262D01*
X97623509Y-47339526D01*
X97623507Y-47339525D01*
X97623506Y-47339524D01*
X97404811Y-47221172D01*
X97404802Y-47221169D01*
X97169616Y-47140429D01*
X96924335Y-47099500D01*
X96675665Y-47099500D01*
X96430383Y-47140429D01*
X96195197Y-47221169D01*
X96195188Y-47221172D01*
X95976493Y-47339524D01*
X95780257Y-47492261D01*
X95611833Y-47675217D01*
X95475826Y-47883393D01*
X95375938Y-48111114D01*
X95375937Y-48111117D01*
X95351077Y-48209285D01*
X95318553Y-48266524D01*
X93856963Y-49728115D01*
X93795640Y-49761600D01*
X93787122Y-49762894D01*
X93782019Y-49763793D01*
X93570674Y-49820423D01*
X93570668Y-49820426D01*
X93372361Y-49912898D01*
X93372357Y-49912900D01*
X93193121Y-50038402D01*
X93038402Y-50193121D01*
X92912900Y-50372357D01*
X92912898Y-50372361D01*
X92820426Y-50570668D01*
X92820422Y-50570677D01*
X92763793Y-50782020D01*
X92763793Y-50782023D01*
X92744723Y-51000000D01*
X90200500Y-51000000D01*
X90200500Y-46000000D01*
X92744723Y-46000000D01*
X92758271Y-46154864D01*
X92763793Y-46217975D01*
X92763793Y-46217979D01*
X92820422Y-46429322D01*
X92820424Y-46429326D01*
X92820425Y-46429330D01*
X92866661Y-46528484D01*
X92912897Y-46627638D01*
X92912898Y-46627639D01*
X93038402Y-46806877D01*
X93193123Y-46961598D01*
X93372361Y-47087102D01*
X93570670Y-47179575D01*
X93782023Y-47236207D01*
X93964926Y-47252208D01*
X93999998Y-47255277D01*
X94000000Y-47255277D01*
X94000002Y-47255277D01*
X94028254Y-47252805D01*
X94217977Y-47236207D01*
X94429330Y-47179575D01*
X94627639Y-47087102D01*
X94806877Y-46961598D01*
X94961598Y-46806877D01*
X95087102Y-46627639D01*
X95179575Y-46429330D01*
X95236207Y-46217977D01*
X95236207Y-46217969D01*
X95237146Y-46212649D01*
X95238771Y-46212935D01*
X95261470Y-46154864D01*
X95271876Y-46143042D01*
X96195350Y-45219568D01*
X96256671Y-45186085D01*
X96323290Y-45189969D01*
X96380386Y-45209571D01*
X96625665Y-45250500D01*
X96874335Y-45250500D01*
X97119614Y-45209571D01*
X97354810Y-45128828D01*
X97573509Y-45010474D01*
X97769744Y-44857738D01*
X97938164Y-44674785D01*
X98074173Y-44466607D01*
X98174063Y-44238881D01*
X98235108Y-43997821D01*
X98255643Y-43750000D01*
X98235108Y-43502179D01*
X98174063Y-43261119D01*
X98172518Y-43257597D01*
X98074173Y-43033393D01*
X97938166Y-42825217D01*
X97916557Y-42801744D01*
X97769744Y-42642262D01*
X97573509Y-42489526D01*
X97573507Y-42489525D01*
X97573506Y-42489524D01*
X97354811Y-42371172D01*
X97354802Y-42371169D01*
X97119616Y-42290429D01*
X96874335Y-42249500D01*
X96625665Y-42249500D01*
X96380383Y-42290429D01*
X96145197Y-42371169D01*
X96145188Y-42371172D01*
X95926493Y-42489524D01*
X95730257Y-42642261D01*
X95561833Y-42825217D01*
X95425824Y-43033396D01*
X95336852Y-43236229D01*
X95310978Y-43274099D01*
X93856963Y-44728115D01*
X93795640Y-44761600D01*
X93787122Y-44762894D01*
X93782019Y-44763793D01*
X93570674Y-44820423D01*
X93570668Y-44820426D01*
X93372361Y-44912898D01*
X93372357Y-44912900D01*
X93193121Y-45038402D01*
X93038402Y-45193121D01*
X92912900Y-45372357D01*
X92912898Y-45372361D01*
X92820426Y-45570668D01*
X92820422Y-45570677D01*
X92763793Y-45782020D01*
X92763793Y-45782023D01*
X92744723Y-46000000D01*
X90200500Y-46000000D01*
X90200500Y-39852135D01*
X103569500Y-39852135D01*
X103569500Y-41647870D01*
X103569501Y-41647876D01*
X103575908Y-41707483D01*
X103626202Y-41842328D01*
X103626206Y-41842335D01*
X103712452Y-41957544D01*
X103712455Y-41957547D01*
X103827664Y-42043793D01*
X103827671Y-42043797D01*
X103962517Y-42094091D01*
X103962516Y-42094091D01*
X103969444Y-42094835D01*
X104022127Y-42100500D01*
X105817872Y-42100499D01*
X105877483Y-42094091D01*
X106012331Y-42043796D01*
X106127546Y-41957546D01*
X106213796Y-41842331D01*
X106262810Y-41710916D01*
X106304681Y-41654984D01*
X106370145Y-41630566D01*
X106438418Y-41645417D01*
X106466673Y-41666569D01*
X106588599Y-41788495D01*
X106685384Y-41856265D01*
X106782165Y-41924032D01*
X106782167Y-41924033D01*
X106782170Y-41924035D01*
X106996337Y-42023903D01*
X107224592Y-42085063D01*
X107401034Y-42100500D01*
X107459999Y-42105659D01*
X107460000Y-42105659D01*
X107460001Y-42105659D01*
X107518966Y-42100500D01*
X107695408Y-42085063D01*
X107923663Y-42023903D01*
X108137830Y-41924035D01*
X108331401Y-41788495D01*
X108498495Y-41621401D01*
X108628425Y-41435842D01*
X108683002Y-41392217D01*
X108752500Y-41385023D01*
X108814855Y-41416546D01*
X108831575Y-41435842D01*
X108961500Y-41621395D01*
X108961505Y-41621401D01*
X109128599Y-41788495D01*
X109225384Y-41856265D01*
X109322165Y-41924032D01*
X109322167Y-41924033D01*
X109322170Y-41924035D01*
X109536337Y-42023903D01*
X109764592Y-42085063D01*
X109941034Y-42100500D01*
X109999999Y-42105659D01*
X110000000Y-42105659D01*
X110000001Y-42105659D01*
X110058966Y-42100500D01*
X110235408Y-42085063D01*
X110463663Y-42023903D01*
X110677830Y-41924035D01*
X110871401Y-41788495D01*
X111038495Y-41621401D01*
X111168425Y-41435842D01*
X111223002Y-41392217D01*
X111292500Y-41385023D01*
X111354855Y-41416546D01*
X111371575Y-41435842D01*
X111501500Y-41621395D01*
X111501505Y-41621401D01*
X111668599Y-41788495D01*
X111765384Y-41856265D01*
X111862165Y-41924032D01*
X111862167Y-41924033D01*
X111862170Y-41924035D01*
X112076337Y-42023903D01*
X112304592Y-42085063D01*
X112481034Y-42100500D01*
X112539999Y-42105659D01*
X112540000Y-42105659D01*
X112540001Y-42105659D01*
X112598966Y-42100500D01*
X112775408Y-42085063D01*
X113003663Y-42023903D01*
X113217830Y-41924035D01*
X113411401Y-41788495D01*
X113578495Y-41621401D01*
X113708425Y-41435842D01*
X113763002Y-41392217D01*
X113832500Y-41385023D01*
X113894855Y-41416546D01*
X113911575Y-41435842D01*
X114041500Y-41621395D01*
X114041505Y-41621401D01*
X114208599Y-41788495D01*
X114305384Y-41856265D01*
X114402165Y-41924032D01*
X114402167Y-41924033D01*
X114402170Y-41924035D01*
X114616337Y-42023903D01*
X114844592Y-42085063D01*
X115021034Y-42100500D01*
X115079999Y-42105659D01*
X115080000Y-42105659D01*
X115080001Y-42105659D01*
X115138966Y-42100500D01*
X115315408Y-42085063D01*
X115543663Y-42023903D01*
X115757830Y-41924035D01*
X115951401Y-41788495D01*
X116118495Y-41621401D01*
X116248425Y-41435842D01*
X116303002Y-41392217D01*
X116372500Y-41385023D01*
X116434855Y-41416546D01*
X116451575Y-41435842D01*
X116581500Y-41621395D01*
X116581505Y-41621401D01*
X116748599Y-41788495D01*
X116845384Y-41856265D01*
X116942165Y-41924032D01*
X116942167Y-41924033D01*
X116942170Y-41924035D01*
X117156337Y-42023903D01*
X117384592Y-42085063D01*
X117561034Y-42100500D01*
X117619999Y-42105659D01*
X117620000Y-42105659D01*
X117620001Y-42105659D01*
X117678966Y-42100500D01*
X117855408Y-42085063D01*
X118083663Y-42023903D01*
X118297830Y-41924035D01*
X118491401Y-41788495D01*
X118658495Y-41621401D01*
X118788425Y-41435842D01*
X118843002Y-41392217D01*
X118912500Y-41385023D01*
X118974855Y-41416546D01*
X118991575Y-41435842D01*
X119121500Y-41621395D01*
X119121505Y-41621401D01*
X119288599Y-41788495D01*
X119385384Y-41856265D01*
X119482165Y-41924032D01*
X119482167Y-41924033D01*
X119482170Y-41924035D01*
X119696337Y-42023903D01*
X119924592Y-42085063D01*
X120101034Y-42100500D01*
X120159999Y-42105659D01*
X120160000Y-42105659D01*
X120160001Y-42105659D01*
X120218966Y-42100500D01*
X120395408Y-42085063D01*
X120623663Y-42023903D01*
X120837830Y-41924035D01*
X121031401Y-41788495D01*
X121198495Y-41621401D01*
X121328730Y-41435405D01*
X121383307Y-41391781D01*
X121452805Y-41384587D01*
X121515160Y-41416110D01*
X121531879Y-41435405D01*
X121661890Y-41621078D01*
X121828917Y-41788105D01*
X122022421Y-41923600D01*
X122236507Y-42023429D01*
X122236516Y-42023433D01*
X122450000Y-42080634D01*
X122450000Y-41183012D01*
X122507007Y-41215925D01*
X122634174Y-41250000D01*
X122765826Y-41250000D01*
X122892993Y-41215925D01*
X122950000Y-41183012D01*
X122950000Y-42080633D01*
X123163483Y-42023433D01*
X123163492Y-42023429D01*
X123377578Y-41923600D01*
X123571082Y-41788105D01*
X123738105Y-41621082D01*
X123868119Y-41435405D01*
X123922696Y-41391781D01*
X123992195Y-41384588D01*
X124054549Y-41416110D01*
X124071269Y-41435405D01*
X124201505Y-41621401D01*
X124368599Y-41788495D01*
X124465384Y-41856265D01*
X124562165Y-41924032D01*
X124562167Y-41924033D01*
X124562170Y-41924035D01*
X124776337Y-42023903D01*
X125004592Y-42085063D01*
X125181034Y-42100500D01*
X125239999Y-42105659D01*
X125240000Y-42105659D01*
X125240001Y-42105659D01*
X125298966Y-42100500D01*
X125475408Y-42085063D01*
X125703663Y-42023903D01*
X125917830Y-41924035D01*
X126111401Y-41788495D01*
X126278495Y-41621401D01*
X126408425Y-41435842D01*
X126463002Y-41392217D01*
X126532500Y-41385023D01*
X126594855Y-41416546D01*
X126611575Y-41435842D01*
X126741500Y-41621395D01*
X126741505Y-41621401D01*
X126908599Y-41788495D01*
X127005384Y-41856265D01*
X127102165Y-41924032D01*
X127102167Y-41924033D01*
X127102170Y-41924035D01*
X127316337Y-42023903D01*
X127544592Y-42085063D01*
X127721034Y-42100500D01*
X127779999Y-42105659D01*
X127780000Y-42105659D01*
X127780001Y-42105659D01*
X127838966Y-42100500D01*
X128015408Y-42085063D01*
X128243663Y-42023903D01*
X128457830Y-41924035D01*
X128651401Y-41788495D01*
X128818495Y-41621401D01*
X128954035Y-41427830D01*
X129053903Y-41213663D01*
X129115063Y-40985408D01*
X129135659Y-40750000D01*
X129115063Y-40514592D01*
X129066184Y-40332171D01*
X129053905Y-40286344D01*
X129053904Y-40286343D01*
X129053903Y-40286337D01*
X128954035Y-40072171D01*
X128948731Y-40064595D01*
X128818494Y-39878597D01*
X128651402Y-39711506D01*
X128651395Y-39711501D01*
X128457834Y-39575967D01*
X128457830Y-39575965D01*
X128457828Y-39575964D01*
X128243663Y-39476097D01*
X128243659Y-39476096D01*
X128243655Y-39476094D01*
X128015413Y-39414938D01*
X128015403Y-39414936D01*
X127780001Y-39394341D01*
X127779999Y-39394341D01*
X127544596Y-39414936D01*
X127544586Y-39414938D01*
X127316344Y-39476094D01*
X127316335Y-39476098D01*
X127102171Y-39575964D01*
X127102169Y-39575965D01*
X126908597Y-39711505D01*
X126741505Y-39878597D01*
X126611575Y-40064158D01*
X126556998Y-40107783D01*
X126487500Y-40114977D01*
X126425145Y-40083454D01*
X126408425Y-40064158D01*
X126278494Y-39878597D01*
X126111402Y-39711506D01*
X126111395Y-39711501D01*
X125917834Y-39575967D01*
X125917830Y-39575965D01*
X125917828Y-39575964D01*
X125703663Y-39476097D01*
X125703659Y-39476096D01*
X125703655Y-39476094D01*
X125475413Y-39414938D01*
X125475403Y-39414936D01*
X125240001Y-39394341D01*
X125239999Y-39394341D01*
X125004596Y-39414936D01*
X125004586Y-39414938D01*
X124776344Y-39476094D01*
X124776335Y-39476098D01*
X124562171Y-39575964D01*
X124562169Y-39575965D01*
X124368597Y-39711505D01*
X124201508Y-39878594D01*
X124071269Y-40064595D01*
X124016692Y-40108219D01*
X123947193Y-40115412D01*
X123884839Y-40083890D01*
X123868119Y-40064594D01*
X123738113Y-39878926D01*
X123738108Y-39878920D01*
X123571082Y-39711894D01*
X123377578Y-39576399D01*
X123163492Y-39476570D01*
X123163486Y-39476567D01*
X122950000Y-39419364D01*
X122950000Y-40316988D01*
X122892993Y-40284075D01*
X122765826Y-40250000D01*
X122634174Y-40250000D01*
X122507007Y-40284075D01*
X122450000Y-40316988D01*
X122450000Y-39419364D01*
X122449999Y-39419364D01*
X122236513Y-39476567D01*
X122236507Y-39476570D01*
X122022422Y-39576399D01*
X122022420Y-39576400D01*
X121828926Y-39711886D01*
X121828920Y-39711891D01*
X121661891Y-39878920D01*
X121661890Y-39878922D01*
X121531880Y-40064595D01*
X121477303Y-40108219D01*
X121407804Y-40115412D01*
X121345450Y-40083890D01*
X121328730Y-40064594D01*
X121198494Y-39878597D01*
X121031402Y-39711506D01*
X121031395Y-39711501D01*
X120837834Y-39575967D01*
X120837830Y-39575965D01*
X120837828Y-39575964D01*
X120623663Y-39476097D01*
X120623659Y-39476096D01*
X120623655Y-39476094D01*
X120395413Y-39414938D01*
X120395403Y-39414936D01*
X120160001Y-39394341D01*
X120159999Y-39394341D01*
X119924596Y-39414936D01*
X119924586Y-39414938D01*
X119696344Y-39476094D01*
X119696335Y-39476098D01*
X119482171Y-39575964D01*
X119482169Y-39575965D01*
X119288597Y-39711505D01*
X119121505Y-39878597D01*
X118991575Y-40064158D01*
X118936998Y-40107783D01*
X118867500Y-40114977D01*
X118805145Y-40083454D01*
X118788425Y-40064158D01*
X118658494Y-39878597D01*
X118491402Y-39711506D01*
X118491395Y-39711501D01*
X118297834Y-39575967D01*
X118297830Y-39575965D01*
X118297828Y-39575964D01*
X118083663Y-39476097D01*
X118083659Y-39476096D01*
X118083655Y-39476094D01*
X117855413Y-39414938D01*
X117855403Y-39414936D01*
X117620001Y-39394341D01*
X117619999Y-39394341D01*
X117384596Y-39414936D01*
X117384586Y-39414938D01*
X117156344Y-39476094D01*
X117156335Y-39476098D01*
X116942171Y-39575964D01*
X116942169Y-39575965D01*
X116748597Y-39711505D01*
X116581505Y-39878597D01*
X116451575Y-40064158D01*
X116396998Y-40107783D01*
X116327500Y-40114977D01*
X116265145Y-40083454D01*
X116248425Y-40064158D01*
X116118494Y-39878597D01*
X115951402Y-39711506D01*
X115951395Y-39711501D01*
X115757834Y-39575967D01*
X115757830Y-39575965D01*
X115757828Y-39575964D01*
X115543663Y-39476097D01*
X115543659Y-39476096D01*
X115543655Y-39476094D01*
X115315413Y-39414938D01*
X115315403Y-39414936D01*
X115080001Y-39394341D01*
X115079999Y-39394341D01*
X114844596Y-39414936D01*
X114844586Y-39414938D01*
X114616344Y-39476094D01*
X114616335Y-39476098D01*
X114402171Y-39575964D01*
X114402169Y-39575965D01*
X114208597Y-39711505D01*
X114041505Y-39878597D01*
X113911575Y-40064158D01*
X113856998Y-40107783D01*
X113787500Y-40114977D01*
X113725145Y-40083454D01*
X113708425Y-40064158D01*
X113578494Y-39878597D01*
X113411402Y-39711506D01*
X113411395Y-39711501D01*
X113217834Y-39575967D01*
X113217830Y-39575965D01*
X113217828Y-39575964D01*
X113003663Y-39476097D01*
X113003659Y-39476096D01*
X113003655Y-39476094D01*
X112775413Y-39414938D01*
X112775403Y-39414936D01*
X112540001Y-39394341D01*
X112539999Y-39394341D01*
X112304596Y-39414936D01*
X112304586Y-39414938D01*
X112076344Y-39476094D01*
X112076335Y-39476098D01*
X111862171Y-39575964D01*
X111862169Y-39575965D01*
X111668597Y-39711505D01*
X111501505Y-39878597D01*
X111371575Y-40064158D01*
X111316998Y-40107783D01*
X111247500Y-40114977D01*
X111185145Y-40083454D01*
X111168425Y-40064158D01*
X111038494Y-39878597D01*
X110871402Y-39711506D01*
X110871395Y-39711501D01*
X110677834Y-39575967D01*
X110677830Y-39575965D01*
X110677828Y-39575964D01*
X110463663Y-39476097D01*
X110463659Y-39476096D01*
X110463655Y-39476094D01*
X110235413Y-39414938D01*
X110235403Y-39414936D01*
X110000001Y-39394341D01*
X109999999Y-39394341D01*
X109764596Y-39414936D01*
X109764586Y-39414938D01*
X109536344Y-39476094D01*
X109536335Y-39476098D01*
X109322171Y-39575964D01*
X109322169Y-39575965D01*
X109128597Y-39711505D01*
X108961505Y-39878597D01*
X108831575Y-40064158D01*
X108776998Y-40107783D01*
X108707500Y-40114977D01*
X108645145Y-40083454D01*
X108628425Y-40064158D01*
X108498494Y-39878597D01*
X108331402Y-39711506D01*
X108331395Y-39711501D01*
X108137834Y-39575967D01*
X108137830Y-39575965D01*
X108137828Y-39575964D01*
X107923663Y-39476097D01*
X107923659Y-39476096D01*
X107923655Y-39476094D01*
X107695413Y-39414938D01*
X107695403Y-39414936D01*
X107460001Y-39394341D01*
X107459999Y-39394341D01*
X107224596Y-39414936D01*
X107224586Y-39414938D01*
X106996344Y-39476094D01*
X106996335Y-39476098D01*
X106782171Y-39575964D01*
X106782169Y-39575965D01*
X106588600Y-39711503D01*
X106466673Y-39833430D01*
X106405350Y-39866914D01*
X106335658Y-39861930D01*
X106279725Y-39820058D01*
X106262810Y-39789081D01*
X106213797Y-39657671D01*
X106213793Y-39657664D01*
X106127547Y-39542455D01*
X106127544Y-39542452D01*
X106012335Y-39456206D01*
X106012328Y-39456202D01*
X105877482Y-39405908D01*
X105877483Y-39405908D01*
X105817883Y-39399501D01*
X105817881Y-39399500D01*
X105817873Y-39399500D01*
X105817864Y-39399500D01*
X104022129Y-39399500D01*
X104022123Y-39399501D01*
X103962516Y-39405908D01*
X103827671Y-39456202D01*
X103827664Y-39456206D01*
X103712455Y-39542452D01*
X103712452Y-39542455D01*
X103626206Y-39657664D01*
X103626202Y-39657671D01*
X103575908Y-39792517D01*
X103569501Y-39852116D01*
X103569500Y-39852135D01*
X90200500Y-39852135D01*
X90200500Y-38469999D01*
X130844341Y-38469999D01*
X130844341Y-38470000D01*
X130864936Y-38705403D01*
X130864938Y-38705413D01*
X130926094Y-38933655D01*
X130926096Y-38933659D01*
X130926097Y-38933663D01*
X131025965Y-39147830D01*
X131025967Y-39147834D01*
X131161501Y-39341395D01*
X131161506Y-39341402D01*
X131328597Y-39508493D01*
X131328603Y-39508498D01*
X131514158Y-39638425D01*
X131557783Y-39693002D01*
X131564977Y-39762500D01*
X131533454Y-39824855D01*
X131514158Y-39841575D01*
X131328597Y-39971505D01*
X131161505Y-40138597D01*
X131025965Y-40332169D01*
X131025964Y-40332171D01*
X130926098Y-40546335D01*
X130926094Y-40546344D01*
X130864938Y-40774586D01*
X130864936Y-40774596D01*
X130844341Y-41009999D01*
X130844341Y-41010000D01*
X130864936Y-41245403D01*
X130864938Y-41245413D01*
X130926094Y-41473655D01*
X130926096Y-41473659D01*
X130926097Y-41473663D01*
X131007331Y-41647870D01*
X131025965Y-41687830D01*
X131025967Y-41687834D01*
X131134146Y-41842328D01*
X131161501Y-41881396D01*
X131161506Y-41881402D01*
X131283430Y-42003326D01*
X131316915Y-42064649D01*
X131311931Y-42134341D01*
X131270059Y-42190274D01*
X131239083Y-42207189D01*
X131107669Y-42256203D01*
X131107664Y-42256206D01*
X130992455Y-42342452D01*
X130992452Y-42342455D01*
X130906206Y-42457664D01*
X130906202Y-42457671D01*
X130855908Y-42592517D01*
X130849501Y-42652116D01*
X130849501Y-42652123D01*
X130849500Y-42652135D01*
X130849500Y-44447870D01*
X130849501Y-44447876D01*
X130855908Y-44507483D01*
X130906202Y-44642328D01*
X130906206Y-44642335D01*
X130992452Y-44757544D01*
X130992455Y-44757547D01*
X131107664Y-44843793D01*
X131107671Y-44843797D01*
X131242517Y-44894091D01*
X131242516Y-44894091D01*
X131249444Y-44894835D01*
X131302127Y-44900500D01*
X133097872Y-44900499D01*
X133157483Y-44894091D01*
X133292331Y-44843796D01*
X133407546Y-44757546D01*
X133493796Y-44642331D01*
X133544091Y-44507483D01*
X133550500Y-44447873D01*
X133550499Y-42652128D01*
X133544091Y-42592517D01*
X133493796Y-42457669D01*
X133493795Y-42457668D01*
X133493793Y-42457664D01*
X133407547Y-42342455D01*
X133407544Y-42342452D01*
X133292335Y-42256206D01*
X133292328Y-42256202D01*
X133160917Y-42207189D01*
X133104983Y-42165318D01*
X133080566Y-42099853D01*
X133095418Y-42031580D01*
X133116563Y-42003332D01*
X133238495Y-41881401D01*
X133374035Y-41687830D01*
X133473903Y-41473663D01*
X133535063Y-41245408D01*
X133555659Y-41010000D01*
X133535063Y-40774592D01*
X133473903Y-40546337D01*
X133374035Y-40332171D01*
X133341941Y-40286335D01*
X133238494Y-40138597D01*
X133071402Y-39971506D01*
X133071396Y-39971501D01*
X132885842Y-39841575D01*
X132842217Y-39786998D01*
X132835023Y-39717500D01*
X132866546Y-39655145D01*
X132885842Y-39638425D01*
X132908026Y-39622891D01*
X133071401Y-39508495D01*
X133238495Y-39341401D01*
X133374035Y-39147830D01*
X133473903Y-38933663D01*
X133535063Y-38705408D01*
X133555659Y-38470000D01*
X133535063Y-38234592D01*
X133473903Y-38006337D01*
X133374035Y-37792171D01*
X133238495Y-37598599D01*
X133238494Y-37598597D01*
X133071402Y-37431506D01*
X133071401Y-37431505D01*
X132885405Y-37301269D01*
X132841781Y-37246692D01*
X132834588Y-37177193D01*
X132866110Y-37114839D01*
X132885405Y-37098119D01*
X133071082Y-36968105D01*
X133238105Y-36801082D01*
X133373600Y-36607578D01*
X133427465Y-36492062D01*
X138536149Y-36492062D01*
X138536149Y-36734639D01*
X138567810Y-36975136D01*
X138630596Y-37209455D01*
X138722573Y-37431506D01*
X138723425Y-37433563D01*
X138844713Y-37643640D01*
X138844715Y-37643643D01*
X138844716Y-37643644D01*
X138992382Y-37836087D01*
X138992388Y-37836094D01*
X139163905Y-38007611D01*
X139163911Y-38007616D01*
X139356360Y-38155287D01*
X139566437Y-38276575D01*
X139790549Y-38369405D01*
X140024860Y-38432189D01*
X140205235Y-38455935D01*
X140265360Y-38463851D01*
X140265361Y-38463851D01*
X140507938Y-38463851D01*
X140556037Y-38457518D01*
X140748438Y-38432189D01*
X140982749Y-38369405D01*
X141206861Y-38276575D01*
X141416938Y-38155287D01*
X141609387Y-38007616D01*
X141780914Y-37836089D01*
X141928585Y-37643640D01*
X142049873Y-37433563D01*
X142142703Y-37209451D01*
X142205487Y-36975140D01*
X142237149Y-36734639D01*
X142237149Y-36492063D01*
X142205487Y-36251562D01*
X142142703Y-36017251D01*
X142133828Y-35995826D01*
X142130844Y-35988620D01*
X142049873Y-35793139D01*
X141928585Y-35583062D01*
X141780914Y-35390613D01*
X141780909Y-35390607D01*
X141609392Y-35219090D01*
X141609385Y-35219084D01*
X141416942Y-35071418D01*
X141416941Y-35071417D01*
X141416938Y-35071415D01*
X141206861Y-34950127D01*
X141206854Y-34950124D01*
X140982753Y-34857298D01*
X140748434Y-34794512D01*
X140507938Y-34762851D01*
X140507937Y-34762851D01*
X140265361Y-34762851D01*
X140265360Y-34762851D01*
X140024863Y-34794512D01*
X139790544Y-34857298D01*
X139566443Y-34950124D01*
X139566434Y-34950128D01*
X139356355Y-35071418D01*
X139163912Y-35219084D01*
X139163905Y-35219090D01*
X138992388Y-35390607D01*
X138992382Y-35390614D01*
X138844716Y-35583057D01*
X138723426Y-35793136D01*
X138723422Y-35793145D01*
X138630596Y-36017246D01*
X138567810Y-36251565D01*
X138536149Y-36492062D01*
X133427465Y-36492062D01*
X133473429Y-36393492D01*
X133473432Y-36393486D01*
X133530636Y-36180000D01*
X132633012Y-36180000D01*
X132665925Y-36122993D01*
X132700000Y-35995826D01*
X132700000Y-35864174D01*
X132665925Y-35737007D01*
X132633012Y-35680000D01*
X133530636Y-35680000D01*
X133530635Y-35679999D01*
X133473432Y-35466513D01*
X133473429Y-35466507D01*
X133373600Y-35252422D01*
X133373599Y-35252420D01*
X133238113Y-35058926D01*
X133238108Y-35058920D01*
X133071082Y-34891894D01*
X132877578Y-34756399D01*
X132663492Y-34656570D01*
X132663486Y-34656567D01*
X132450000Y-34599364D01*
X132450000Y-35496988D01*
X132392993Y-35464075D01*
X132265826Y-35430000D01*
X132134174Y-35430000D01*
X132007007Y-35464075D01*
X131950000Y-35496988D01*
X131950000Y-34599364D01*
X131949999Y-34599364D01*
X131736513Y-34656567D01*
X131736507Y-34656570D01*
X131522422Y-34756399D01*
X131522420Y-34756400D01*
X131328926Y-34891886D01*
X131328920Y-34891891D01*
X131161891Y-35058920D01*
X131161886Y-35058926D01*
X131026400Y-35252420D01*
X131026399Y-35252422D01*
X130926570Y-35466507D01*
X130926567Y-35466513D01*
X130869364Y-35679999D01*
X130869364Y-35680000D01*
X131766988Y-35680000D01*
X131734075Y-35737007D01*
X131700000Y-35864174D01*
X131700000Y-35995826D01*
X131734075Y-36122993D01*
X131766988Y-36180000D01*
X130869364Y-36180000D01*
X130926567Y-36393486D01*
X130926570Y-36393492D01*
X131026399Y-36607578D01*
X131161894Y-36801082D01*
X131328917Y-36968105D01*
X131514595Y-37098119D01*
X131558219Y-37152696D01*
X131565412Y-37222195D01*
X131533890Y-37284549D01*
X131514595Y-37301269D01*
X131328594Y-37431508D01*
X131161505Y-37598597D01*
X131025965Y-37792169D01*
X131025964Y-37792171D01*
X130926098Y-38006335D01*
X130926094Y-38006344D01*
X130864938Y-38234586D01*
X130864936Y-38234596D01*
X130844341Y-38469999D01*
X90200500Y-38469999D01*
X90200500Y-36492062D01*
X92162851Y-36492062D01*
X92162851Y-36734639D01*
X92194512Y-36975136D01*
X92257298Y-37209455D01*
X92349275Y-37431506D01*
X92350127Y-37433563D01*
X92471415Y-37643640D01*
X92471417Y-37643643D01*
X92471418Y-37643644D01*
X92619084Y-37836087D01*
X92619090Y-37836094D01*
X92790607Y-38007611D01*
X92790613Y-38007616D01*
X92983062Y-38155287D01*
X93193139Y-38276575D01*
X93417251Y-38369405D01*
X93651562Y-38432189D01*
X93831937Y-38455935D01*
X93892062Y-38463851D01*
X93892063Y-38463851D01*
X94134640Y-38463851D01*
X94182739Y-38457518D01*
X94375140Y-38432189D01*
X94609451Y-38369405D01*
X94833563Y-38276575D01*
X95043640Y-38155287D01*
X95236089Y-38007616D01*
X95407616Y-37836089D01*
X95555287Y-37643640D01*
X95676575Y-37433563D01*
X95769405Y-37209451D01*
X95832189Y-36975140D01*
X95863851Y-36734639D01*
X95863851Y-36492063D01*
X95832189Y-36251562D01*
X95769405Y-36017251D01*
X95760530Y-35995826D01*
X95757546Y-35988620D01*
X95676575Y-35793139D01*
X95555287Y-35583062D01*
X95407616Y-35390613D01*
X95407611Y-35390607D01*
X95236094Y-35219090D01*
X95236087Y-35219084D01*
X95043644Y-35071418D01*
X95043643Y-35071417D01*
X95043640Y-35071415D01*
X94833563Y-34950127D01*
X94833556Y-34950124D01*
X94609455Y-34857298D01*
X94375136Y-34794512D01*
X94134640Y-34762851D01*
X94134639Y-34762851D01*
X93892063Y-34762851D01*
X93892062Y-34762851D01*
X93651565Y-34794512D01*
X93417246Y-34857298D01*
X93193145Y-34950124D01*
X93193136Y-34950128D01*
X92983057Y-35071418D01*
X92790614Y-35219084D01*
X92790607Y-35219090D01*
X92619090Y-35390607D01*
X92619084Y-35390614D01*
X92471418Y-35583057D01*
X92350128Y-35793136D01*
X92350124Y-35793145D01*
X92257298Y-36017246D01*
X92194512Y-36251565D01*
X92162851Y-36492062D01*
X90200500Y-36492062D01*
X90200500Y-32899500D01*
X90220185Y-32832461D01*
X90272989Y-32786706D01*
X90324500Y-32775500D01*
X144075500Y-32775500D01*
X144142539Y-32795185D01*
G37*
%TD.AperFunction*%
%TD*%
M02*
