%TF.GenerationSoftware,KiCad,Pcbnew,8.0.5*%
%TF.CreationDate,2024-11-11T21:26:14+01:00*%
%TF.ProjectId,LCD_PCB,4c43445f-5043-4422-9e6b-696361645f70,rev?*%
%TF.SameCoordinates,Original*%
%TF.FileFunction,Legend,Bot*%
%TF.FilePolarity,Positive*%
%FSLAX46Y46*%
G04 Gerber Fmt 4.6, Leading zero omitted, Abs format (unit mm)*
G04 Created by KiCad (PCBNEW 8.0.5) date 2024-11-11 21:26:14*
%MOMM*%
%LPD*%
G01*
G04 APERTURE LIST*
%ADD10C,0.150000*%
%ADD11C,0.120000*%
G04 APERTURE END LIST*
D10*
X132533333Y-45334819D02*
X132533333Y-46049104D01*
X132533333Y-46049104D02*
X132580952Y-46191961D01*
X132580952Y-46191961D02*
X132676190Y-46287200D01*
X132676190Y-46287200D02*
X132819047Y-46334819D01*
X132819047Y-46334819D02*
X132914285Y-46334819D01*
X131533333Y-46334819D02*
X132104761Y-46334819D01*
X131819047Y-46334819D02*
X131819047Y-45334819D01*
X131819047Y-45334819D02*
X131914285Y-45477676D01*
X131914285Y-45477676D02*
X132009523Y-45572914D01*
X132009523Y-45572914D02*
X132104761Y-45620533D01*
D11*
%TO.C,J1*%
X130870000Y-34600000D02*
X130870000Y-42280000D01*
X130870000Y-44880000D02*
X130870000Y-43550000D01*
X132200000Y-44880000D02*
X130870000Y-44880000D01*
X133530000Y-34600000D02*
X130870000Y-34600000D01*
X133530000Y-34600000D02*
X133530000Y-42280000D01*
X133530000Y-42280000D02*
X130870000Y-42280000D01*
%TO.C,J2*%
X103590000Y-39420000D02*
X104920000Y-39420000D01*
X103590000Y-40750000D02*
X103590000Y-39420000D01*
X106190000Y-42080000D02*
X106190000Y-39420000D01*
X129110000Y-39420000D02*
X106190000Y-39420000D01*
X129110000Y-42080000D02*
X106190000Y-42080000D01*
X129110000Y-42080000D02*
X129110000Y-39420000D01*
%TD*%
M02*
