%TF.GenerationSoftware,KiCad,Pcbnew,8.0.5*%
%TF.CreationDate,2024-11-14T11:30:09+01:00*%
%TF.ProjectId,LCD_PCB,4c43445f-5043-4422-9e6b-696361645f70,rev?*%
%TF.SameCoordinates,Original*%
%TF.FileFunction,Legend,Top*%
%TF.FilePolarity,Positive*%
%FSLAX46Y46*%
G04 Gerber Fmt 4.6, Leading zero omitted, Abs format (unit mm)*
G04 Created by KiCad (PCBNEW 8.0.5) date 2024-11-14 11:30:09*
%MOMM*%
%LPD*%
G01*
G04 APERTURE LIST*
%ADD10C,0.150000*%
%ADD11C,0.120000*%
%ADD12C,0.100000*%
G04 APERTURE END LIST*
D10*
X99238095Y-42706819D02*
X99809523Y-42706819D01*
X99523809Y-43706819D02*
X99523809Y-42706819D01*
X100142857Y-43706819D02*
X100142857Y-42706819D01*
X100142857Y-42706819D02*
X100523809Y-42706819D01*
X100523809Y-42706819D02*
X100619047Y-42754438D01*
X100619047Y-42754438D02*
X100666666Y-42802057D01*
X100666666Y-42802057D02*
X100714285Y-42897295D01*
X100714285Y-42897295D02*
X100714285Y-43040152D01*
X100714285Y-43040152D02*
X100666666Y-43135390D01*
X100666666Y-43135390D02*
X100619047Y-43183009D01*
X100619047Y-43183009D02*
X100523809Y-43230628D01*
X100523809Y-43230628D02*
X100142857Y-43230628D01*
X101095238Y-42802057D02*
X101142857Y-42754438D01*
X101142857Y-42754438D02*
X101238095Y-42706819D01*
X101238095Y-42706819D02*
X101476190Y-42706819D01*
X101476190Y-42706819D02*
X101571428Y-42754438D01*
X101571428Y-42754438D02*
X101619047Y-42802057D01*
X101619047Y-42802057D02*
X101666666Y-42897295D01*
X101666666Y-42897295D02*
X101666666Y-42992533D01*
X101666666Y-42992533D02*
X101619047Y-43135390D01*
X101619047Y-43135390D02*
X101047619Y-43706819D01*
X101047619Y-43706819D02*
X101666666Y-43706819D01*
X125416667Y-79907200D02*
X125559524Y-79954819D01*
X125559524Y-79954819D02*
X125797619Y-79954819D01*
X125797619Y-79954819D02*
X125892857Y-79907200D01*
X125892857Y-79907200D02*
X125940476Y-79859580D01*
X125940476Y-79859580D02*
X125988095Y-79764342D01*
X125988095Y-79764342D02*
X125988095Y-79669104D01*
X125988095Y-79669104D02*
X125940476Y-79573866D01*
X125940476Y-79573866D02*
X125892857Y-79526247D01*
X125892857Y-79526247D02*
X125797619Y-79478628D01*
X125797619Y-79478628D02*
X125607143Y-79431009D01*
X125607143Y-79431009D02*
X125511905Y-79383390D01*
X125511905Y-79383390D02*
X125464286Y-79335771D01*
X125464286Y-79335771D02*
X125416667Y-79240533D01*
X125416667Y-79240533D02*
X125416667Y-79145295D01*
X125416667Y-79145295D02*
X125464286Y-79050057D01*
X125464286Y-79050057D02*
X125511905Y-79002438D01*
X125511905Y-79002438D02*
X125607143Y-78954819D01*
X125607143Y-78954819D02*
X125845238Y-78954819D01*
X125845238Y-78954819D02*
X125988095Y-79002438D01*
X126321429Y-78954819D02*
X126559524Y-79954819D01*
X126559524Y-79954819D02*
X126750000Y-79240533D01*
X126750000Y-79240533D02*
X126940476Y-79954819D01*
X126940476Y-79954819D02*
X127178572Y-78954819D01*
X128083333Y-79954819D02*
X127511905Y-79954819D01*
X127797619Y-79954819D02*
X127797619Y-78954819D01*
X127797619Y-78954819D02*
X127702381Y-79097676D01*
X127702381Y-79097676D02*
X127607143Y-79192914D01*
X127607143Y-79192914D02*
X127511905Y-79240533D01*
X125416667Y-49907200D02*
X125559524Y-49954819D01*
X125559524Y-49954819D02*
X125797619Y-49954819D01*
X125797619Y-49954819D02*
X125892857Y-49907200D01*
X125892857Y-49907200D02*
X125940476Y-49859580D01*
X125940476Y-49859580D02*
X125988095Y-49764342D01*
X125988095Y-49764342D02*
X125988095Y-49669104D01*
X125988095Y-49669104D02*
X125940476Y-49573866D01*
X125940476Y-49573866D02*
X125892857Y-49526247D01*
X125892857Y-49526247D02*
X125797619Y-49478628D01*
X125797619Y-49478628D02*
X125607143Y-49431009D01*
X125607143Y-49431009D02*
X125511905Y-49383390D01*
X125511905Y-49383390D02*
X125464286Y-49335771D01*
X125464286Y-49335771D02*
X125416667Y-49240533D01*
X125416667Y-49240533D02*
X125416667Y-49145295D01*
X125416667Y-49145295D02*
X125464286Y-49050057D01*
X125464286Y-49050057D02*
X125511905Y-49002438D01*
X125511905Y-49002438D02*
X125607143Y-48954819D01*
X125607143Y-48954819D02*
X125845238Y-48954819D01*
X125845238Y-48954819D02*
X125988095Y-49002438D01*
X126321429Y-48954819D02*
X126559524Y-49954819D01*
X126559524Y-49954819D02*
X126750000Y-49240533D01*
X126750000Y-49240533D02*
X126940476Y-49954819D01*
X126940476Y-49954819D02*
X127178572Y-48954819D01*
X127511905Y-49050057D02*
X127559524Y-49002438D01*
X127559524Y-49002438D02*
X127654762Y-48954819D01*
X127654762Y-48954819D02*
X127892857Y-48954819D01*
X127892857Y-48954819D02*
X127988095Y-49002438D01*
X127988095Y-49002438D02*
X128035714Y-49050057D01*
X128035714Y-49050057D02*
X128083333Y-49145295D01*
X128083333Y-49145295D02*
X128083333Y-49240533D01*
X128083333Y-49240533D02*
X128035714Y-49383390D01*
X128035714Y-49383390D02*
X127464286Y-49954819D01*
X127464286Y-49954819D02*
X128083333Y-49954819D01*
X132424819Y-54256666D02*
X131948628Y-54589999D01*
X132424819Y-54828094D02*
X131424819Y-54828094D01*
X131424819Y-54828094D02*
X131424819Y-54447142D01*
X131424819Y-54447142D02*
X131472438Y-54351904D01*
X131472438Y-54351904D02*
X131520057Y-54304285D01*
X131520057Y-54304285D02*
X131615295Y-54256666D01*
X131615295Y-54256666D02*
X131758152Y-54256666D01*
X131758152Y-54256666D02*
X131853390Y-54304285D01*
X131853390Y-54304285D02*
X131901009Y-54351904D01*
X131901009Y-54351904D02*
X131948628Y-54447142D01*
X131948628Y-54447142D02*
X131948628Y-54828094D01*
X132424819Y-53304285D02*
X132424819Y-53875713D01*
X132424819Y-53589999D02*
X131424819Y-53589999D01*
X131424819Y-53589999D02*
X131567676Y-53685237D01*
X131567676Y-53685237D02*
X131662914Y-53780475D01*
X131662914Y-53780475D02*
X131710533Y-53875713D01*
X138254819Y-54266666D02*
X137778628Y-54599999D01*
X138254819Y-54838094D02*
X137254819Y-54838094D01*
X137254819Y-54838094D02*
X137254819Y-54457142D01*
X137254819Y-54457142D02*
X137302438Y-54361904D01*
X137302438Y-54361904D02*
X137350057Y-54314285D01*
X137350057Y-54314285D02*
X137445295Y-54266666D01*
X137445295Y-54266666D02*
X137588152Y-54266666D01*
X137588152Y-54266666D02*
X137683390Y-54314285D01*
X137683390Y-54314285D02*
X137731009Y-54361904D01*
X137731009Y-54361904D02*
X137778628Y-54457142D01*
X137778628Y-54457142D02*
X137778628Y-54838094D01*
X137350057Y-53885713D02*
X137302438Y-53838094D01*
X137302438Y-53838094D02*
X137254819Y-53742856D01*
X137254819Y-53742856D02*
X137254819Y-53504761D01*
X137254819Y-53504761D02*
X137302438Y-53409523D01*
X137302438Y-53409523D02*
X137350057Y-53361904D01*
X137350057Y-53361904D02*
X137445295Y-53314285D01*
X137445295Y-53314285D02*
X137540533Y-53314285D01*
X137540533Y-53314285D02*
X137683390Y-53361904D01*
X137683390Y-53361904D02*
X138254819Y-53933332D01*
X138254819Y-53933332D02*
X138254819Y-53314285D01*
X125416667Y-64907200D02*
X125559524Y-64954819D01*
X125559524Y-64954819D02*
X125797619Y-64954819D01*
X125797619Y-64954819D02*
X125892857Y-64907200D01*
X125892857Y-64907200D02*
X125940476Y-64859580D01*
X125940476Y-64859580D02*
X125988095Y-64764342D01*
X125988095Y-64764342D02*
X125988095Y-64669104D01*
X125988095Y-64669104D02*
X125940476Y-64573866D01*
X125940476Y-64573866D02*
X125892857Y-64526247D01*
X125892857Y-64526247D02*
X125797619Y-64478628D01*
X125797619Y-64478628D02*
X125607143Y-64431009D01*
X125607143Y-64431009D02*
X125511905Y-64383390D01*
X125511905Y-64383390D02*
X125464286Y-64335771D01*
X125464286Y-64335771D02*
X125416667Y-64240533D01*
X125416667Y-64240533D02*
X125416667Y-64145295D01*
X125416667Y-64145295D02*
X125464286Y-64050057D01*
X125464286Y-64050057D02*
X125511905Y-64002438D01*
X125511905Y-64002438D02*
X125607143Y-63954819D01*
X125607143Y-63954819D02*
X125845238Y-63954819D01*
X125845238Y-63954819D02*
X125988095Y-64002438D01*
X126321429Y-63954819D02*
X126559524Y-64954819D01*
X126559524Y-64954819D02*
X126750000Y-64240533D01*
X126750000Y-64240533D02*
X126940476Y-64954819D01*
X126940476Y-64954819D02*
X127178572Y-63954819D01*
X127464286Y-63954819D02*
X128083333Y-63954819D01*
X128083333Y-63954819D02*
X127750000Y-64335771D01*
X127750000Y-64335771D02*
X127892857Y-64335771D01*
X127892857Y-64335771D02*
X127988095Y-64383390D01*
X127988095Y-64383390D02*
X128035714Y-64431009D01*
X128035714Y-64431009D02*
X128083333Y-64526247D01*
X128083333Y-64526247D02*
X128083333Y-64764342D01*
X128083333Y-64764342D02*
X128035714Y-64859580D01*
X128035714Y-64859580D02*
X127988095Y-64907200D01*
X127988095Y-64907200D02*
X127892857Y-64954819D01*
X127892857Y-64954819D02*
X127607143Y-64954819D01*
X127607143Y-64954819D02*
X127511905Y-64907200D01*
X127511905Y-64907200D02*
X127464286Y-64859580D01*
X110416667Y-64907200D02*
X110559524Y-64954819D01*
X110559524Y-64954819D02*
X110797619Y-64954819D01*
X110797619Y-64954819D02*
X110892857Y-64907200D01*
X110892857Y-64907200D02*
X110940476Y-64859580D01*
X110940476Y-64859580D02*
X110988095Y-64764342D01*
X110988095Y-64764342D02*
X110988095Y-64669104D01*
X110988095Y-64669104D02*
X110940476Y-64573866D01*
X110940476Y-64573866D02*
X110892857Y-64526247D01*
X110892857Y-64526247D02*
X110797619Y-64478628D01*
X110797619Y-64478628D02*
X110607143Y-64431009D01*
X110607143Y-64431009D02*
X110511905Y-64383390D01*
X110511905Y-64383390D02*
X110464286Y-64335771D01*
X110464286Y-64335771D02*
X110416667Y-64240533D01*
X110416667Y-64240533D02*
X110416667Y-64145295D01*
X110416667Y-64145295D02*
X110464286Y-64050057D01*
X110464286Y-64050057D02*
X110511905Y-64002438D01*
X110511905Y-64002438D02*
X110607143Y-63954819D01*
X110607143Y-63954819D02*
X110845238Y-63954819D01*
X110845238Y-63954819D02*
X110988095Y-64002438D01*
X111321429Y-63954819D02*
X111559524Y-64954819D01*
X111559524Y-64954819D02*
X111750000Y-64240533D01*
X111750000Y-64240533D02*
X111940476Y-64954819D01*
X111940476Y-64954819D02*
X112178572Y-63954819D01*
X113035714Y-63954819D02*
X112559524Y-63954819D01*
X112559524Y-63954819D02*
X112511905Y-64431009D01*
X112511905Y-64431009D02*
X112559524Y-64383390D01*
X112559524Y-64383390D02*
X112654762Y-64335771D01*
X112654762Y-64335771D02*
X112892857Y-64335771D01*
X112892857Y-64335771D02*
X112988095Y-64383390D01*
X112988095Y-64383390D02*
X113035714Y-64431009D01*
X113035714Y-64431009D02*
X113083333Y-64526247D01*
X113083333Y-64526247D02*
X113083333Y-64764342D01*
X113083333Y-64764342D02*
X113035714Y-64859580D01*
X113035714Y-64859580D02*
X112988095Y-64907200D01*
X112988095Y-64907200D02*
X112892857Y-64954819D01*
X112892857Y-64954819D02*
X112654762Y-64954819D01*
X112654762Y-64954819D02*
X112559524Y-64907200D01*
X112559524Y-64907200D02*
X112511905Y-64859580D01*
X112738095Y-34606819D02*
X113309523Y-34606819D01*
X113023809Y-35606819D02*
X113023809Y-34606819D01*
X113642857Y-35606819D02*
X113642857Y-34606819D01*
X113642857Y-34606819D02*
X114023809Y-34606819D01*
X114023809Y-34606819D02*
X114119047Y-34654438D01*
X114119047Y-34654438D02*
X114166666Y-34702057D01*
X114166666Y-34702057D02*
X114214285Y-34797295D01*
X114214285Y-34797295D02*
X114214285Y-34940152D01*
X114214285Y-34940152D02*
X114166666Y-35035390D01*
X114166666Y-35035390D02*
X114119047Y-35083009D01*
X114119047Y-35083009D02*
X114023809Y-35130628D01*
X114023809Y-35130628D02*
X113642857Y-35130628D01*
X115071428Y-34606819D02*
X114880952Y-34606819D01*
X114880952Y-34606819D02*
X114785714Y-34654438D01*
X114785714Y-34654438D02*
X114738095Y-34702057D01*
X114738095Y-34702057D02*
X114642857Y-34844914D01*
X114642857Y-34844914D02*
X114595238Y-35035390D01*
X114595238Y-35035390D02*
X114595238Y-35416342D01*
X114595238Y-35416342D02*
X114642857Y-35511580D01*
X114642857Y-35511580D02*
X114690476Y-35559200D01*
X114690476Y-35559200D02*
X114785714Y-35606819D01*
X114785714Y-35606819D02*
X114976190Y-35606819D01*
X114976190Y-35606819D02*
X115071428Y-35559200D01*
X115071428Y-35559200D02*
X115119047Y-35511580D01*
X115119047Y-35511580D02*
X115166666Y-35416342D01*
X115166666Y-35416342D02*
X115166666Y-35178247D01*
X115166666Y-35178247D02*
X115119047Y-35083009D01*
X115119047Y-35083009D02*
X115071428Y-35035390D01*
X115071428Y-35035390D02*
X114976190Y-34987771D01*
X114976190Y-34987771D02*
X114785714Y-34987771D01*
X114785714Y-34987771D02*
X114690476Y-35035390D01*
X114690476Y-35035390D02*
X114642857Y-35083009D01*
X114642857Y-35083009D02*
X114595238Y-35178247D01*
X134738095Y-40506819D02*
X135309523Y-40506819D01*
X135023809Y-41506819D02*
X135023809Y-40506819D01*
X135642857Y-41506819D02*
X135642857Y-40506819D01*
X135642857Y-40506819D02*
X136023809Y-40506819D01*
X136023809Y-40506819D02*
X136119047Y-40554438D01*
X136119047Y-40554438D02*
X136166666Y-40602057D01*
X136166666Y-40602057D02*
X136214285Y-40697295D01*
X136214285Y-40697295D02*
X136214285Y-40840152D01*
X136214285Y-40840152D02*
X136166666Y-40935390D01*
X136166666Y-40935390D02*
X136119047Y-40983009D01*
X136119047Y-40983009D02*
X136023809Y-41030628D01*
X136023809Y-41030628D02*
X135642857Y-41030628D01*
X137071428Y-40840152D02*
X137071428Y-41506819D01*
X136833333Y-40459200D02*
X136595238Y-41173485D01*
X136595238Y-41173485D02*
X137214285Y-41173485D01*
X110416667Y-49907200D02*
X110559524Y-49954819D01*
X110559524Y-49954819D02*
X110797619Y-49954819D01*
X110797619Y-49954819D02*
X110892857Y-49907200D01*
X110892857Y-49907200D02*
X110940476Y-49859580D01*
X110940476Y-49859580D02*
X110988095Y-49764342D01*
X110988095Y-49764342D02*
X110988095Y-49669104D01*
X110988095Y-49669104D02*
X110940476Y-49573866D01*
X110940476Y-49573866D02*
X110892857Y-49526247D01*
X110892857Y-49526247D02*
X110797619Y-49478628D01*
X110797619Y-49478628D02*
X110607143Y-49431009D01*
X110607143Y-49431009D02*
X110511905Y-49383390D01*
X110511905Y-49383390D02*
X110464286Y-49335771D01*
X110464286Y-49335771D02*
X110416667Y-49240533D01*
X110416667Y-49240533D02*
X110416667Y-49145295D01*
X110416667Y-49145295D02*
X110464286Y-49050057D01*
X110464286Y-49050057D02*
X110511905Y-49002438D01*
X110511905Y-49002438D02*
X110607143Y-48954819D01*
X110607143Y-48954819D02*
X110845238Y-48954819D01*
X110845238Y-48954819D02*
X110988095Y-49002438D01*
X111321429Y-48954819D02*
X111559524Y-49954819D01*
X111559524Y-49954819D02*
X111750000Y-49240533D01*
X111750000Y-49240533D02*
X111940476Y-49954819D01*
X111940476Y-49954819D02*
X112178572Y-48954819D01*
X112988095Y-49288152D02*
X112988095Y-49954819D01*
X112750000Y-48907200D02*
X112511905Y-49621485D01*
X112511905Y-49621485D02*
X113130952Y-49621485D01*
X127538095Y-41806819D02*
X128109523Y-41806819D01*
X127823809Y-42806819D02*
X127823809Y-41806819D01*
X128442857Y-42806819D02*
X128442857Y-41806819D01*
X128442857Y-41806819D02*
X128823809Y-41806819D01*
X128823809Y-41806819D02*
X128919047Y-41854438D01*
X128919047Y-41854438D02*
X128966666Y-41902057D01*
X128966666Y-41902057D02*
X129014285Y-41997295D01*
X129014285Y-41997295D02*
X129014285Y-42140152D01*
X129014285Y-42140152D02*
X128966666Y-42235390D01*
X128966666Y-42235390D02*
X128919047Y-42283009D01*
X128919047Y-42283009D02*
X128823809Y-42330628D01*
X128823809Y-42330628D02*
X128442857Y-42330628D01*
X129347619Y-41806819D02*
X129966666Y-41806819D01*
X129966666Y-41806819D02*
X129633333Y-42187771D01*
X129633333Y-42187771D02*
X129776190Y-42187771D01*
X129776190Y-42187771D02*
X129871428Y-42235390D01*
X129871428Y-42235390D02*
X129919047Y-42283009D01*
X129919047Y-42283009D02*
X129966666Y-42378247D01*
X129966666Y-42378247D02*
X129966666Y-42616342D01*
X129966666Y-42616342D02*
X129919047Y-42711580D01*
X129919047Y-42711580D02*
X129871428Y-42759200D01*
X129871428Y-42759200D02*
X129776190Y-42806819D01*
X129776190Y-42806819D02*
X129490476Y-42806819D01*
X129490476Y-42806819D02*
X129395238Y-42759200D01*
X129395238Y-42759200D02*
X129347619Y-42711580D01*
X125538095Y-31906819D02*
X126109523Y-31906819D01*
X125823809Y-32906819D02*
X125823809Y-31906819D01*
X126442857Y-32906819D02*
X126442857Y-31906819D01*
X126442857Y-31906819D02*
X126823809Y-31906819D01*
X126823809Y-31906819D02*
X126919047Y-31954438D01*
X126919047Y-31954438D02*
X126966666Y-32002057D01*
X126966666Y-32002057D02*
X127014285Y-32097295D01*
X127014285Y-32097295D02*
X127014285Y-32240152D01*
X127014285Y-32240152D02*
X126966666Y-32335390D01*
X126966666Y-32335390D02*
X126919047Y-32383009D01*
X126919047Y-32383009D02*
X126823809Y-32430628D01*
X126823809Y-32430628D02*
X126442857Y-32430628D01*
X127919047Y-31906819D02*
X127442857Y-31906819D01*
X127442857Y-31906819D02*
X127395238Y-32383009D01*
X127395238Y-32383009D02*
X127442857Y-32335390D01*
X127442857Y-32335390D02*
X127538095Y-32287771D01*
X127538095Y-32287771D02*
X127776190Y-32287771D01*
X127776190Y-32287771D02*
X127871428Y-32335390D01*
X127871428Y-32335390D02*
X127919047Y-32383009D01*
X127919047Y-32383009D02*
X127966666Y-32478247D01*
X127966666Y-32478247D02*
X127966666Y-32716342D01*
X127966666Y-32716342D02*
X127919047Y-32811580D01*
X127919047Y-32811580D02*
X127871428Y-32859200D01*
X127871428Y-32859200D02*
X127776190Y-32906819D01*
X127776190Y-32906819D02*
X127538095Y-32906819D01*
X127538095Y-32906819D02*
X127442857Y-32859200D01*
X127442857Y-32859200D02*
X127395238Y-32811580D01*
X101038095Y-53606819D02*
X101609523Y-53606819D01*
X101323809Y-54606819D02*
X101323809Y-53606819D01*
X101942857Y-54606819D02*
X101942857Y-53606819D01*
X101942857Y-53606819D02*
X102323809Y-53606819D01*
X102323809Y-53606819D02*
X102419047Y-53654438D01*
X102419047Y-53654438D02*
X102466666Y-53702057D01*
X102466666Y-53702057D02*
X102514285Y-53797295D01*
X102514285Y-53797295D02*
X102514285Y-53940152D01*
X102514285Y-53940152D02*
X102466666Y-54035390D01*
X102466666Y-54035390D02*
X102419047Y-54083009D01*
X102419047Y-54083009D02*
X102323809Y-54130628D01*
X102323809Y-54130628D02*
X101942857Y-54130628D01*
X103466666Y-54606819D02*
X102895238Y-54606819D01*
X103180952Y-54606819D02*
X103180952Y-53606819D01*
X103180952Y-53606819D02*
X103085714Y-53749676D01*
X103085714Y-53749676D02*
X102990476Y-53844914D01*
X102990476Y-53844914D02*
X102895238Y-53892533D01*
X102044819Y-41083333D02*
X102759104Y-41083333D01*
X102759104Y-41083333D02*
X102901961Y-41130952D01*
X102901961Y-41130952D02*
X102997200Y-41226190D01*
X102997200Y-41226190D02*
X103044819Y-41369047D01*
X103044819Y-41369047D02*
X103044819Y-41464285D01*
X102140057Y-40654761D02*
X102092438Y-40607142D01*
X102092438Y-40607142D02*
X102044819Y-40511904D01*
X102044819Y-40511904D02*
X102044819Y-40273809D01*
X102044819Y-40273809D02*
X102092438Y-40178571D01*
X102092438Y-40178571D02*
X102140057Y-40130952D01*
X102140057Y-40130952D02*
X102235295Y-40083333D01*
X102235295Y-40083333D02*
X102330533Y-40083333D01*
X102330533Y-40083333D02*
X102473390Y-40130952D01*
X102473390Y-40130952D02*
X103044819Y-40702380D01*
X103044819Y-40702380D02*
X103044819Y-40083333D01*
D11*
%TO.C,TP2*%
X99550000Y-43950000D02*
X101450000Y-43950000D01*
X99550000Y-45850000D02*
X99550000Y-43950000D01*
X101450000Y-43950000D02*
X101450000Y-45850000D01*
X101450000Y-45850000D02*
X99550000Y-45850000D01*
%TO.C,SW1*%
X123250000Y-83000000D02*
X123250000Y-84500000D01*
X124500000Y-87000000D02*
X129000000Y-87000000D01*
X129000000Y-80500000D02*
X124500000Y-80500000D01*
X130250000Y-84500000D02*
X130250000Y-83000000D01*
%TO.C,SW2*%
X123250000Y-53000000D02*
X123250000Y-54500000D01*
X124500000Y-57000000D02*
X129000000Y-57000000D01*
X129000000Y-50500000D02*
X124500000Y-50500000D01*
X130250000Y-54500000D02*
X130250000Y-53000000D01*
%TO.C,R1*%
X132970000Y-50820000D02*
X133300000Y-50820000D01*
X132970000Y-57360000D02*
X132970000Y-50820000D01*
X133300000Y-57360000D02*
X132970000Y-57360000D01*
X135380000Y-57360000D02*
X135710000Y-57360000D01*
X135710000Y-50820000D02*
X135380000Y-50820000D01*
X135710000Y-57360000D02*
X135710000Y-50820000D01*
%TO.C,R2*%
X136430000Y-50830000D02*
X136760000Y-50830000D01*
X136430000Y-57370000D02*
X136430000Y-50830000D01*
X136760000Y-57370000D02*
X136430000Y-57370000D01*
X138840000Y-57370000D02*
X139170000Y-57370000D01*
X139170000Y-50830000D02*
X138840000Y-50830000D01*
X139170000Y-57370000D02*
X139170000Y-50830000D01*
D12*
%TO.C,RV1*%
X90000000Y-42500000D02*
X95000000Y-42500000D01*
X90000000Y-59500000D02*
X90000000Y-42500000D01*
X95000000Y-42500000D02*
X95000000Y-59500000D01*
X95000000Y-59500000D02*
X90000000Y-59500000D01*
D11*
%TO.C,SW3*%
X123250000Y-68000000D02*
X123250000Y-69500000D01*
X124500000Y-72000000D02*
X129000000Y-72000000D01*
X129000000Y-65500000D02*
X124500000Y-65500000D01*
X130250000Y-69500000D02*
X130250000Y-68000000D01*
%TO.C,SW5*%
X108250000Y-68000000D02*
X108250000Y-69500000D01*
X109500000Y-72000000D02*
X114000000Y-72000000D01*
X114000000Y-65500000D02*
X109500000Y-65500000D01*
X115250000Y-69500000D02*
X115250000Y-68000000D01*
%TO.C,TP6*%
X113050000Y-35850000D02*
X114950000Y-35850000D01*
X113050000Y-37750000D02*
X113050000Y-35850000D01*
X114950000Y-35850000D02*
X114950000Y-37750000D01*
X114950000Y-37750000D02*
X113050000Y-37750000D01*
%TO.C,TP4*%
X135050000Y-41750000D02*
X136950000Y-41750000D01*
X135050000Y-43650000D02*
X135050000Y-41750000D01*
X136950000Y-41750000D02*
X136950000Y-43650000D01*
X136950000Y-43650000D02*
X135050000Y-43650000D01*
%TO.C,SW4*%
X108250000Y-53000000D02*
X108250000Y-54500000D01*
X109500000Y-57000000D02*
X114000000Y-57000000D01*
X114000000Y-50500000D02*
X109500000Y-50500000D01*
X115250000Y-54500000D02*
X115250000Y-53000000D01*
%TO.C,TP3*%
X127850000Y-43050000D02*
X129750000Y-43050000D01*
X127850000Y-44950000D02*
X127850000Y-43050000D01*
X129750000Y-43050000D02*
X129750000Y-44950000D01*
X129750000Y-44950000D02*
X127850000Y-44950000D01*
%TO.C,TP5*%
X125850000Y-33150000D02*
X127750000Y-33150000D01*
X125850000Y-35050000D02*
X125850000Y-33150000D01*
X127750000Y-33150000D02*
X127750000Y-35050000D01*
X127750000Y-35050000D02*
X125850000Y-35050000D01*
%TO.C,TP1*%
X101350000Y-54850000D02*
X103250000Y-54850000D01*
X101350000Y-56750000D02*
X101350000Y-54850000D01*
X103250000Y-54850000D02*
X103250000Y-56750000D01*
X103250000Y-56750000D02*
X101350000Y-56750000D01*
%TD*%
M02*
