%TF.GenerationSoftware,KiCad,Pcbnew,8.0.5*%
%TF.CreationDate,2024-11-11T21:26:14+01:00*%
%TF.ProjectId,LCD_PCB,4c43445f-5043-4422-9e6b-696361645f70,rev?*%
%TF.SameCoordinates,Original*%
%TF.FileFunction,Soldermask,Bot*%
%TF.FilePolarity,Negative*%
%FSLAX46Y46*%
G04 Gerber Fmt 4.6, Leading zero omitted, Abs format (unit mm)*
G04 Created by KiCad (PCBNEW 8.0.5) date 2024-11-11 21:26:14*
%MOMM*%
%LPD*%
G01*
G04 APERTURE LIST*
%ADD10C,2.000000*%
%ADD11C,1.600000*%
%ADD12O,1.600000X1.600000*%
%ADD13C,3.200000*%
%ADD14R,1.500000X1.500000*%
%ADD15C,1.500000*%
%ADD16R,1.700000X1.700000*%
%ADD17O,1.700000X1.700000*%
G04 APERTURE END LIST*
D10*
%TO.C,SW1*%
X123500000Y-81500000D03*
X130000000Y-81500000D03*
X123500000Y-86000000D03*
X130000000Y-86000000D03*
%TD*%
%TO.C,SW2*%
X123500000Y-51500000D03*
X130000000Y-51500000D03*
X123500000Y-56000000D03*
X130000000Y-56000000D03*
%TD*%
D11*
%TO.C,R1*%
X134340000Y-57900000D03*
D12*
X134340000Y-50280000D03*
%TD*%
D13*
%TO.C,H1*%
X94013351Y-36613351D03*
%TD*%
D11*
%TO.C,R2*%
X137800000Y-57910000D03*
D12*
X137800000Y-50290000D03*
%TD*%
D14*
%TO.C,RV1*%
X94000000Y-56000000D03*
D15*
X94000000Y-51000000D03*
X94000000Y-46000000D03*
%TD*%
D13*
%TO.C,H3*%
X94063351Y-87936649D03*
%TD*%
D10*
%TO.C,SW3*%
X123500000Y-66500000D03*
X130000000Y-66500000D03*
X123500000Y-71000000D03*
X130000000Y-71000000D03*
%TD*%
D13*
%TO.C,H4*%
X140386649Y-87986649D03*
%TD*%
%TO.C,H2*%
X140386649Y-36613351D03*
%TD*%
D10*
%TO.C,SW5*%
X108500000Y-66500000D03*
X115000000Y-66500000D03*
X108500000Y-71000000D03*
X115000000Y-71000000D03*
%TD*%
%TO.C,SW4*%
X108500000Y-51500000D03*
X115000000Y-51500000D03*
X108500000Y-56000000D03*
X115000000Y-56000000D03*
%TD*%
D16*
%TO.C,J1*%
X132200000Y-43550000D03*
D17*
X132200000Y-41010000D03*
X132200000Y-38470000D03*
X132200000Y-35930000D03*
%TD*%
D16*
%TO.C,J2*%
X104920000Y-40750000D03*
D17*
X107460000Y-40750000D03*
X110000000Y-40750000D03*
X112540000Y-40750000D03*
X115080000Y-40750000D03*
X117620000Y-40750000D03*
X120160000Y-40750000D03*
X122700000Y-40750000D03*
X125240000Y-40750000D03*
X127780000Y-40750000D03*
%TD*%
M02*
