M48
; DRILL file {KiCad 8.0.5} date 2024-11-11T21:26:49+0100
; FORMAT={-:-/ absolute / metric / decimal}
; #@! TF.CreationDate,2024-11-11T21:26:49+01:00
; #@! TF.GenerationSoftware,Kicad,Pcbnew,8.0.5
; #@! TF.FileFunction,Plated,1,2,PTH
FMAT,2
METRIC
; #@! TA.AperFunction,Plated,PTH,ComponentDrill
T1C0.800
; #@! TA.AperFunction,Plated,PTH,ViaDrill
T2C1.000
; #@! TA.AperFunction,Plated,PTH,ComponentDrill
T3C1.000
; #@! TA.AperFunction,Plated,PTH,ComponentDrill
T4C1.100
%
G90
G05
T1
X134.34Y-50.28
X134.34Y-57.9
X137.8Y-50.29
X137.8Y-57.91
T2
X96.75Y-43.75
X97.0Y-48.75
X105.85Y-63.85
X112.55Y-47.35
X120.95Y-78.95
X123.5Y-48.05
X123.5Y-62.9
X126.7Y-47.2
X127.5Y-34.0
X134.3Y-46.7
X137.8Y-46.85
X141.2Y-57.85
T3
X104.92Y-40.75
X107.46Y-40.75
X110.0Y-40.75
X112.54Y-40.75
X115.08Y-40.75
X117.62Y-40.75
X120.16Y-40.75
X122.7Y-40.75
X125.24Y-40.75
X127.78Y-40.75
X132.2Y-35.93
X132.2Y-38.47
X132.2Y-41.01
X132.2Y-43.55
T4
X94.0Y-46.0
X94.0Y-51.0
X94.0Y-56.0
X108.5Y-51.5
X108.5Y-56.0
X108.5Y-66.5
X108.5Y-71.0
X115.0Y-51.5
X115.0Y-56.0
X115.0Y-66.5
X115.0Y-71.0
X123.5Y-51.5
X123.5Y-56.0
X123.5Y-66.5
X123.5Y-71.0
X123.5Y-81.5
X123.5Y-86.0
X130.0Y-51.5
X130.0Y-56.0
X130.0Y-66.5
X130.0Y-71.0
X130.0Y-81.5
X130.0Y-86.0
M30
