0
SECTION
2
HEADER
9
$INSUNITS
70
4
9
$ACADVER
1
AC1014
9
$HANDSEED
5
FFFF
0
ENDSEC
0
SECTION
2
TABLES
0
TABLE
2
VPORT
5
8
100
AcDbSymbolTable
0
ENDTAB
0
TABLE
2
LTYPE
5
5
100
AcDbSymbolTable
0
LTYPE
5
14
100
AcDbSymbolTableRecord
100
AcDbLinetypeTableRecord
2
BYBLOCK
70
0
0
LTYPE
5
15
100
AcDbSymbolTableRecord
100
AcDbLinetypeTableRecord
2
BYLAYER
70
0
0
ENDTAB
0
TABLE
2
LAYER
5
2
100
AcDbSymbolTable
70
2
0
LAYER
5
50
100
AcDbSymbolTableRecord
100
AcDbLayerTableRecord
2
0
70
0
6
CONTINUOUS
0
ENDTAB
0
TABLE
2
STYLE
5
3
100
AcDbSymbolTable
70
1
0
STYLE
5
11
100
AcDbSymbolTableRecord
100
AcDbTextStyleTableRecord
2
STANDARD
70
0
0
ENDTAB
0
TABLE
2
VIEW
5
6
100
AcDbSymbolTable
70
0
0
ENDTAB
0
TABLE
2
UCS
5
7
100
AcDbSymbolTable
70
0
0
ENDTAB
0
TABLE
2
APPID
5
9
100
AcDbSymbolTable
70
2
0
APPID
5
12
100
AcDbSymbolTableRecord
100
AcDbRegAppTableRecord
2
ACAD
70
0
0
ENDTAB
0
TABLE
2
DIMSTYLE
5
A
100
AcDbSymbolTable
70
1
0
ENDTAB
0
TABLE
2
BLOCK_RECORD
5
1
100
AcDbSymbolTable
70
1
0
BLOCK_RECORD
5
1F
100
AcDbSymbolTableRecord
100
AcDbBlockTableRecord
2
*MODEL_SPACE
0
BLOCK_RECORD
5
1B
100
AcDbSymbolTableRecord
100
AcDbBlockTableRecord
2
*PAPER_SPACE
0
ENDTAB
0
ENDSEC
0
SECTION
2
BLOCKS
0
BLOCK
5
20
100
AcDbEntity
100
AcDbBlockBegin
2
*MODEL_SPACE
0
ENDBLK
5
21
100
AcDbEntity
100
AcDbBlockEnd
0
BLOCK
5
1C
100
AcDbEntity
100
AcDbBlockBegin
2
*PAPER_SPACE
0
ENDBLK
5
1D
100
AcDbEntity
100
AcDbBlockEnd
0
ENDSEC
0
SECTION
2
ENTITIES
0
LINE
5
100
100
AcDbEntity
8
0
100
AcDbLine
10
260
20
81
30
0
11
30
21
81
31
0
0
LINE
5
101
100
AcDbEntity
8
0
100
AcDbLine
10
260.00000387430191
20
11.000000163912773
30
0
11
263.00000391900539
21
11.000000163912773
31
0
0
LINE
5
102
100
AcDbEntity
8
0
100
AcDbLine
10
263.00000391900539
20
11.000000163912773
30
0
11
263.00000391900539
21
31.000000461935997
31
0
0
LINE
5
103
100
AcDbEntity
8
0
100
AcDbLine
10
263.00000391900539
20
31.000000461935997
30
0
11
260
21
31.000000461935997
31
0
0
LINE
5
104
100
AcDbEntity
8
0
100
AcDbLine
10
260.00000387430191
20
51.000000759959221
30
0
11
263.00000391900539
21
51.000000759959221
31
0
0
LINE
5
105
100
AcDbEntity
8
0
100
AcDbLine
10
263.00000391900539
20
51.000000759959221
30
0
11
263.00000391900539
21
71.000001057982445
31
0
0
LINE
5
106
100
AcDbEntity
8
0
100
AcDbLine
10
263.00000391900539
20
71.000001057982445
30
0
11
260
21
71.000001057982445
31
0
0
LINE
5
107
100
AcDbEntity
8
0
100
AcDbLine
10
30.000000447034836
20
11.000000163912773
30
0
11
27.000000402331352
21
11.000000163912773
31
0
0
LINE
5
108
100
AcDbEntity
8
0
100
AcDbLine
10
27.000000402331352
20
11.000000163912773
30
0
11
27.000000402331352
21
31.000000461935997
31
0
0
LINE
5
109
100
AcDbEntity
8
0
100
AcDbLine
10
30.000000447034836
20
31.000000461935997
30
0
11
27.000000402331352
21
31.000000461935997
31
0
0
LINE
5
110
100
AcDbEntity
8
0
100
AcDbLine
10
30.000000447034836
20
51.000000759959221
30
0
11
27.000000402331352
21
51.000000759959221
31
0
0
LINE
5
111
100
AcDbEntity
8
0
100
AcDbLine
10
27.000000402331352
20
51.000000759959221
30
0
11
27.000000402331352
21
71.000001057982445
31
0
0
LINE
5
112
100
AcDbEntity
8
0
100
AcDbLine
10
27.000000402331352
20
71.000001057982445
30
0
11
30
21
71.000001057982445
31
0
0
LINE
5
113
100
AcDbEntity
8
0
100
AcDbLine
10
30
20
81
30
0
11
30
21
71.000001057982445
31
0
0
LINE
5
114
100
AcDbEntity
8
0
100
AcDbLine
10
30.000000447034836
20
51.000000759959221
30
0
11
30.000000447034836
21
31.000000461935997
31
0
0
LINE
5
115
100
AcDbEntity
8
0
100
AcDbLine
10
30.000000447034836
20
11.000000163912773
30
0
11
30
21
0
31
0
0
LINE
5
116
100
AcDbEntity
8
0
100
AcDbLine
10
260
20
71.000001057982445
30
0
11
260
21
81
31
0
0
LINE
5
117
100
AcDbEntity
8
0
100
AcDbLine
10
260
20
0
30
0
11
260.00000387430191
21
11.000000163912773
31
0
0
LINE
5
118
100
AcDbEntity
8
0
100
AcDbLine
10
260
20
31.000000461935997
30
0
11
260.00000387430191
21
51.000000759959221
31
0
0
LINE
5
119
100
AcDbEntity
8
0
100
AcDbLine
10
60
20
0
30
0
11
60
21
45
31
0
0
LINE
5
120
100
AcDbEntity
8
0
100
AcDbLine
10
60
20
45
30
0
11
80
21
45
31
0
0
LINE
5
121
100
AcDbEntity
8
0
100
AcDbLine
10
80
20
45
30
0
11
80
21
-0.97467853122424231
31
0
0
LINE
5
122
100
AcDbEntity
8
0
100
AcDbLine
10
30
20
0
30
0
11
60
21
0
31
0
0
LINE
5
123
100
AcDbEntity
8
0
100
AcDbLine
10
80
20
0
30
0
11
260
21
0
31
0
0
LWPOLYLINE
5
124
100
AcDbEntity
8
0
100
AcDbPolyline
90
26
70
1
43
0.0
10
29.999995862016998
20
-48.999999240040779
10
29.999995862016998
20
-68.999999538064003
10
27.000000402331352
20
-68.999999538064003
10
27.000000402331352
20
-88.999999823669285
10
29.999995862016998
20
-88.999999823669285
10
29.999995862017002
20
-100.00000000000097
10
60
20
-100.00000000000097
10
80
20
-100.00000000000097
10
209.99999172403398
20
-100.00000000000097
10
209.99999172403398
20
-55
10
229.99999172403398
20
-55
10
229.99999172403398
20
-100.00000000000097
10
259.99999586201716
20
-100.00000000000097
10
259.99999973630838
20
-89.000030008679204
10
263.00000286237048
20
-89.000031065308093
10
263.00000990655735
20
-69.000026458357965
10
260.00000678049526
20
-69.00002540172909
10
260.00001382467877
20
-49.000029412636366
10
263.00000755849555
20
-49.000030469261944
10
263.00001460268231
20
-29.000025849829782
10
260.00002086886587
20
-29.000024793204204
10
260.00002439096693
20
-19.000000000001034
10
29.999995862016998
20
-19.000000000001034
10
29.999995862016998
20
-28.999998942017555
10
27.000000402331352
20
-28.999998942017555
10
27.000000402331352
20
-48.999999240040779
0
LINE
5
125
100
AcDbEntity
8
0
100
AcDbLine
10
26.999984165538464
20
-49.000030469261944
30
0
11
26.999977121351648
21
-29.000025849829782
31
0
0
LINE
5
126
100
AcDbEntity
8
0
100
AcDbLine
10
26.999981817476666
20
-69.000026458357965
30
0
11
29.999984943538713
21
-69.00002540172909
31
0
0
LINE
5
127
100
AcDbEntity
8
0
100
AcDbLine
10
29.999977899355201
20
-49.000029412636366
30
0
11
26.999984165538464
21
-49.000030469261944
31
0
0
LINE
5
128
100
AcDbEntity
8
0
100
AcDbLine
10
259.99999586201699
20
-19.000000000001034
30
0
11
259.99999586201699
21
-28.999998942017555
31
0
0
LINE
5
129
100
AcDbEntity
8
0
100
AcDbLine
10
259.99999586201699
20
-48.999999240040779
30
0
11
262.99999132170262
21
-48.999999240040779
31
0
0
LINE
5
130
100
AcDbEntity
8
0
100
AcDbLine
10
259.99999586201699
20
-100.00000000000097
30
0
11
229.99999172403398
21
-100.00000000000097
31
0
0
LINE
5
131
100
AcDbEntity
8
0
100
AcDbLine
10
262.99999132170262
20
-48.999999240040779
30
0
11
262.99999132170262
21
-28.999998942017555
31
0
0
LINE
5
132
100
AcDbEntity
8
0
100
AcDbLine
10
259.99999586201699
20
-48.999999240040779
30
0
11
259.99999586201699
21
-68.999999538064003
31
0
0
LINE
5
133
100
AcDbEntity
8
0
100
AcDbLine
10
29.999967333067055
20
-19.000000000001034
30
0
11
259.99999586201699
21
-19.000000000001034
31
0
0
LINE
5
134
100
AcDbEntity
8
0
100
AcDbLine
10
262.99999132170262
20
-28.999998942017555
30
0
11
259.99999586201699
21
-28.999998942017555
31
0
0
LINE
5
135
100
AcDbEntity
8
0
100
AcDbLine
10
259.99999586201699
20
-88.999999823669285
30
0
11
259.99999586201699
21
-100.00000000000097
31
0
0
LINE
5
136
100
AcDbEntity
8
0
100
AcDbLine
10
259.99999586201699
20
-68.999999538064003
30
0
11
262.99999132170262
21
-68.999999538064003
31
0
0
LINE
5
137
100
AcDbEntity
8
0
100
AcDbLine
10
262.99999132170262
20
-88.999999823669285
30
0
11
262.99999132170262
21
-68.999999538064003
31
0
0
LINE
5
138
100
AcDbEntity
8
0
100
AcDbLine
10
259.99999586201699
20
-88.999999823669285
30
0
11
262.99999132170262
21
-88.999999823669285
31
0
0
LINE
5
139
100
AcDbEntity
8
0
100
AcDbLine
10
26.999988861663482
20
-89.000031065308093
30
0
11
26.999981817476666
21
-69.000026458357965
31
0
0
LINE
5
140
100
AcDbEntity
8
0
100
AcDbLine
10
29.999995862016817
20
-100.00000000000097
30
0
11
29.9999919877256
21
-89.000030008679204
31
0
0
LINE
5
141
100
AcDbEntity
8
0
100
AcDbLine
10
26.999977121351648
20
-29.000025849829782
30
0
11
29.999970855168101
21
-29.000024793204204
31
0
0
LINE
5
142
100
AcDbEntity
8
0
100
AcDbLine
10
29.999984943538713
20
-69.00002540172909
30
0
11
29.999977899355201
21
-49.000029412636366
31
0
0
LINE
5
143
100
AcDbEntity
8
0
100
AcDbLine
10
29.999970855168101
20
-29.000024793204204
30
0
11
29.999967333067055
21
-19.000000000001034
31
0
0
LINE
5
144
100
AcDbEntity
8
0
100
AcDbLine
10
29.9999919877256
20
-89.000030008679204
30
0
11
26.999988861663482
21
-89.000031065308093
31
0
0
ENDSEC
0
SECTION
2
OBJECTS
0
DICTIONARY
5
C
100
AcDbDictionary
3
ACAD_GROUP
350
D
3
ACAD_MLINESTYLE
350
17
0
DICTIONARY
5
D
100
AcDbDictionary
0
DICTIONARY
5
1A
330
C
100
AcDbDictionary
0
DICTIONARY
5
17
100
AcDbDictionary
0
ENDSEC
0
EOF
