0
SECTION
2
HEADER
9
$INSUNITS
70
4
9
$ACADVER
1
AC1014
9
$HANDSEED
5
FFFF
0
ENDSEC
0
SECTION
2
TABLES
0
TABLE
2
VPORT
5
8
100
AcDbSymbolTable
0
ENDTAB
0
TABLE
2
LTYPE
5
5
100
AcDbSymbolTable
0
LTYPE
5
14
100
AcDbSymbolTableRecord
100
AcDbLinetypeTableRecord
2
BYBLOCK
70
0
0
LTYPE
5
15
100
AcDbSymbolTableRecord
100
AcDbLinetypeTableRecord
2
BYLAYER
70
0
0
ENDTAB
0
TABLE
2
LAYER
5
2
100
AcDbSymbolTable
70
2
0
LAYER
5
50
100
AcDbSymbolTableRecord
100
AcDbLayerTableRecord
2
0
70
0
6
CONTINUOUS
0
ENDTAB
0
TABLE
2
STYLE
5
3
100
AcDbSymbolTable
70
1
0
STYLE
5
11
100
AcDbSymbolTableRecord
100
AcDbTextStyleTableRecord
2
STANDARD
70
0
0
ENDTAB
0
TABLE
2
VIEW
5
6
100
AcDbSymbolTable
70
0
0
ENDTAB
0
TABLE
2
UCS
5
7
100
AcDbSymbolTable
70
0
0
ENDTAB
0
TABLE
2
APPID
5
9
100
AcDbSymbolTable
70
2
0
APPID
5
12
100
AcDbSymbolTableRecord
100
AcDbRegAppTableRecord
2
ACAD
70
0
0
ENDTAB
0
TABLE
2
DIMSTYLE
5
A
100
AcDbSymbolTable
70
1
0
ENDTAB
0
TABLE
2
BLOCK_RECORD
5
1
100
AcDbSymbolTable
70
1
0
BLOCK_RECORD
5
1F
100
AcDbSymbolTableRecord
100
AcDbBlockTableRecord
2
*MODEL_SPACE
0
BLOCK_RECORD
5
1B
100
AcDbSymbolTableRecord
100
AcDbBlockTableRecord
2
*PAPER_SPACE
0
ENDTAB
0
ENDSEC
0
SECTION
2
BLOCKS
0
BLOCK
5
20
100
AcDbEntity
100
AcDbBlockBegin
2
*MODEL_SPACE
0
ENDBLK
5
21
100
AcDbEntity
100
AcDbBlockEnd
0
BLOCK
5
1C
100
AcDbEntity
100
AcDbBlockBegin
2
*PAPER_SPACE
0
ENDBLK
5
1D
100
AcDbEntity
100
AcDbBlockEnd
0
ENDSEC
0
SECTION
2
ENTITIES
0
LWPOLYLINE
5
100
100
AcDbEntity
8
0
100
AcDbPolyline
90
28
70
1
43
0.0
10
524.99999999987585
20
100.40468592172709
10
294.99999994534392
20
100.40468592172709
10
292.00000435069109
20
100.40053628570043
10
292.00000435069092
20
90.000001341104507
10
295.0000145058483
20
90.000001341104493
10
295.0000145058483
20
65.000000968575478
10
292.00000435113907
20
65.000000968575478
10
292.00000435113907
20
40.000000596046448
10
295.00001450584642
20
40.000000596046341
10
295.0000145058483
20
15.0000002235174
10
292.00000435113907
20
15.000000223517418
10
292.00000435113907
20
0.40468592172708012
10
294.9999999388175
20
0.40468592172708018
10
400.0000145058483
20
0.40468592172708823
10
400.0000145058483
20
64.404685921727094
10
420.0000145058483
20
64.404685921727094
10
420.0000145058483
20
0.40468592172708862
10
524.9999999388175
20
0.40468592172709628
10
528.00000789421529
20
0.40468721254358864
10
528.00000789421529
20
14.999849198388713
10
525.00000146729553
20
14.999847907571491
10
525.00000929040516
20
39.99984828010215
10
528.00001308338392
20
39.999849570916837
10
528.00000232660739
20
64.999851722598635
10
525.00001711351524
20
64.999850431790705
10
525.00002493662498
20
89.999851077205108
10
528.00005106997912
20
89.999851077205065
10
528.00005106997901
20
100.40698565019439
0
LWPOLYLINE
5
101
100
AcDbEntity
8
0
100
AcDbPolyline
90
4
70
1
43
0.0
10
376.0000145058483
20
90.404685921727094
10
379.00001450584824
20
90.404685921727065
10
379.00001450584824
20
70.404685921727108
10
376.0000145058483
20
70.404685921727108
0
LWPOLYLINE
5
102
100
AcDbEntity
8
0
100
AcDbPolyline
90
4
70
1
43
0.0
10
376.00001450584637
20
50.40468592172725
10
379.00001450584631
20
50.40468592172725
10
379.00001450584631
20
30.404685921727243
10
376.00001450584637
20
30.404685921727243
0
LWPOLYLINE
5
103
100
AcDbEntity
8
0
100
AcDbPolyline
90
4
70
1
43
0.0
10
440.99997332548133
20
90.404685921727094
10
443.99997332548133
20
90.404685921727094
10
443.99997332548133
20
70.404685921727065
10
440.99997332548133
20
70.404685921727065
0
LWPOLYLINE
5
104
100
AcDbEntity
8
0
100
AcDbPolyline
90
4
70
1
43
0.0
10
440.99999053632132
20
50.404685921727072
10
443.99999053632229
20
50.404685921727072
10
443.99999053632229
20
30.404685921727157
10
440.99999053632132
20
30.404685921727157
0
LWPOLYLINE
5
105
100
AcDbEntity
8
0
100
AcDbPolyline
90
35
70
1
43
0.0
10
528.00005107139327
20
-30.000186794944312
10
528.00005107139316
20
-19.5930198844116
10
524.99999999560748
20
-19.595319581631543
10
294.99999841205943
20
-19.595319581631543
10
292.00000435336506
20
-19.599469159117611
10
292.00000435331964
20
-29.999998659316365
10
295.00000208760633
20
-29.999998659329474
10
295.00000208760633
20
-54.999999031424522
10
292.00000435113907
20
-54.999999031424522
10
292.00000435113907
20
-79.999999403953552
10
295.00000208760639
20
-79.999999403953666
10
295.00000208760633
20
-104.99999977648258
10
292.00000435113907
20
-104.99999977648258
10
292.00000435113907
20
-119.59531958163154
10
294.99999993427383
20
-119.59531958163154
10
341.00000208760639
20
-119.59531958163154
10
341.00000208760639
20
-100.59531958163154
10
356.00000208760639
20
-100.59531958163154
10
356.00000208760639
20
-119.59531958163154
10
402.50000208760639
20
-119.59531958163154
10
402.50000208760639
20
-100.59531958163154
10
417.50000208760639
20
-100.59531958163154
10
417.50000208760639
20
-119.59531958163154
10
464.00000208760639
20
-119.59531958163154
10
464.00000208760639
20
-100.59531958163154
10
479.00000208760639
20
-100.59531958163154
10
479.00000208760639
20
-119.59531958163154
10
528.00000789421529
20
-119.59531958163154
10
528.00000789421529
20
-105.00022695958671
10
525.00000208760662
20
-105.00022695958671
10
525.00000208760684
20
-80.000226587059871
10
528.00001523466847
20
-80.000226587059871
10
528.00001523466835
20
-55.000186794944298
10
525.00000208760673
20
-55.000186794944298
10
525.0000020876065
20
-30.000186794944312
0
LWPOLYLINE
5
106
100
AcDbEntity
8
0
100
AcDbPolyline
90
4
70
1
43
0.0
10
376.00000208760662
20
-49.595319581631514
10
376.00000208760662
20
-29.595319581631525
10
379.00000208760628
20
-29.595319581631561
10
379.00000208760628
20
-49.595319581631514
0
LWPOLYLINE
5
107
100
AcDbEntity
8
0
100
AcDbPolyline
90
4
70
1
43
0.0
10
441.00000208760667
20
-29.595319581631543
10
444.00000208760667
20
-29.595319581631543
10
444.00000208760667
20
-49.595319581631543
10
441.00000208760667
20
-49.595319581631543
0
LWPOLYLINE
5
108
100
AcDbEntity
8
0
100
AcDbPolyline
90
4
70
1
43
0.0
10
376.00000208760633
20
-69.595319581631514
10
379.00000208760628
20
-69.595319581631514
10
379.00000208760628
20
-89.595319581631529
10
376.00000208760633
20
-89.595319581631529
0
LWPOLYLINE
5
109
100
AcDbEntity
8
0
100
AcDbPolyline
90
4
70
1
43
0.0
10
441.00000208760684
20
-89.595319581631557
10
441.00000208760684
20
-69.595319581631557
10
444.00000208760679
20
-69.595319581631557
10
444.00000208760679
20
-89.595319581631557
0
LWPOLYLINE
5
110
100
AcDbEntity
8
0
100
AcDbPolyline
90
4
70
1
43
0.0
10
325.0000145058483
20
70.404685057459744
10
335.0000145058483
20
70.404685057459744
10
335.0000145058483
20
60.404685057459737
10
325.0000145058483
20
60.404685057459737
0
LWPOLYLINE
5
111
100
AcDbEntity
8
0
100
AcDbPolyline
90
4
70
1
43
0.0
10
337.0000193040222
20
70.40468624955264
10
347.00001945303381
20
70.40468624955264
10
347.00001945303381
20
60.404686100541021
10
337.0000193040222
20
60.404686100541021
0
LWPOLYLINE
5
112
100
AcDbEntity
8
0
100
AcDbPolyline
90
4
70
1
43
0.0
10
337.0000193040222
20
58.404686100541021
10
347.00001945303381
20
58.404686100541021
10
347.00001945303381
20
48.404685951529409
10
337.0000193040222
20
48.404685951529409
0
LWPOLYLINE
5
113
100
AcDbEntity
8
0
100
AcDbPolyline
90
4
70
1
43
0.0
10
325.00001912520827
20
58.404686070738698
10
335.0000145058483
20
58.404686070738698
10
335.0000145058483
20
48.404685921727086
10
325.00001912520827
20
48.404685921727086
0
LWPOLYLINE
5
114
100
AcDbEntity
8
0
100
AcDbPolyline
90
4
70
1
43
0.0
10
485.00001724019648
20
70.404684982953938
10
495.00001724019648
20
70.404684982953938
10
495.00001724019648
20
60.404684982953931
10
485.00001724019648
20
60.404684982953931
0
LWPOLYLINE
5
115
100
AcDbEntity
8
0
100
AcDbPolyline
90
4
70
1
43
0.0
10
495.00002476528289
20
58.404686070738698
10
485.00002461627128
20
58.404686070738698
10
485.00002461627128
20
48.404685921727086
10
495.00002476528289
20
48.404685921727086
0
LWPOLYLINE
5
116
100
AcDbEntity
8
0
100
AcDbPolyline
90
4
70
1
43
0.0
10
483.00002458646895
20
58.404686070738698
10
473.00002443745734
20
58.404686070738698
10
473.00002443745734
20
48.404685921727086
10
483.00002458646895
20
48.404685921727086
0
LWPOLYLINE
5
117
100
AcDbEntity
8
0
100
AcDbPolyline
90
4
70
1
43
0.0
10
483.00002458646895
20
60.404684982953931
10
473.00002443745734
20
60.404684982953931
10
473.00002443745734
20
70.40468624955264
10
483.00002458646895
20
70.40468624955264
0
LWPOLYLINE
5
118
100
AcDbEntity
8
0
100
AcDbPolyline
90
4
70
1
43
0.0
10
399.00000208760639
20
-49.595319581631536
10
409.00000208760639
20
-49.595319581631536
10
409.00000208760639
20
-59.595319581631536
10
399.00000208760639
20
-59.595319581631536
0
LWPOLYLINE
5
119
100
AcDbEntity
8
0
100
AcDbPolyline
90
4
70
1
43
0.0
10
411.00000208760639
20
-49.595319581631536
10
421.00000208760639
20
-49.595319581631536
10
421.00000208760639
20
-59.595319581631536
10
411.00000208760639
20
-59.595319581631536
0
LWPOLYLINE
5
120
100
AcDbEntity
8
0
100
AcDbPolyline
90
4
70
1
43
0.0
10
399.00000208760639
20
-61.595319581631536
10
409.00000208760639
20
-61.595319581631536
10
409.00000208760639
20
-71.595319581631543
10
399.00000208760639
20
-71.595319581631543
0
LWPOLYLINE
5
121
100
AcDbEntity
8
0
100
AcDbPolyline
90
4
70
1
43
0.0
10
411.00000208760639
20
-61.595319581631536
10
421.000002236618
20
-61.595319581631536
10
421.000002236618
20
-71.595319730643155
10
411.00000208760639
20
-71.595319730643155
0
ENDSEC
0
SECTION
2
OBJECTS
0
DICTIONARY
5
C
100
AcDbDictionary
3
ACAD_GROUP
350
D
3
ACAD_MLINESTYLE
350
17
0
DICTIONARY
5
D
100
AcDbDictionary
0
DICTIONARY
5
1A
330
C
100
AcDbDictionary
0
DICTIONARY
5
17
100
AcDbDictionary
0
ENDSEC
0
EOF
