0
SECTION
2
HEADER
9
$INSUNITS
70
4
9
$ACADVER
1
AC1014
9
$HANDSEED
5
FFFF
0
ENDSEC
0
SECTION
2
TABLES
0
TABLE
2
VPORT
5
8
100
AcDbSymbolTable
0
ENDTAB
0
TABLE
2
LTYPE
5
5
100
AcDbSymbolTable
0
LTYPE
5
14
100
AcDbSymbolTableRecord
100
AcDbLinetypeTableRecord
2
BYBLOCK
70
0
0
LTYPE
5
15
100
AcDbSymbolTableRecord
100
AcDbLinetypeTableRecord
2
BYLAYER
70
0
0
ENDTAB
0
TABLE
2
LAYER
5
2
100
AcDbSymbolTable
70
2
0
LAYER
5
50
100
AcDbSymbolTableRecord
100
AcDbLayerTableRecord
2
0
70
0
6
CONTINUOUS
0
ENDTAB
0
TABLE
2
STYLE
5
3
100
AcDbSymbolTable
70
1
0
STYLE
5
11
100
AcDbSymbolTableRecord
100
AcDbTextStyleTableRecord
2
STANDARD
70
0
0
ENDTAB
0
TABLE
2
VIEW
5
6
100
AcDbSymbolTable
70
0
0
ENDTAB
0
TABLE
2
UCS
5
7
100
AcDbSymbolTable
70
0
0
ENDTAB
0
TABLE
2
APPID
5
9
100
AcDbSymbolTable
70
2
0
APPID
5
12
100
AcDbSymbolTableRecord
100
AcDbRegAppTableRecord
2
ACAD
70
0
0
ENDTAB
0
TABLE
2
DIMSTYLE
5
A
100
AcDbSymbolTable
70
1
0
ENDTAB
0
TABLE
2
BLOCK_RECORD
5
1
100
AcDbSymbolTable
70
1
0
BLOCK_RECORD
5
1F
100
AcDbSymbolTableRecord
100
AcDbBlockTableRecord
2
*MODEL_SPACE
0
BLOCK_RECORD
5
1B
100
AcDbSymbolTableRecord
100
AcDbBlockTableRecord
2
*PAPER_SPACE
0
ENDTAB
0
ENDSEC
0
SECTION
2
BLOCKS
0
BLOCK
5
20
100
AcDbEntity
100
AcDbBlockBegin
2
*MODEL_SPACE
0
ENDBLK
5
21
100
AcDbEntity
100
AcDbBlockEnd
0
BLOCK
5
1C
100
AcDbEntity
100
AcDbBlockBegin
2
*PAPER_SPACE
0
ENDBLK
5
1D
100
AcDbEntity
100
AcDbBlockEnd
0
ENDSEC
0
SECTION
2
ENTITIES
0
LWPOLYLINE
5
100
100
AcDbEntity
8
0
100
AcDbPolyline
90
20
70
1
43
0.0
10
0
20
0
10
-230
20
0
10
-230.00000342726707
20
15.000000223517418
10
-233.00000347197056
20
12.000000178813934
10
-233.00000347197056
20
43.000000640749931
10
-230.00000342726707
20
40.000000596046448
10
-230.00000342726707
20
65.000000968575478
10
-233.00000347197056
20
62.000000923871987
10
-233.00000347197056
20
93.000001385807991
10
-230
20
89.999997913837433
10
-230
20
100
10
0
20
100
10
0
20
90.000001341104507
10
3.0000000447034836
20
93.000001385807991
10
3.0000000447034836
20
62.000000923871994
10
0
20
65.000000968575478
10
0
20
40.000000596046448
10
3.0000000447034836
20
43.000000640749931
10
3.0000000447034836
20
12.000000178813934
10
0
20
15.000000223517418
0
LWPOLYLINE
5
101
100
AcDbEntity
8
0
100
AcDbPolyline
90
4
70
1
43
0.0
10
-62
20
70.000000000000014
10
-52
20
70.000000000000014
10
-52
20
60.000000000000007
10
-62
20
60.000000000000007
0
LWPOLYLINE
5
102
100
AcDbEntity
8
0
100
AcDbPolyline
90
4
70
1
43
0.0
10
-50
20
70.000000000000014
10
-40
20
70.000000000000014
10
-40
20
60.000000000000007
10
-50
20
60.000000000000007
0
LWPOLYLINE
5
103
100
AcDbEntity
8
0
100
AcDbPolyline
90
4
70
1
43
0.0
10
-62
20
58.000000000000007
10
-52
20
58.000000000000007
10
-52
20
48.000000000000007
10
-62
20
48.000000000000007
0
LWPOLYLINE
5
104
100
AcDbEntity
8
0
100
AcDbPolyline
90
4
70
1
43
0.0
10
-50
20
58.000000000000007
10
-40
20
58.000000000000007
10
-40
20
48.000000000000007
10
-50
20
48.000000000000007
0
CIRCLE
5
105
100
AcDbEntity
8
0
100
AcDbCircle
10
-8
20
8
30
0
40
1.7499999999999996
210
0
220
0
230
1
0
CIRCLE
5
106
100
AcDbEntity
8
0
100
AcDbCircle
10
-222
20
8
30
0
40
1.750000000000012
210
0
220
0
230
1
0
LWPOLYLINE
5
107
100
AcDbEntity
8
0
100
AcDbPolyline
90
20
70
1
43
0.0
10
2.2922387151399876e-06
20
-24.999999958014296
10
2.2922387149515444e-06
20
-34.999997771810634
10
3.0000006060888413
20
-31.999999559384893
10
3.0000006060888413
20
-62.999998337164826
10
2.2922387151399876e-06
20
-59.999999921890286
10
2.2922387149515444e-06
20
-84.999998401930142
10
3.0000005595941093
20
-82.000000313891945
10
3.0000005595941115
20
-112.99999923115605
10
2.2922387151399876e-06
20
-110.00000078448346
10
2.2922387133030175e-06
20
-124.9999999580143
10
-229.99999770776128
20
-124.9999999580143
10
-230.00000113502864
20
-109.99999880663182
10
-233.00000305515707
20
-113.00000076204586
10
-233.00000305515707
20
-81.999999049669313
10
-230.00000684714112
20
-84.999995153112764
10
-230.0000125592511
20
-60.000003509131034
10
-233.00000730897867
20
-62.999998363430912
10
-233.00000730897867
20
-32.000009412519347
10
-230.00001827136384
20
-34.999998345561956
10
-230.00002055620814
20
-24.999999958014296
0
CIRCLE
5
108
100
AcDbEntity
8
0
100
AcDbCircle
10
-221.99999953563685
20
-116.99999995801429
30
0
40
1.750000000000012
210
0
220
0
230
1
0
CIRCLE
5
109
100
AcDbEntity
8
0
100
AcDbCircle
10
-7.9999977077612847
20
-116.99999995801429
30
0
40
1.7499999999999996
210
0
220
0
230
1
0
LWPOLYLINE
5
110
100
AcDbEntity
8
0
100
AcDbPolyline
90
20
70
1
43
0.0
10
-229.99999770776128
20
-124.9999999580143
10
2.292238718837325e-06
20
-124.9999999580143
10
5.7195060776393802e-06
20
-109.99999880663182
10
3.0000076396344966
20
-113.00000076204586
10
3.0000076396344966
20
-81.999999049669313
10
1.1431618567314672e-05
20
-84.999995153112764
10
1.7143728534563252e-05
20
-60.000003509131034
10
3.0000118934561115
20
-62.999998363430912
10
3.0000118934561115
20
-32.000009412519347
10
2.2855841272928501e-05
20
-34.999998345561956
10
2.5140685586677591e-05
20
-24.999999958014296
10
-229.99999770776128
20
-24.999999958014296
10
-229.99999770776128
20
-34.999997771810634
10
-232.99999602161139
20
-31.999999559384893
10
-232.99999602161139
20
-62.999998337164826
10
-229.99999770776128
20
-59.999999921890286
10
-229.99999770776128
20
-84.999998401930142
10
-232.99999597511663
20
-82.000000313891945
10
-232.99999597511669
20
-112.99999923115605
10
-229.99999770776128
20
-110.00000078448346
0
LWPOLYLINE
5
111
100
AcDbEntity
8
0
100
AcDbPolyline
90
4
70
1
43
0.0
10
-177.99999770776128
20
-64.999999999999986
10
-167.99999770776125
20
-64.999999999999986
10
-167.99999770776125
20
-54.999999999999993
10
-177.99999770776125
20
-54.999999999999993
0
LWPOLYLINE
5
112
100
AcDbEntity
8
0
100
AcDbPolyline
90
4
70
1
43
0.0
10
-189.99999541552256
20
-76.999999958014286
10
-179.99999541552256
20
-76.999999958014286
10
-179.99999541552256
20
-66.999999958014286
10
-189.99999541552256
20
-66.999999958014286
0
LWPOLYLINE
5
113
100
AcDbEntity
8
0
100
AcDbPolyline
90
4
70
1
43
0.0
10
-189.99999770776128
20
-64.999999958014286
10
-179.99999770776128
20
-64.999999958014286
10
-179.99999770776128
20
-54.999999958014286
10
-189.99999770776128
20
-54.999999958014286
0
CIRCLE
5
114
100
AcDbEntity
8
0
100
AcDbCircle
10
-7.9999958798857307
20
-116.99999995801429
30
0
40
1.750000000000012
210
0
220
0
230
1
0
CIRCLE
5
115
100
AcDbEntity
8
0
100
AcDbCircle
10
-221.99999770776128
20
-116.99999995801429
30
0
40
1.7499999999999996
210
0
220
0
230
1
0
LWPOLYLINE
5
116
100
AcDbEntity
8
0
100
AcDbPolyline
90
4
70
1
43
0.0
10
-167.99999541552256
20
-77
10
-167.99999541552256
20
-67
10
-177.99999541552256
20
-67
10
-177.99999541552256
20
-77
0
ENDSEC
0
SECTION
2
OBJECTS
0
DICTIONARY
5
C
100
AcDbDictionary
3
ACAD_GROUP
350
D
3
ACAD_MLINESTYLE
350
17
0
DICTIONARY
5
D
100
AcDbDictionary
0
DICTIONARY
5
1A
330
C
100
AcDbDictionary
0
DICTIONARY
5
17
100
AcDbDictionary
0
ENDSEC
0
EOF
